<svg width="272" height="252" viewBox="0 0 272 252" fill="none" xmlns="http://www.w3.org/2000/svg">
<mask id="mask0_2560_11134" style="mask-type:alpha" maskUnits="userSpaceOnUse" x="0" y="0" width="272" height="252">
<rect width="272" height="252" rx="10" fill="#DFEAFF"/>
</mask>
<g mask="url(#mask0_2560_11134)">
<rect width="342" height="290" rx="10" fill="#322828"/>
<path d="M23.0781 101.031H23.2344C23.4167 101.031 23.5729 101.083 23.7031 101.188C23.8333 101.292 23.8984 101.38 23.8984 101.453V101.586C23.8984 101.737 23.6849 102.143 23.2578 102.805C22.8307 103.466 22.5365 104.089 22.375 104.672C22.0938 105.693 21.9531 106.849 21.9531 108.141C21.9531 108.255 21.9531 108.37 21.9531 108.484L21.9609 108.656C21.9661 108.771 21.9688 108.883 21.9688 108.992C21.9688 110.023 22.1432 111.049 22.4922 112.07C22.6276 112.461 22.8854 112.93 23.2656 113.477C23.651 114.029 23.8438 114.427 23.8438 114.672C23.8438 114.792 23.7526 114.911 23.5703 115.031C23.3932 115.151 23.2266 115.211 23.0703 115.211H22.9219C22.6198 115.211 22.2604 114.938 21.8438 114.391C20.7083 112.896 20.1406 110.781 20.1406 108.047C20.1406 105.312 20.7786 103.195 22.0547 101.695C22.4297 101.253 22.7708 101.031 23.0781 101.031ZM30.1953 107.906V107.773C30.1953 107.362 30.0573 107.036 29.7812 106.797C29.5052 106.557 29.1745 106.438 28.7891 106.438H28.5938C28.1406 106.438 27.7604 106.591 27.4531 106.898C27.1458 107.206 26.9922 107.581 26.9922 108.023V108.148C26.9922 108.289 27.1615 108.359 27.5 108.359H27.8984L27.9453 108.352L29.6016 108.273L29.7734 108.258C30.0547 108.258 30.1953 108.141 30.1953 107.906ZM29.5547 109.609C27.8724 109.609 27.0312 109.786 27.0312 110.141C27.0312 110.589 27.1953 110.943 27.5234 111.203C27.8516 111.464 28.2656 111.594 28.7656 111.594C29.2656 111.594 29.7474 111.529 30.2109 111.398C30.6745 111.263 30.987 111.195 31.1484 111.195C31.3151 111.195 31.4531 111.263 31.5625 111.398C31.6771 111.529 31.7344 111.727 31.7344 111.992C31.7344 112.253 31.4479 112.518 30.875 112.789C30.3073 113.06 29.7214 113.195 29.1172 113.195H28.5469C28.099 113.195 27.625 113.104 27.125 112.922C26.1458 112.568 25.513 111.922 25.2266 110.984C25.0651 110.464 24.9844 109.938 24.9844 109.406V109.031C24.9844 107.125 25.6562 105.885 27 105.312C27.5 105.099 28.0677 104.992 28.7031 104.992C29.7812 104.992 30.6016 105.263 31.1641 105.805C31.4036 106.039 31.6068 106.372 31.7734 106.805C31.9453 107.237 32.0312 107.635 32.0312 108V108.523C32.0312 108.971 31.8698 109.266 31.5469 109.406C31.2292 109.542 30.5651 109.609 29.5547 109.609ZM44.8281 110.812C44.8229 111.01 44.8203 111.32 44.8203 111.742C44.8203 112.159 44.7786 112.44 44.6953 112.586C44.612 112.732 44.3281 112.805 43.8438 112.805C43.3646 112.805 43.0911 112.737 43.0234 112.602C42.9609 112.466 42.9297 112.081 42.9297 111.445L42.9062 110.547C42.8958 110.146 42.8906 109.742 42.8906 109.336C42.8906 108.237 42.8047 107.505 42.6328 107.141C42.4609 106.776 42.1953 106.594 41.8359 106.594C41.1484 106.594 40.6901 106.862 40.4609 107.398C40.3151 107.732 40.2422 108.602 40.2422 110.008C40.2422 111.414 40.1797 112.224 40.0547 112.438C39.8776 112.734 39.5286 112.883 39.0078 112.883C38.8203 112.883 38.6745 112.812 38.5703 112.672C38.4714 112.526 38.4219 112.18 38.4219 111.633L38.4297 111.328V109.773C38.4297 107.258 38.4714 105.88 38.5547 105.641C38.6432 105.396 38.9089 105.273 39.3516 105.273C39.4766 105.273 39.6562 105.328 39.8906 105.438C40.125 105.547 40.2943 105.602 40.3984 105.602C40.5078 105.602 40.776 105.518 41.2031 105.352C41.6354 105.185 42.0417 105.102 42.4219 105.102C42.8073 105.102 43.2734 105.229 43.8203 105.484C44.3724 105.74 44.6667 105.867 44.7031 105.867C44.7396 105.867 44.8724 105.802 45.1016 105.672L45.6016 105.383C45.9922 105.185 46.4193 105.086 46.8828 105.086C47.3464 105.086 47.7474 105.201 48.0859 105.43C48.4297 105.659 48.6927 105.953 48.875 106.312C49.1562 106.875 49.2969 108.008 49.2969 109.711L49.3125 110.922L49.3359 111.812C49.3359 112.193 49.2865 112.474 49.1875 112.656C49.0885 112.833 48.9089 112.922 48.6484 112.922C48.3932 112.922 48.1641 112.859 47.9609 112.734C47.763 112.609 47.6146 112.375 47.5156 112.031C47.4167 111.688 47.3672 110.935 47.3672 109.773C47.3672 108.607 47.2995 107.862 47.1641 107.539C46.9609 107.055 46.6042 106.812 46.0938 106.812C45.5833 106.812 45.2474 106.99 45.0859 107.344C44.9297 107.693 44.8516 108.359 44.8516 109.344L44.8359 110.516L44.8281 110.812ZM58.2344 111.633C58.2344 112.143 58.138 112.474 57.9453 112.625C57.7578 112.776 57.526 112.852 57.25 112.852C56.9792 112.852 56.7891 112.826 56.6797 112.773C56.5703 112.721 56.4661 112.646 56.3672 112.547C56.2734 112.443 56.2161 112.391 56.1953 112.391C56.1745 112.391 55.9115 112.495 55.4062 112.703C54.901 112.911 54.3958 113.016 53.8906 113.016C53.3906 113.016 52.9427 112.911 52.5469 112.703C51.8073 112.307 51.3828 111.555 51.2734 110.445C51.2422 110.107 51.2266 109.122 51.2266 107.492L51.2031 105.859V105.664C51.2031 105.305 51.4427 105.125 51.9219 105.125H52.1094C52.5885 105.125 52.8958 105.323 53.0312 105.719C53.0833 105.87 53.1094 106.68 53.1094 108.148C53.1094 109.612 53.1745 110.503 53.3047 110.82C53.5078 111.32 53.8958 111.57 54.4688 111.57C54.8125 111.57 55.1094 111.49 55.3594 111.328C55.6146 111.161 55.7995 110.966 55.9141 110.742C56.1172 110.357 56.2188 109.63 56.2188 108.562L56.2344 108.156L56.2422 107.539C56.2422 106.523 56.2969 105.904 56.4062 105.68C56.5521 105.383 56.9115 105.234 57.4844 105.234C57.7656 105.234 57.9479 105.393 58.0312 105.711C58.0781 105.888 58.1016 106.417 58.1016 107.297L58.2344 111.234V111.633ZM67.1719 111.633C67.1719 112.143 67.0755 112.474 66.8828 112.625C66.6953 112.776 66.4635 112.852 66.1875 112.852C65.9167 112.852 65.7266 112.826 65.6172 112.773C65.5078 112.721 65.4036 112.646 65.3047 112.547C65.2109 112.443 65.1536 112.391 65.1328 112.391C65.112 112.391 64.849 112.495 64.3438 112.703C63.8385 112.911 63.3333 113.016 62.8281 113.016C62.3281 113.016 61.8802 112.911 61.4844 112.703C60.7448 112.307 60.3203 111.555 60.2109 110.445C60.1797 110.107 60.1641 109.122 60.1641 107.492L60.1406 105.859V105.664C60.1406 105.305 60.3802 105.125 60.8594 105.125H61.0469C61.526 105.125 61.8333 105.323 61.9688 105.719C62.0208 105.87 62.0469 106.68 62.0469 108.148C62.0469 109.612 62.112 110.503 62.2422 110.82C62.4453 111.32 62.8333 111.57 63.4062 111.57C63.75 111.57 64.0469 111.49 64.2969 111.328C64.5521 111.161 64.737 110.966 64.8516 110.742C65.0547 110.357 65.1562 109.63 65.1562 108.562L65.1719 108.156L65.1797 107.539C65.1797 106.523 65.2344 105.904 65.3438 105.68C65.4896 105.383 65.849 105.234 66.4219 105.234C66.7031 105.234 66.8854 105.393 66.9688 105.711C67.0156 105.888 67.0391 106.417 67.0391 107.297L67.1719 111.234V111.633ZM76.1094 111.633C76.1094 112.143 76.013 112.474 75.8203 112.625C75.6328 112.776 75.401 112.852 75.125 112.852C74.8542 112.852 74.6641 112.826 74.5547 112.773C74.4453 112.721 74.3411 112.646 74.2422 112.547C74.1484 112.443 74.0911 112.391 74.0703 112.391C74.0495 112.391 73.7865 112.495 73.2812 112.703C72.776 112.911 72.2708 113.016 71.7656 113.016C71.2656 113.016 70.8177 112.911 70.4219 112.703C69.6823 112.307 69.2578 111.555 69.1484 110.445C69.1172 110.107 69.1016 109.122 69.1016 107.492L69.0781 105.859V105.664C69.0781 105.305 69.3177 105.125 69.7969 105.125H69.9844C70.4635 105.125 70.7708 105.323 70.9062 105.719C70.9583 105.87 70.9844 106.68 70.9844 108.148C70.9844 109.612 71.0495 110.503 71.1797 110.82C71.3828 111.32 71.7708 111.57 72.3438 111.57C72.6875 111.57 72.9844 111.49 73.2344 111.328C73.4896 111.161 73.6745 110.966 73.7891 110.742C73.9922 110.357 74.0938 109.63 74.0938 108.562L74.1094 108.156L74.1172 107.539C74.1172 106.523 74.1719 105.904 74.2812 105.68C74.4271 105.383 74.7865 105.234 75.3594 105.234C75.6406 105.234 75.8229 105.393 75.9062 105.711C75.9531 105.888 75.9766 106.417 75.9766 107.297L76.1094 111.234V111.633ZM78.2109 102.695C78.2266 102.633 78.2344 102.542 78.2344 102.422C78.2344 102.302 78.2969 102.18 78.4219 102.055C78.5521 101.924 78.7422 101.859 78.9922 101.859L79.2031 101.836H79.3828L79.4219 101.844L79.6641 101.867C79.6849 101.872 79.7083 101.875 79.7344 101.875C80.1094 101.875 80.2969 102.083 80.2969 102.5L80.3203 102.719V102.898L80.3047 103.047L80.2812 103.219C80.2812 103.635 79.9375 103.844 79.25 103.844H79.1797L79.1406 103.836L78.8672 103.812C78.8411 103.807 78.8177 103.805 78.7969 103.805C78.4271 103.805 78.2422 103.617 78.2422 103.242C78.2318 103.19 78.2266 103.154 78.2266 103.133L78.2109 102.992V102.695ZM79.25 113.031H79.0469C78.6667 113.031 78.4349 112.979 78.3516 112.875C78.2161 112.703 78.1484 112.401 78.1484 111.969C78.1484 111.536 78.1693 111.151 78.2109 110.812C78.2578 110.474 78.2812 110.276 78.2812 110.219L78.2891 110.016C78.2891 109.948 78.2891 109.88 78.2891 109.812L78.2969 109.609V108.57L78.3047 108.258V107.844L78.2969 107.531C78.2969 107.464 78.2969 107.396 78.2969 107.328L78.2891 107.125L78.0859 105.875V105.688C78.0859 105.438 78.138 105.281 78.2422 105.219C78.3516 105.156 78.5729 105.125 78.9062 105.125H79.2109C79.7005 105.125 79.9896 105.26 80.0781 105.531C80.125 105.672 80.1484 106.357 80.1484 107.586C80.1484 108.815 80.1562 109.526 80.1719 109.719C80.1875 109.906 80.2318 110.211 80.3047 110.633C80.3828 111.049 80.4219 111.336 80.4219 111.492L80.4375 111.688V111.977C80.4375 112.456 80.3646 112.753 80.2188 112.867C80.0729 112.977 79.75 113.031 79.25 113.031ZM86.875 112.328C86.875 112.792 86.401 113.023 85.4531 113.023C84.5052 113.023 83.8359 112.701 83.4453 112.055C83.1484 111.555 83 110.547 83 109.031V108.695L82.9844 108.211L82.9766 108.047L82.9688 107.555C82.9688 107.185 82.9427 106.948 82.8906 106.844C82.8438 106.734 82.6875 106.607 82.4219 106.461C82.1615 106.315 82.0312 106.125 82.0312 105.891V105.75C82.0312 105.344 82.1797 105.07 82.4766 104.93C82.7734 104.784 82.9479 104.648 83 104.523C83.0052 104.508 83.0469 104.279 83.125 103.836C83.2083 103.393 83.3021 103.094 83.4062 102.938C83.5156 102.781 83.7552 102.703 84.125 102.703C84.5 102.703 84.737 102.818 84.8359 103.047C84.8724 103.13 84.9297 103.404 85.0078 103.867C85.0859 104.331 85.1745 104.622 85.2734 104.742C85.3724 104.857 85.6094 104.951 85.9844 105.023C86.3594 105.096 86.5938 105.169 86.6875 105.242C86.7865 105.315 86.8359 105.492 86.8359 105.773C86.8359 106.055 86.7188 106.247 86.4844 106.352C86.3906 106.393 86.1693 106.43 85.8203 106.461C85.4714 106.487 85.2344 106.57 85.1094 106.711C84.9896 106.852 84.9297 107.341 84.9297 108.18L84.9219 108.344C84.9167 108.453 84.9141 108.562 84.9141 108.672L84.9062 108.836V109.172C84.9062 110.229 84.9766 110.862 85.1172 111.07C85.263 111.279 85.5156 111.404 85.875 111.445C86.2344 111.487 86.4896 111.568 86.6406 111.688C86.7969 111.807 86.875 112.021 86.875 112.328ZM91.6172 111.688H91.9375C92.5052 111.688 92.9297 111.469 93.2109 111.031C93.4922 110.594 93.6328 110.005 93.6328 109.266V108.852C93.6328 108.096 93.4818 107.505 93.1797 107.078C92.8828 106.646 92.4688 106.43 91.9375 106.43H91.7031C91.1875 106.43 90.7734 106.633 90.4609 107.039C90.1536 107.44 90 108.018 90 108.773V109.273C90 110.003 90.1406 110.589 90.4219 111.031C90.7083 111.469 91.1068 111.688 91.6172 111.688ZM95.5469 108.648V109.195C95.5469 109.747 95.4609 110.286 95.2891 110.812C95.1224 111.339 94.8932 111.763 94.6016 112.086C94.3099 112.404 93.9297 112.667 93.4609 112.875C92.9974 113.083 92.4896 113.188 91.9375 113.188H91.5234C90.4661 113.188 89.6094 112.812 88.9531 112.062C88.3802 111.411 88.0938 110.503 88.0938 109.336V108.789C88.0938 108.206 88.1823 107.667 88.3594 107.172C88.5417 106.677 88.7839 106.271 89.0859 105.953C89.3932 105.635 89.7865 105.388 90.2656 105.211C90.75 105.034 91.2786 104.945 91.8516 104.945L91.9922 104.953C92.4766 104.953 92.9427 105.036 93.3906 105.203C94.3229 105.557 94.9583 106.201 95.2969 107.133C95.4635 107.586 95.5469 108.091 95.5469 108.648ZM97.1016 107.195C97.1016 106.247 97.6406 105.578 98.7188 105.188C99.1042 105.042 99.526 104.969 99.9844 104.969H100.195C100.888 104.969 101.508 105.065 102.055 105.258C102.607 105.445 102.883 105.682 102.883 105.969C102.883 106.193 102.823 106.388 102.703 106.555C102.589 106.721 102.471 106.805 102.352 106.805C102.237 106.805 101.935 106.74 101.445 106.609C100.956 106.479 100.516 106.414 100.125 106.414C99.7396 106.414 99.4401 106.482 99.2266 106.617C99.013 106.753 98.9062 106.948 98.9062 107.203C98.9062 107.458 99.0729 107.68 99.4062 107.867C99.5469 107.945 99.8099 108.042 100.195 108.156C101.331 108.49 102.109 108.841 102.531 109.211C102.958 109.576 103.172 110.057 103.172 110.656V110.859C103.172 111.172 103.096 111.479 102.945 111.781C102.794 112.083 102.589 112.331 102.328 112.523C101.776 112.935 101.099 113.141 100.297 113.141H99.8672C99.1276 113.141 98.4661 113.026 97.8828 112.797C97.2995 112.568 97.0078 112.307 97.0078 112.016C97.0078 111.724 97.1094 111.477 97.3125 111.273C97.3854 111.201 97.5156 111.164 97.7031 111.164C97.724 111.164 98.0365 111.253 98.6406 111.43C99.2552 111.607 99.7708 111.695 100.188 111.695C100.969 111.695 101.359 111.367 101.359 110.711C101.359 110.477 101.164 110.266 100.773 110.078C100.602 109.995 100.146 109.839 99.4062 109.609C98.6667 109.375 98.1562 109.146 97.875 108.922C97.599 108.693 97.401 108.448 97.2812 108.188C97.1615 107.927 97.1016 107.596 97.1016 107.195ZM111 108.93V109.18C111 109.966 111.117 110.542 111.352 110.906C111.664 111.396 112.052 111.641 112.516 111.641H112.812C113.375 111.641 113.799 111.401 114.086 110.922C114.253 110.646 114.336 110.107 114.336 109.305V108.461C114.336 107.706 114.237 107.201 114.039 106.945C113.753 106.576 113.331 106.391 112.773 106.391L112.695 106.398C111.565 106.398 111 107.242 111 108.93ZM116.305 111.969C116.305 111.969 116.305 111.974 116.305 111.984C116.305 112.583 115.99 112.883 115.359 112.883C115.068 112.883 114.88 112.857 114.797 112.805C114.719 112.747 114.638 112.669 114.555 112.57C114.471 112.471 114.406 112.422 114.359 112.422C114.318 112.422 114.208 112.474 114.031 112.578C113.474 112.906 112.927 113.07 112.391 113.07H112.211C111.279 113.07 110.542 112.758 110 112.133C109.458 111.508 109.188 110.625 109.188 109.484V109.102C109.188 108.482 109.279 107.878 109.461 107.289C109.768 106.305 110.318 105.62 111.109 105.234C111.495 105.047 111.885 104.953 112.281 104.953C112.677 104.953 113.013 104.987 113.289 105.055C113.565 105.122 113.737 105.156 113.805 105.156C113.977 105.156 114.091 105.042 114.148 104.812C114.268 104.333 114.328 103.76 114.328 103.094C114.328 102.427 114.396 101.995 114.531 101.797C114.667 101.599 114.87 101.5 115.141 101.5H115.469C115.833 101.5 116.062 101.581 116.156 101.742C116.208 101.836 116.234 102.052 116.234 102.391L116.242 102.57C116.247 102.69 116.25 102.839 116.25 103.016V103.641L116.258 104.188V104.914L116.266 105.102V107.109L116.273 107.477V108.773L116.297 110.203V110.727L116.305 111.438V111.969ZM123.102 107.906V107.773C123.102 107.362 122.964 107.036 122.688 106.797C122.411 106.557 122.081 106.438 121.695 106.438H121.5C121.047 106.438 120.667 106.591 120.359 106.898C120.052 107.206 119.898 107.581 119.898 108.023V108.148C119.898 108.289 120.068 108.359 120.406 108.359H120.805L120.852 108.352L122.508 108.273L122.68 108.258C122.961 108.258 123.102 108.141 123.102 107.906ZM122.461 109.609C120.779 109.609 119.938 109.786 119.938 110.141C119.938 110.589 120.102 110.943 120.43 111.203C120.758 111.464 121.172 111.594 121.672 111.594C122.172 111.594 122.654 111.529 123.117 111.398C123.581 111.263 123.893 111.195 124.055 111.195C124.221 111.195 124.359 111.263 124.469 111.398C124.583 111.529 124.641 111.727 124.641 111.992C124.641 112.253 124.354 112.518 123.781 112.789C123.214 113.06 122.628 113.195 122.023 113.195H121.453C121.005 113.195 120.531 113.104 120.031 112.922C119.052 112.568 118.419 111.922 118.133 110.984C117.971 110.464 117.891 109.938 117.891 109.406V109.031C117.891 107.125 118.562 105.885 119.906 105.312C120.406 105.099 120.974 104.992 121.609 104.992C122.688 104.992 123.508 105.263 124.07 105.805C124.31 106.039 124.513 106.372 124.68 106.805C124.852 107.237 124.938 107.635 124.938 108V108.523C124.938 108.971 124.776 109.266 124.453 109.406C124.135 109.542 123.471 109.609 122.461 109.609ZM126.477 107.195C126.477 106.247 127.016 105.578 128.094 105.188C128.479 105.042 128.901 104.969 129.359 104.969H129.57C130.263 104.969 130.883 105.065 131.43 105.258C131.982 105.445 132.258 105.682 132.258 105.969C132.258 106.193 132.198 106.388 132.078 106.555C131.964 106.721 131.846 106.805 131.727 106.805C131.612 106.805 131.31 106.74 130.82 106.609C130.331 106.479 129.891 106.414 129.5 106.414C129.115 106.414 128.815 106.482 128.602 106.617C128.388 106.753 128.281 106.948 128.281 107.203C128.281 107.458 128.448 107.68 128.781 107.867C128.922 107.945 129.185 108.042 129.57 108.156C130.706 108.49 131.484 108.841 131.906 109.211C132.333 109.576 132.547 110.057 132.547 110.656V110.859C132.547 111.172 132.471 111.479 132.32 111.781C132.169 112.083 131.964 112.331 131.703 112.523C131.151 112.935 130.474 113.141 129.672 113.141H129.242C128.503 113.141 127.841 113.026 127.258 112.797C126.674 112.568 126.383 112.307 126.383 112.016C126.383 111.724 126.484 111.477 126.688 111.273C126.76 111.201 126.891 111.164 127.078 111.164C127.099 111.164 127.411 111.253 128.016 111.43C128.63 111.607 129.146 111.695 129.562 111.695C130.344 111.695 130.734 111.367 130.734 110.711C130.734 110.477 130.539 110.266 130.148 110.078C129.977 109.995 129.521 109.839 128.781 109.609C128.042 109.375 127.531 109.146 127.25 108.922C126.974 108.693 126.776 108.448 126.656 108.188C126.536 107.927 126.477 107.596 126.477 107.195ZM140.203 106.188C140.203 106.755 139.956 107.039 139.461 107.039C139.32 107.039 139.008 106.969 138.523 106.828C138.039 106.688 137.659 106.617 137.383 106.617C136.826 106.617 136.406 106.854 136.125 107.328C135.906 107.698 135.797 108.289 135.797 109.102C135.797 109.909 135.917 110.495 136.156 110.859C136.464 111.328 136.956 111.562 137.633 111.562C137.956 111.562 138.339 111.497 138.781 111.367C139.229 111.237 139.534 111.172 139.695 111.172C139.862 111.172 140.005 111.229 140.125 111.344C140.25 111.453 140.312 111.651 140.312 111.938C140.312 112.219 140.023 112.49 139.445 112.75C138.867 113.005 138.263 113.133 137.633 113.133H137.453C136.349 113.133 135.479 112.805 134.844 112.148C134.208 111.492 133.888 110.599 133.883 109.469V108.914C133.883 107.674 134.216 106.711 134.883 106.023C135.549 105.336 136.526 104.992 137.812 104.992H137.984C138.443 104.992 138.875 105.086 139.281 105.273C139.896 105.555 140.203 105.859 140.203 106.188ZM144.977 111.688H145.297C145.865 111.688 146.289 111.469 146.57 111.031C146.852 110.594 146.992 110.005 146.992 109.266V108.852C146.992 108.096 146.841 107.505 146.539 107.078C146.242 106.646 145.828 106.43 145.297 106.43H145.062C144.547 106.43 144.133 106.633 143.82 107.039C143.513 107.44 143.359 108.018 143.359 108.773V109.273C143.359 110.003 143.5 110.589 143.781 111.031C144.068 111.469 144.466 111.688 144.977 111.688ZM148.906 108.648V109.195C148.906 109.747 148.82 110.286 148.648 110.812C148.482 111.339 148.253 111.763 147.961 112.086C147.669 112.404 147.289 112.667 146.82 112.875C146.357 113.083 145.849 113.188 145.297 113.188H144.883C143.826 113.188 142.969 112.812 142.312 112.062C141.74 111.411 141.453 110.503 141.453 109.336V108.789C141.453 108.206 141.542 107.667 141.719 107.172C141.901 106.677 142.143 106.271 142.445 105.953C142.753 105.635 143.146 105.388 143.625 105.211C144.109 105.034 144.638 104.945 145.211 104.945L145.352 104.953C145.836 104.953 146.302 105.036 146.75 105.203C147.682 105.557 148.318 106.201 148.656 107.133C148.823 107.586 148.906 108.091 148.906 108.648ZM150.688 106.344C150.688 105.932 150.727 105.654 150.805 105.508C150.888 105.362 151.099 105.289 151.438 105.289C151.781 105.289 152.031 105.346 152.188 105.461C152.219 105.482 152.292 105.56 152.406 105.695C152.526 105.826 152.617 105.891 152.68 105.891C152.747 105.891 152.896 105.828 153.125 105.703C153.724 105.37 154.227 105.203 154.633 105.203H155.039C155.419 105.203 155.776 105.284 156.109 105.445C156.771 105.768 157.185 106.31 157.352 107.07C157.435 107.44 157.477 107.99 157.477 108.719L157.539 110.688L157.609 112.242C157.609 112.471 157.56 112.63 157.461 112.719C157.367 112.807 157.146 112.852 156.797 112.852C156.266 112.852 155.948 112.643 155.844 112.227C155.776 111.961 155.716 111.18 155.664 109.883C155.617 108.586 155.534 107.781 155.414 107.469C155.018 106.969 154.591 106.667 154.133 106.562C153.503 106.562 153.06 106.786 152.805 107.234C152.612 107.568 152.516 108.229 152.516 109.219L152.492 109.844L152.477 110.688C152.477 111.698 152.443 112.292 152.375 112.469C152.255 112.781 151.924 112.938 151.383 112.938C151.049 112.938 150.839 112.885 150.75 112.781C150.661 112.672 150.617 112.495 150.617 112.25L150.625 112.047C150.625 111.839 150.625 111.633 150.625 111.43L150.656 110.188V108.727L150.664 108.523C150.664 108.388 150.664 108.253 150.664 108.117L150.68 107.109L150.688 106.914V106.344ZM163.875 112.328C163.875 112.792 163.401 113.023 162.453 113.023C161.505 113.023 160.836 112.701 160.445 112.055C160.148 111.555 160 110.547 160 109.031V108.695L159.984 108.211L159.977 108.047L159.969 107.555C159.969 107.185 159.943 106.948 159.891 106.844C159.844 106.734 159.688 106.607 159.422 106.461C159.161 106.315 159.031 106.125 159.031 105.891V105.75C159.031 105.344 159.18 105.07 159.477 104.93C159.773 104.784 159.948 104.648 160 104.523C160.005 104.508 160.047 104.279 160.125 103.836C160.208 103.393 160.302 103.094 160.406 102.938C160.516 102.781 160.755 102.703 161.125 102.703C161.5 102.703 161.737 102.818 161.836 103.047C161.872 103.13 161.93 103.404 162.008 103.867C162.086 104.331 162.174 104.622 162.273 104.742C162.372 104.857 162.609 104.951 162.984 105.023C163.359 105.096 163.594 105.169 163.688 105.242C163.786 105.315 163.836 105.492 163.836 105.773C163.836 106.055 163.719 106.247 163.484 106.352C163.391 106.393 163.169 106.43 162.82 106.461C162.471 106.487 162.234 106.57 162.109 106.711C161.99 106.852 161.93 107.341 161.93 108.18L161.922 108.344C161.917 108.453 161.914 108.562 161.914 108.672L161.906 108.836V109.172C161.906 110.229 161.977 110.862 162.117 111.07C162.263 111.279 162.516 111.404 162.875 111.445C163.234 111.487 163.49 111.568 163.641 111.688C163.797 111.807 163.875 112.021 163.875 112.328ZM168.617 111.688H168.938C169.505 111.688 169.93 111.469 170.211 111.031C170.492 110.594 170.633 110.005 170.633 109.266V108.852C170.633 108.096 170.482 107.505 170.18 107.078C169.883 106.646 169.469 106.43 168.938 106.43H168.703C168.188 106.43 167.773 106.633 167.461 107.039C167.154 107.44 167 108.018 167 108.773V109.273C167 110.003 167.141 110.589 167.422 111.031C167.708 111.469 168.107 111.688 168.617 111.688ZM172.547 108.648V109.195C172.547 109.747 172.461 110.286 172.289 110.812C172.122 111.339 171.893 111.763 171.602 112.086C171.31 112.404 170.93 112.667 170.461 112.875C169.997 113.083 169.49 113.188 168.938 113.188H168.523C167.466 113.188 166.609 112.812 165.953 112.062C165.38 111.411 165.094 110.503 165.094 109.336V108.789C165.094 108.206 165.182 107.667 165.359 107.172C165.542 106.677 165.784 106.271 166.086 105.953C166.393 105.635 166.786 105.388 167.266 105.211C167.75 105.034 168.279 104.945 168.852 104.945L168.992 104.953C169.477 104.953 169.943 105.036 170.391 105.203C171.323 105.557 171.958 106.201 172.297 107.133C172.464 107.586 172.547 108.091 172.547 108.648ZM174.102 107.195C174.102 106.247 174.641 105.578 175.719 105.188C176.104 105.042 176.526 104.969 176.984 104.969H177.195C177.888 104.969 178.508 105.065 179.055 105.258C179.607 105.445 179.883 105.682 179.883 105.969C179.883 106.193 179.823 106.388 179.703 106.555C179.589 106.721 179.471 106.805 179.352 106.805C179.237 106.805 178.935 106.74 178.445 106.609C177.956 106.479 177.516 106.414 177.125 106.414C176.74 106.414 176.44 106.482 176.227 106.617C176.013 106.753 175.906 106.948 175.906 107.203C175.906 107.458 176.073 107.68 176.406 107.867C176.547 107.945 176.81 108.042 177.195 108.156C178.331 108.49 179.109 108.841 179.531 109.211C179.958 109.576 180.172 110.057 180.172 110.656V110.859C180.172 111.172 180.096 111.479 179.945 111.781C179.794 112.083 179.589 112.331 179.328 112.523C178.776 112.935 178.099 113.141 177.297 113.141H176.867C176.128 113.141 175.466 113.026 174.883 112.797C174.299 112.568 174.008 112.307 174.008 112.016C174.008 111.724 174.109 111.477 174.312 111.273C174.385 111.201 174.516 111.164 174.703 111.164C174.724 111.164 175.036 111.253 175.641 111.43C176.255 111.607 176.771 111.695 177.188 111.695C177.969 111.695 178.359 111.367 178.359 110.711C178.359 110.477 178.164 110.266 177.773 110.078C177.602 109.995 177.146 109.839 176.406 109.609C175.667 109.375 175.156 109.146 174.875 108.922C174.599 108.693 174.401 108.448 174.281 108.188C174.161 107.927 174.102 107.596 174.102 107.195ZM190.828 112.328C190.828 112.792 190.354 113.023 189.406 113.023C188.458 113.023 187.789 112.701 187.398 112.055C187.102 111.555 186.953 110.547 186.953 109.031V108.695L186.938 108.211L186.93 108.047L186.922 107.555C186.922 107.185 186.896 106.948 186.844 106.844C186.797 106.734 186.641 106.607 186.375 106.461C186.115 106.315 185.984 106.125 185.984 105.891V105.75C185.984 105.344 186.133 105.07 186.43 104.93C186.727 104.784 186.901 104.648 186.953 104.523C186.958 104.508 187 104.279 187.078 103.836C187.161 103.393 187.255 103.094 187.359 102.938C187.469 102.781 187.708 102.703 188.078 102.703C188.453 102.703 188.69 102.818 188.789 103.047C188.826 103.13 188.883 103.404 188.961 103.867C189.039 104.331 189.128 104.622 189.227 104.742C189.326 104.857 189.562 104.951 189.938 105.023C190.312 105.096 190.547 105.169 190.641 105.242C190.74 105.315 190.789 105.492 190.789 105.773C190.789 106.055 190.672 106.247 190.438 106.352C190.344 106.393 190.122 106.43 189.773 106.461C189.424 106.487 189.188 106.57 189.062 106.711C188.943 106.852 188.883 107.341 188.883 108.18L188.875 108.344C188.87 108.453 188.867 108.562 188.867 108.672L188.859 108.836V109.172C188.859 110.229 188.93 110.862 189.07 111.07C189.216 111.279 189.469 111.404 189.828 111.445C190.188 111.487 190.443 111.568 190.594 111.688C190.75 111.807 190.828 112.021 190.828 112.328ZM194.062 110.703C194.062 110.969 194.195 111.19 194.461 111.367C194.727 111.544 195.013 111.633 195.32 111.633H195.547C196.073 111.633 196.484 111.443 196.781 111.062C196.911 110.896 196.977 110.557 196.977 110.047L196.984 109.953V109.758C196.984 109.43 196.81 109.266 196.461 109.266H195.828C195.255 109.266 194.815 109.362 194.508 109.555C194.201 109.747 194.047 109.982 194.047 110.258V110.547C194.057 110.62 194.062 110.672 194.062 110.703ZM196.898 107.562C196.898 106.797 196.417 106.414 195.453 106.414C195.099 106.414 194.656 106.482 194.125 106.617C193.599 106.753 193.266 106.82 193.125 106.82C192.984 106.82 192.854 106.75 192.734 106.609C192.62 106.469 192.562 106.292 192.562 106.078C192.562 105.729 192.771 105.456 193.188 105.258C193.771 104.982 194.474 104.844 195.297 104.844H195.492C196.831 104.844 197.784 105.224 198.352 105.984C198.57 106.276 198.714 106.625 198.781 107.031C198.849 107.432 198.883 108.133 198.883 109.133C198.883 110.128 198.917 110.826 198.984 111.227C199.052 111.628 199.086 111.964 199.086 112.234C199.086 112.5 199.034 112.695 198.93 112.82C198.826 112.94 198.602 113 198.258 113C197.914 113 197.677 112.966 197.547 112.898C197.417 112.831 197.294 112.745 197.18 112.641C197.07 112.536 196.982 112.484 196.914 112.484C196.846 112.484 196.547 112.591 196.016 112.805C195.484 113.013 195.026 113.117 194.641 113.117H194.453C193.703 113.117 193.115 112.891 192.688 112.438C192.26 111.979 192.047 111.427 192.047 110.781V110.398C192.047 110.091 192.13 109.781 192.297 109.469C192.755 108.604 193.888 108.135 195.695 108.062C196.32 108.036 196.677 108 196.766 107.953C196.854 107.901 196.898 107.771 196.898 107.562ZM207.438 110.812C207.432 111.01 207.43 111.32 207.43 111.742C207.43 112.159 207.388 112.44 207.305 112.586C207.221 112.732 206.938 112.805 206.453 112.805C205.974 112.805 205.701 112.737 205.633 112.602C205.57 112.466 205.539 112.081 205.539 111.445L205.516 110.547C205.505 110.146 205.5 109.742 205.5 109.336C205.5 108.237 205.414 107.505 205.242 107.141C205.07 106.776 204.805 106.594 204.445 106.594C203.758 106.594 203.299 106.862 203.07 107.398C202.924 107.732 202.852 108.602 202.852 110.008C202.852 111.414 202.789 112.224 202.664 112.438C202.487 112.734 202.138 112.883 201.617 112.883C201.43 112.883 201.284 112.812 201.18 112.672C201.081 112.526 201.031 112.18 201.031 111.633L201.039 111.328V109.773C201.039 107.258 201.081 105.88 201.164 105.641C201.253 105.396 201.518 105.273 201.961 105.273C202.086 105.273 202.266 105.328 202.5 105.438C202.734 105.547 202.904 105.602 203.008 105.602C203.117 105.602 203.385 105.518 203.812 105.352C204.245 105.185 204.651 105.102 205.031 105.102C205.417 105.102 205.883 105.229 206.43 105.484C206.982 105.74 207.276 105.867 207.312 105.867C207.349 105.867 207.482 105.802 207.711 105.672L208.211 105.383C208.602 105.185 209.029 105.086 209.492 105.086C209.956 105.086 210.357 105.201 210.695 105.43C211.039 105.659 211.302 105.953 211.484 106.312C211.766 106.875 211.906 108.008 211.906 109.711L211.922 110.922L211.945 111.812C211.945 112.193 211.896 112.474 211.797 112.656C211.698 112.833 211.518 112.922 211.258 112.922C211.003 112.922 210.773 112.859 210.57 112.734C210.372 112.609 210.224 112.375 210.125 112.031C210.026 111.688 209.977 110.935 209.977 109.773C209.977 108.607 209.909 107.862 209.773 107.539C209.57 107.055 209.214 106.812 208.703 106.812C208.193 106.812 207.857 106.99 207.695 107.344C207.539 107.693 207.461 108.359 207.461 109.344L207.445 110.516L207.438 110.812ZM217.18 111.617H217.492C218.039 111.617 218.477 111.38 218.805 110.906C219.044 110.562 219.164 110.026 219.164 109.297V108.969L219.156 108.883L219.141 108.562C219.141 108.562 219.141 108.508 219.141 108.398C219.13 108.294 219.125 108.219 219.125 108.172C219.125 107.682 218.987 107.26 218.711 106.906C218.435 106.547 218.078 106.367 217.641 106.367H217.336C216.763 106.367 216.339 106.583 216.062 107.016C215.88 107.297 215.789 107.839 215.789 108.641V109.406L215.797 109.484L215.82 109.93C215.826 109.982 215.828 110.031 215.828 110.078C215.828 110.552 215.945 110.927 216.18 111.203C216.414 111.479 216.747 111.617 217.18 111.617ZM217.914 113.031H217.727C217.378 113.031 216.977 112.956 216.523 112.805C216.07 112.654 215.836 112.578 215.82 112.578C215.81 112.578 215.724 112.628 215.562 112.727C215.406 112.826 215.193 112.875 214.922 112.875C214.438 112.875 214.143 112.76 214.039 112.531C213.94 112.302 213.891 111.703 213.891 110.734V110.367L213.898 110.18V109.078L213.906 108.531C213.906 108.224 213.906 107.917 213.906 107.609L213.914 107.242C213.914 107.242 213.914 106.344 213.914 104.547C213.914 102.932 213.938 102.003 213.984 101.758C214.036 101.513 214.289 101.391 214.742 101.391H214.922C215.37 101.391 215.656 101.503 215.781 101.727C215.906 101.945 215.969 102.576 215.969 103.617C215.969 104.654 216.094 105.172 216.344 105.172C216.411 105.172 216.555 105.135 216.773 105.062C216.992 104.99 217.185 104.932 217.352 104.891C217.518 104.849 217.818 104.828 218.25 104.828C218.688 104.828 219.089 104.932 219.453 105.141C219.818 105.344 220.112 105.617 220.336 105.961C220.831 106.716 221.078 107.635 221.078 108.719V109.109C221.078 110.948 220.482 112.151 219.289 112.719C218.852 112.927 218.393 113.031 217.914 113.031ZM225.492 108.266C225.659 108.266 225.82 108.253 225.977 108.227C226.138 108.195 226.362 108.18 226.648 108.18L226.977 108.164C227.003 108.159 227.026 108.156 227.047 108.156C227.396 108.156 227.57 107.948 227.57 107.531V107.266C227.57 106.896 227.414 106.604 227.102 106.391C226.794 106.172 226.443 106.062 226.047 106.062H225.992L225.938 106.07C225.469 106.07 225.081 106.224 224.773 106.531C224.471 106.833 224.32 107.188 224.32 107.594L224.305 107.703V107.906C224.305 108.13 224.482 108.242 224.836 108.242L225.086 108.266H225.492ZM225.5 103.828H225.359C225.036 103.828 224.875 103.729 224.875 103.531V103.359C224.875 103.031 225.307 102.435 226.172 101.57C226.464 101.279 226.789 101.133 227.148 101.133C227.227 101.117 227.271 101.109 227.281 101.109H227.461C227.893 101.109 228.109 101.24 228.109 101.5V101.672C228.109 101.896 227.628 102.435 226.664 103.289C226.258 103.648 225.87 103.828 225.5 103.828ZM228.516 110.938C228.932 110.938 229.141 111.216 229.141 111.773C229.141 112.018 228.857 112.26 228.289 112.5C227.727 112.74 227.117 112.859 226.461 112.859H226.078C225.536 112.859 225 112.766 224.469 112.578C223.927 112.391 223.516 112.138 223.234 111.82C222.667 111.195 222.383 110.286 222.383 109.094C222.383 109.083 222.383 109.073 222.383 109.062V108.875C222.383 107.516 222.659 106.523 223.211 105.898C223.539 105.523 223.938 105.245 224.406 105.062C224.88 104.875 225.357 104.781 225.836 104.781H226.219C227.792 104.781 228.794 105.396 229.227 106.625C229.383 107.062 229.461 107.513 229.461 107.977V108.148C229.461 108.727 229.31 109.073 229.008 109.188C228.711 109.297 228.021 109.352 226.938 109.352C225.859 109.352 225.159 109.391 224.836 109.469C224.622 109.521 224.516 109.648 224.516 109.852C224.516 110.294 224.674 110.643 224.992 110.898C225.31 111.148 225.719 111.273 226.219 111.273C226.719 111.273 227.203 111.219 227.672 111.109C228.146 110.995 228.427 110.938 228.516 110.938ZM237.812 110.812C237.807 111.01 237.805 111.32 237.805 111.742C237.805 112.159 237.763 112.44 237.68 112.586C237.596 112.732 237.312 112.805 236.828 112.805C236.349 112.805 236.076 112.737 236.008 112.602C235.945 112.466 235.914 112.081 235.914 111.445L235.891 110.547C235.88 110.146 235.875 109.742 235.875 109.336C235.875 108.237 235.789 107.505 235.617 107.141C235.445 106.776 235.18 106.594 234.82 106.594C234.133 106.594 233.674 106.862 233.445 107.398C233.299 107.732 233.227 108.602 233.227 110.008C233.227 111.414 233.164 112.224 233.039 112.438C232.862 112.734 232.513 112.883 231.992 112.883C231.805 112.883 231.659 112.812 231.555 112.672C231.456 112.526 231.406 112.18 231.406 111.633L231.414 111.328V109.773C231.414 107.258 231.456 105.88 231.539 105.641C231.628 105.396 231.893 105.273 232.336 105.273C232.461 105.273 232.641 105.328 232.875 105.438C233.109 105.547 233.279 105.602 233.383 105.602C233.492 105.602 233.76 105.518 234.188 105.352C234.62 105.185 235.026 105.102 235.406 105.102C235.792 105.102 236.258 105.229 236.805 105.484C237.357 105.74 237.651 105.867 237.688 105.867C237.724 105.867 237.857 105.802 238.086 105.672L238.586 105.383C238.977 105.185 239.404 105.086 239.867 105.086C240.331 105.086 240.732 105.201 241.07 105.43C241.414 105.659 241.677 105.953 241.859 106.312C242.141 106.875 242.281 108.008 242.281 109.711L242.297 110.922L242.32 111.812C242.32 112.193 242.271 112.474 242.172 112.656C242.073 112.833 241.893 112.922 241.633 112.922C241.378 112.922 241.148 112.859 240.945 112.734C240.747 112.609 240.599 112.375 240.5 112.031C240.401 111.688 240.352 110.935 240.352 109.773C240.352 108.607 240.284 107.862 240.148 107.539C239.945 107.055 239.589 106.812 239.078 106.812C238.568 106.812 238.232 106.99 238.07 107.344C237.914 107.693 237.836 108.359 237.836 109.344L237.82 110.516L237.812 110.812ZM245.766 109.977H245.391C245.073 109.977 244.914 109.766 244.914 109.344L244.898 109.156C244.898 109.094 244.898 109.031 244.898 108.969L244.875 108.289C244.875 108.227 244.875 108.164 244.875 108.102L244.859 107.609V107.414L244.852 107.211V107.016L244.844 106.719V106.523L244.836 106.32V106.125L244.82 105.523C244.82 105.388 244.82 105.253 244.82 105.117L244.812 104.922V104.523L244.805 104.328C244.805 104.198 244.805 104.068 244.805 103.938L244.797 103.742V102.984L244.789 102.789C244.789 102.378 244.859 102.12 245 102.016C245.146 101.906 245.44 101.852 245.883 101.852H245.977C246.326 101.852 246.542 101.896 246.625 101.984C246.708 102.073 246.75 102.299 246.75 102.664V102.758L246.742 102.852L246.68 104.391L246.672 104.484L246.641 105.18L246.625 105.578C246.604 105.849 246.594 106.049 246.594 106.18L246.578 106.383L246.555 106.977L246.539 107.18L246.508 107.867C246.487 108.117 246.477 108.31 246.477 108.445L246.461 108.641L246.438 109.211C246.438 109.518 246.396 109.724 246.312 109.828C246.234 109.927 246.052 109.977 245.766 109.977ZM245.516 113.188L245.234 113.156C244.828 113.156 244.625 112.859 244.625 112.266V112.039L244.641 111.891L244.664 111.711C244.664 111.299 244.961 111.094 245.555 111.094H245.812L245.953 111.109L246.133 111.133C246.492 111.133 246.672 111.341 246.672 111.758C246.682 111.81 246.688 111.846 246.688 111.867L246.703 112.055V112.242L246.695 112.281V112.352C246.669 112.482 246.656 112.565 246.656 112.602C246.656 112.966 246.456 113.148 246.055 113.148C245.982 113.164 245.935 113.172 245.914 113.172L245.734 113.188H245.516ZM249.742 115.211H249.594C249.151 115.211 248.93 115.073 248.93 114.797V114.664C248.93 114.456 249.141 114.047 249.562 113.438C249.99 112.828 250.273 112.268 250.414 111.758C250.732 110.602 250.891 109.346 250.891 107.992C250.891 106.638 250.745 105.474 250.453 104.5C250.312 104.031 250.039 103.471 249.633 102.82C249.232 102.164 249.031 101.766 249.031 101.625C249.031 101.479 249.107 101.344 249.258 101.219C249.414 101.094 249.576 101.031 249.742 101.031H249.898C250.174 101.031 250.531 101.32 250.969 101.898C251.406 102.477 251.75 103.091 252 103.742C252.448 104.904 252.672 106.339 252.672 108.047C252.672 110.844 252.029 113.003 250.742 114.523C250.357 114.982 250.023 115.211 249.742 115.211Z" fill="#BDBDBD"/>
<path d="M28.724 41.9H22.174L21.124 45H16.649L22.999 27.45H27.949L34.299 45H29.774L28.724 41.9ZM27.624 38.6L25.449 32.175L23.299 38.6H27.624ZM45.8045 33.025C46.2045 32.375 46.7795 31.85 47.5295 31.45C48.2795 31.05 49.1378 30.85 50.1045 30.85C51.2545 30.85 52.2962 31.1417 53.2295 31.725C54.1628 32.3083 54.8962 33.1417 55.4295 34.225C55.9795 35.3083 56.2545 36.5667 56.2545 38C56.2545 39.4333 55.9795 40.7 55.4295 41.8C54.8962 42.8833 54.1628 43.725 53.2295 44.325C52.2962 44.9083 51.2545 45.2 50.1045 45.2C49.1212 45.2 48.2628 45.0083 47.5295 44.625C46.7962 44.225 46.2212 43.7 45.8045 43.05V45H41.5295V26.5H45.8045V33.025ZM51.9045 38C51.9045 36.9333 51.6045 36.1 51.0045 35.5C50.4212 34.8833 49.6962 34.575 48.8295 34.575C47.9795 34.575 47.2545 34.8833 46.6545 35.5C46.0712 36.1167 45.7795 36.9583 45.7795 38.025C45.7795 39.0917 46.0712 39.9333 46.6545 40.55C47.2545 41.1667 47.9795 41.475 48.8295 41.475C49.6795 41.475 50.4045 41.1667 51.0045 40.55C51.6045 39.9167 51.9045 39.0667 51.9045 38ZM62.7723 26.5V45H58.4973V26.5H62.7723ZM65.0203 38C65.0203 36.5667 65.287 35.3083 65.8203 34.225C66.3703 33.1417 67.112 32.3083 68.0453 31.725C68.9786 31.1417 70.0203 30.85 71.1703 30.85C72.1536 30.85 73.012 31.05 73.7453 31.45C74.4953 31.85 75.0703 32.375 75.4703 33.025V31.05H79.7453V45H75.4703V43.025C75.0536 43.675 74.4703 44.2 73.7203 44.6C72.987 45 72.1286 45.2 71.1453 45.2C70.012 45.2 68.9786 44.9083 68.0453 44.325C67.112 43.725 66.3703 42.8833 65.8203 41.8C65.287 40.7 65.0203 39.4333 65.0203 38ZM75.4703 38.025C75.4703 36.9583 75.1703 36.1167 74.5703 35.5C73.987 34.8833 73.2703 34.575 72.4203 34.575C71.5703 34.575 70.8453 34.8833 70.2453 35.5C69.662 36.1 69.3703 36.9333 69.3703 38C69.3703 39.0667 69.662 39.9167 70.2453 40.55C70.8453 41.1667 71.5703 41.475 72.4203 41.475C73.2703 41.475 73.987 41.1667 74.5703 40.55C75.1703 39.9333 75.4703 39.0917 75.4703 38.025ZM81.9881 38.025C81.9881 36.575 82.2798 35.3083 82.8631 34.225C83.4631 33.1417 84.2881 32.3083 85.3381 31.725C86.4048 31.1417 87.6214 30.85 88.9881 30.85C90.7381 30.85 92.1964 31.3083 93.3631 32.225C94.5464 33.1417 95.3214 34.4333 95.6881 36.1H91.1381C90.7548 35.0333 90.0131 34.5 88.9131 34.5C88.1298 34.5 87.5048 34.8083 87.0381 35.425C86.5714 36.025 86.3381 36.8917 86.3381 38.025C86.3381 39.1583 86.5714 40.0333 87.0381 40.65C87.5048 41.25 88.1298 41.55 88.9131 41.55C90.0131 41.55 90.7548 41.0167 91.1381 39.95H95.6881C95.3214 41.5833 94.5464 42.8667 93.3631 43.8C92.1798 44.7333 90.7214 45.2 88.9881 45.2C87.6214 45.2 86.4048 44.9083 85.3381 44.325C84.2881 43.7417 83.4631 42.9083 82.8631 41.825C82.2798 40.7417 81.9881 39.475 81.9881 38.025ZM106.5 45L102.25 39.15V45H97.9748V26.5H102.25V36.725L106.475 31.05H111.75L105.95 38.05L111.8 45H106.5ZM125.727 34.6H123.427V45H119.152V34.6H117.602V31.05H119.152V30.65C119.152 28.9333 119.643 27.6333 120.627 26.75C121.61 25.85 123.052 25.4 124.952 25.4C125.268 25.4 125.502 25.4083 125.652 25.425V29.05C124.835 29 124.26 29.1167 123.927 29.4C123.593 29.6833 123.427 30.1917 123.427 30.925V31.05H125.727V34.6ZM132.011 33.375C132.511 32.6083 133.136 32.0083 133.886 31.575C134.636 31.125 135.469 30.9 136.386 30.9V35.425H135.211C134.144 35.425 133.344 35.6583 132.811 36.125C132.277 36.575 132.011 37.375 132.011 38.525V45H127.736V31.05H132.011V33.375ZM140.579 29.6C139.829 29.6 139.212 29.3833 138.729 28.95C138.262 28.5 138.029 27.95 138.029 27.3C138.029 26.6333 138.262 26.0833 138.729 25.65C139.212 25.2 139.829 24.975 140.579 24.975C141.312 24.975 141.912 25.2 142.379 25.65C142.862 26.0833 143.104 26.6333 143.104 27.3C143.104 27.95 142.862 28.5 142.379 28.95C141.912 29.3833 141.312 29.6 140.579 29.6ZM142.704 31.05V45H138.429V31.05H142.704ZM144.952 38C144.952 36.5667 145.219 35.3083 145.752 34.225C146.302 33.1417 147.044 32.3083 147.977 31.725C148.91 31.1417 149.952 30.85 151.102 30.85C152.019 30.85 152.852 31.0417 153.602 31.425C154.369 31.8083 154.969 32.325 155.402 32.975V26.5H159.677V45H155.402V43C155.002 43.6667 154.427 44.2 153.677 44.6C152.944 45 152.085 45.2 151.102 45.2C149.952 45.2 148.91 44.9083 147.977 44.325C147.044 43.725 146.302 42.8833 145.752 41.8C145.219 40.7 144.952 39.4333 144.952 38ZM155.402 38.025C155.402 36.9583 155.102 36.1167 154.502 35.5C153.919 34.8833 153.202 34.575 152.352 34.575C151.502 34.575 150.777 34.8833 150.177 35.5C149.594 36.1 149.302 36.9333 149.302 38C149.302 39.0667 149.594 39.9167 150.177 40.55C150.777 41.1667 151.502 41.475 152.352 41.475C153.202 41.475 153.919 41.1667 154.502 40.55C155.102 39.9333 155.402 39.0917 155.402 38.025ZM161.92 38C161.92 36.5667 162.186 35.3083 162.72 34.225C163.27 33.1417 164.011 32.3083 164.945 31.725C165.878 31.1417 166.92 30.85 168.07 30.85C169.053 30.85 169.911 31.05 170.645 31.45C171.395 31.85 171.97 32.375 172.37 33.025V31.05H176.645V45H172.37V43.025C171.953 43.675 171.37 44.2 170.62 44.6C169.886 45 169.028 45.2 168.045 45.2C166.911 45.2 165.878 44.9083 164.945 44.325C164.011 43.725 163.27 42.8833 162.72 41.8C162.186 40.7 161.92 39.4333 161.92 38ZM172.37 38.025C172.37 36.9583 172.07 36.1167 171.47 35.5C170.886 34.8833 170.17 34.575 169.32 34.575C168.47 34.575 167.745 34.8833 167.145 35.5C166.561 36.1 166.27 36.9333 166.27 38C166.27 39.0667 166.561 39.9167 167.145 40.55C167.745 41.1667 168.47 41.475 169.32 41.475C170.17 41.475 170.886 41.1667 171.47 40.55C172.07 39.9333 172.37 39.0917 172.37 38.025ZM193.988 31.05L185.238 51.625H180.638L183.838 44.525L178.162 31.05H182.938L186.163 39.775L189.363 31.05H193.988ZM213.981 37.8C213.981 38.2 213.956 38.6167 213.906 39.05H204.231C204.298 39.9167 204.573 40.5833 205.056 41.05C205.556 41.5 206.165 41.725 206.881 41.725C207.948 41.725 208.69 41.275 209.106 40.375H213.656C213.423 41.2917 212.998 42.1167 212.381 42.85C211.781 43.5833 211.023 44.1583 210.106 44.575C209.19 44.9917 208.165 45.2 207.031 45.2C205.665 45.2 204.448 44.9083 203.381 44.325C202.315 43.7417 201.481 42.9083 200.881 41.825C200.281 40.7417 199.981 39.475 199.981 38.025C199.981 36.575 200.273 35.3083 200.856 34.225C201.456 33.1417 202.29 32.3083 203.356 31.725C204.423 31.1417 205.648 30.85 207.031 30.85C208.381 30.85 209.581 31.1333 210.631 31.7C211.681 32.2667 212.498 33.075 213.081 34.125C213.681 35.175 213.981 36.4 213.981 37.8ZM209.606 36.675C209.606 35.9417 209.356 35.3583 208.856 34.925C208.356 34.4917 207.731 34.275 206.981 34.275C206.265 34.275 205.656 34.4833 205.156 34.9C204.673 35.3167 204.373 35.9083 204.256 36.675H209.606ZM221.912 45.2C220.695 45.2 219.612 44.9917 218.662 44.575C217.712 44.1583 216.962 43.5917 216.412 42.875C215.862 42.1417 215.553 41.325 215.487 40.425H219.712C219.762 40.9083 219.987 41.3 220.387 41.6C220.787 41.9 221.278 42.05 221.862 42.05C222.395 42.05 222.803 41.95 223.087 41.75C223.387 41.5333 223.537 41.2583 223.537 40.925C223.537 40.525 223.328 40.2333 222.912 40.05C222.495 39.85 221.82 39.6333 220.887 39.4C219.887 39.1667 219.053 38.925 218.387 38.675C217.72 38.4083 217.145 38 216.662 37.45C216.178 36.8833 215.937 36.125 215.937 35.175C215.937 34.375 216.153 33.65 216.587 33C217.037 32.3333 217.687 31.8083 218.537 31.425C219.403 31.0417 220.428 30.85 221.612 30.85C223.362 30.85 224.737 31.2833 225.737 32.15C226.753 33.0167 227.337 34.1667 227.487 35.6H223.537C223.47 35.1167 223.253 34.7333 222.887 34.45C222.537 34.1667 222.07 34.025 221.487 34.025C220.987 34.025 220.603 34.125 220.337 34.325C220.07 34.5083 219.937 34.7667 219.937 35.1C219.937 35.5 220.145 35.8 220.562 36C220.995 36.2 221.662 36.4 222.562 36.6C223.595 36.8667 224.437 37.1333 225.087 37.4C225.737 37.65 226.303 38.0667 226.787 38.65C227.287 39.2167 227.545 39.9833 227.562 40.95C227.562 41.7667 227.328 42.5 226.862 43.15C226.412 43.7833 225.753 44.2833 224.887 44.65C224.037 45.0167 223.045 45.2 221.912 45.2ZM237.952 41.375V45H235.777C234.227 45 233.019 44.625 232.152 43.875C231.285 43.1083 230.852 41.8667 230.852 40.15V34.6H229.152V31.05H230.852V27.65H235.127V31.05H237.927V34.6H235.127V40.2C235.127 40.6167 235.227 40.9167 235.427 41.1C235.627 41.2833 235.96 41.375 236.427 41.375H237.952ZM239.483 38C239.483 36.5667 239.75 35.3083 240.283 34.225C240.833 33.1417 241.575 32.3083 242.508 31.725C243.442 31.1417 244.483 30.85 245.633 30.85C246.617 30.85 247.475 31.05 248.208 31.45C248.958 31.85 249.533 32.375 249.933 33.025V31.05H254.208V45H249.933V43.025C249.517 43.675 248.933 44.2 248.183 44.6C247.45 45 246.592 45.2 245.608 45.2C244.475 45.2 243.442 44.9083 242.508 44.325C241.575 43.725 240.833 42.8833 240.283 41.8C239.75 40.7 239.483 39.4333 239.483 38ZM249.933 38.025C249.933 36.9583 249.633 36.1167 249.033 35.5C248.45 34.8833 247.733 34.575 246.883 34.575C246.033 34.575 245.308 34.8833 244.708 35.5C244.125 36.1 243.833 36.9333 243.833 38C243.833 39.0667 244.125 39.9167 244.708 40.55C245.308 41.1667 246.033 41.475 246.883 41.475C247.733 41.475 248.45 41.1667 249.033 40.55C249.633 39.9333 249.933 39.0917 249.933 38.025ZM250.258 27.575L244.233 30.1V27.15L250.258 24.25V27.575ZM66.2776 76.025C66.2776 74.575 66.5693 73.3083 67.1526 72.225C67.7526 71.1417 68.5776 70.3083 69.6276 69.725C70.6943 69.1417 71.911 68.85 73.2776 68.85C75.0276 68.85 76.486 69.3083 77.6526 70.225C78.836 71.1417 79.611 72.4333 79.9776 74.1H75.4276C75.0443 73.0333 74.3026 72.5 73.2026 72.5C72.4193 72.5 71.7943 72.8083 71.3276 73.425C70.861 74.025 70.6276 74.8917 70.6276 76.025C70.6276 77.1583 70.861 78.0333 71.3276 78.65C71.7943 79.25 72.4193 79.55 73.2026 79.55C74.3026 79.55 75.0443 79.0167 75.4276 77.95H79.9776C79.611 79.5833 78.836 80.8667 77.6526 81.8C76.4693 82.7333 75.011 83.2 73.2776 83.2C71.911 83.2 70.6943 82.9083 69.6276 82.325C68.5776 81.7417 67.7526 80.9083 67.1526 79.825C66.5693 78.7417 66.2776 77.475 66.2776 76.025ZM90.8394 68.9C92.4394 68.9 93.7227 69.4333 94.6894 70.5C95.656 71.55 96.1394 73 96.1394 74.85V83H91.8894V75.425C91.8894 74.4917 91.6477 73.7667 91.1644 73.25C90.681 72.7333 90.031 72.475 89.2144 72.475C88.3977 72.475 87.7477 72.7333 87.2644 73.25C86.781 73.7667 86.5394 74.4917 86.5394 75.425V83H82.2644V64.5H86.5394V70.925C86.9727 70.3083 87.5644 69.8167 88.3144 69.45C89.0644 69.0833 89.906 68.9 90.8394 68.9ZM112.26 75.8C112.26 76.2 112.235 76.6167 112.185 77.05H102.51C102.577 77.9167 102.852 78.5833 103.335 79.05C103.835 79.5 104.443 79.725 105.16 79.725C106.227 79.725 106.968 79.275 107.385 78.375H111.935C111.702 79.2917 111.277 80.1167 110.66 80.85C110.06 81.5833 109.302 82.1583 108.385 82.575C107.468 82.9917 106.443 83.2 105.31 83.2C103.943 83.2 102.727 82.9083 101.66 82.325C100.593 81.7417 99.7601 80.9083 99.1601 79.825C98.5601 78.7417 98.2601 77.475 98.2601 76.025C98.2601 74.575 98.5517 73.3083 99.1351 72.225C99.7351 71.1417 100.568 70.3083 101.635 69.725C102.702 69.1417 103.927 68.85 105.31 68.85C106.66 68.85 107.86 69.1333 108.91 69.7C109.96 70.2667 110.777 71.075 111.36 72.125C111.96 73.175 112.26 74.4 112.26 75.8ZM107.885 74.675C107.885 73.9417 107.635 73.3583 107.135 72.925C106.635 72.4917 106.01 72.275 105.26 72.275C104.543 72.275 103.935 72.4833 103.435 72.9C102.952 73.3167 102.652 73.9083 102.535 74.675H107.885ZM119.815 68.85C120.799 68.85 121.657 69.05 122.39 69.45C123.14 69.85 123.715 70.375 124.115 71.025V69.05H128.39V82.975C128.39 84.2583 128.132 85.4167 127.615 86.45C127.115 87.5 126.34 88.3333 125.29 88.95C124.257 89.5667 122.965 89.875 121.415 89.875C119.349 89.875 117.674 89.3833 116.39 88.4C115.107 87.4333 114.374 86.1167 114.19 84.45H118.415C118.549 84.9833 118.865 85.4 119.365 85.7C119.865 86.0167 120.482 86.175 121.215 86.175C122.099 86.175 122.799 85.9167 123.315 85.4C123.849 84.9 124.115 84.0917 124.115 82.975V81C123.699 81.65 123.124 82.1833 122.39 82.6C121.657 83 120.799 83.2 119.815 83.2C118.665 83.2 117.624 82.9083 116.69 82.325C115.757 81.725 115.015 80.8833 114.465 79.8C113.932 78.7 113.665 77.4333 113.665 76C113.665 74.5667 113.932 73.3083 114.465 72.225C115.015 71.1417 115.757 70.3083 116.69 69.725C117.624 69.1417 118.665 68.85 119.815 68.85ZM124.115 76.025C124.115 74.9583 123.815 74.1167 123.215 73.5C122.632 72.8833 121.915 72.575 121.065 72.575C120.215 72.575 119.49 72.8833 118.89 73.5C118.307 74.1 118.015 74.9333 118.015 76C118.015 77.0667 118.307 77.9167 118.89 78.55C119.49 79.1667 120.215 79.475 121.065 79.475C121.915 79.475 122.632 79.1667 123.215 78.55C123.815 77.9333 124.115 77.0917 124.115 76.025ZM130.633 76C130.633 74.5667 130.9 73.3083 131.433 72.225C131.983 71.1417 132.725 70.3083 133.658 69.725C134.591 69.1417 135.633 68.85 136.783 68.85C137.766 68.85 138.625 69.05 139.358 69.45C140.108 69.85 140.683 70.375 141.083 71.025V69.05H145.358V83H141.083V81.025C140.666 81.675 140.083 82.2 139.333 82.6C138.6 83 137.741 83.2 136.758 83.2C135.625 83.2 134.591 82.9083 133.658 82.325C132.725 81.725 131.983 80.8833 131.433 79.8C130.9 78.7 130.633 77.4333 130.633 76ZM141.083 76.025C141.083 74.9583 140.783 74.1167 140.183 73.5C139.6 72.8833 138.883 72.575 138.033 72.575C137.183 72.575 136.458 72.8833 135.858 73.5C135.275 74.1 134.983 74.9333 134.983 76C134.983 77.0667 135.275 77.9167 135.858 78.55C136.458 79.1667 137.183 79.475 138.033 79.475C138.883 79.475 139.6 79.1667 140.183 78.55C140.783 77.9333 141.083 77.0917 141.083 76.025ZM156.951 68.9C158.584 68.9 159.884 69.4333 160.851 70.5C161.834 71.55 162.326 73 162.326 74.85V83H158.076V75.425C158.076 74.4917 157.834 73.7667 157.351 73.25C156.868 72.7333 156.218 72.475 155.401 72.475C154.584 72.475 153.934 72.7333 153.451 73.25C152.968 73.7667 152.726 74.4917 152.726 75.425V83H148.451V69.05H152.726V70.9C153.159 70.2833 153.743 69.8 154.476 69.45C155.209 69.0833 156.034 68.9 156.951 68.9ZM164.447 76C164.447 74.5667 164.713 73.3083 165.247 72.225C165.797 71.1417 166.538 70.3083 167.472 69.725C168.405 69.1417 169.447 68.85 170.597 68.85C171.513 68.85 172.347 69.0417 173.097 69.425C173.863 69.8083 174.463 70.325 174.897 70.975V64.5H179.172V83H174.897V81C174.497 81.6667 173.922 82.2 173.172 82.6C172.438 83 171.58 83.2 170.597 83.2C169.447 83.2 168.405 82.9083 167.472 82.325C166.538 81.725 165.797 80.8833 165.247 79.8C164.713 78.7 164.447 77.4333 164.447 76ZM174.897 76.025C174.897 74.9583 174.597 74.1167 173.997 73.5C173.413 72.8833 172.697 72.575 171.847 72.575C170.997 72.575 170.272 72.8833 169.672 73.5C169.088 74.1 168.797 74.9333 168.797 76C168.797 77.0667 169.088 77.9167 169.672 78.55C170.272 79.1667 170.997 79.475 171.847 79.475C172.697 79.475 173.413 79.1667 173.997 78.55C174.597 77.9333 174.897 77.0917 174.897 76.025ZM188.614 83.2C187.248 83.2 186.014 82.9083 184.914 82.325C183.831 81.7417 182.973 80.9083 182.339 79.825C181.723 78.7417 181.414 77.475 181.414 76.025C181.414 74.5917 181.731 73.3333 182.364 72.25C182.998 71.15 183.864 70.3083 184.964 69.725C186.064 69.1417 187.298 68.85 188.664 68.85C190.031 68.85 191.264 69.1417 192.364 69.725C193.464 70.3083 194.331 71.15 194.964 72.25C195.598 73.3333 195.914 74.5917 195.914 76.025C195.914 77.4583 195.589 78.725 194.939 79.825C194.306 80.9083 193.431 81.7417 192.314 82.325C191.214 82.9083 189.981 83.2 188.614 83.2ZM188.614 79.5C189.431 79.5 190.123 79.2 190.689 78.6C191.273 78 191.564 77.1417 191.564 76.025C191.564 74.9083 191.281 74.05 190.714 73.45C190.164 72.85 189.481 72.55 188.664 72.55C187.831 72.55 187.139 72.85 186.589 73.45C186.039 74.0333 185.764 74.8917 185.764 76.025C185.764 77.1417 186.031 78 186.564 78.6C187.114 79.2 187.798 79.5 188.614 79.5ZM203.807 64.825L203.307 76.8H199.682L199.182 64.825H203.807ZM201.557 83.2C200.807 83.2 200.191 82.9833 199.707 82.55C199.241 82.1 199.007 81.55 199.007 80.9C199.007 80.2333 199.241 79.675 199.707 79.225C200.191 78.775 200.807 78.55 201.557 78.55C202.291 78.55 202.891 78.775 203.357 79.225C203.841 79.675 204.082 80.2333 204.082 80.9C204.082 81.55 203.841 82.1 203.357 82.55C202.891 82.9833 202.291 83.2 201.557 83.2Z" fill="#E8E8E8"/>
<path d="M33.2151 204.491C31.3999 202.676 27.1655 194.302 27.1655 188.889C19.2055 204.491 24.9367 211.814 29.7127 213.087C34.4887 214.361 37.0358 208.311 33.2151 204.491Z" fill="#403636"/>
<path d="M236.613 204.491C238.428 202.676 242.663 194.302 242.663 188.889C250.623 204.491 244.891 211.814 240.115 213.087C235.339 214.361 232.792 208.311 236.613 204.491Z" fill="#403636"/>
<path d="M109.313 156.094C112.497 159.915 118.865 172.969 111.542 193.028C110.799 190.375 107.211 183.285 98.8056 176.153C88.2984 167.238 84.1592 161.825 87.6616 156.094C91.164 150.363 102.308 147.688 109.313 156.094Z" fill="#403636"/>
<path d="M162.686 156.094C159.502 159.915 153.134 172.969 160.457 193.028C161.2 190.375 164.788 183.285 173.193 176.153C183.701 167.238 187.84 161.825 184.337 156.094C180.835 150.363 169.691 147.688 162.686 156.094Z" fill="#403636"/>
<path d="M27.1489 150.599C86.2565 167.127 103.654 180.782 104.028 203.655C32.8136 228.203 23.8352 174.569 27.1489 150.599Z" fill="#BDBDBD"/>
<path fill-rule="evenodd" clip-rule="evenodd" d="M64.4664 203.659C79.0674 207.094 93.5773 199.544 98.6457 186.515L97.6293 183.659L91.2118 177.57L76.7177 168.272L60.9475 161.617L52.6357 158.018L48.6066 157.07C45.5184 160.437 43.241 164.582 42.1327 169.293C38.5482 184.527 48.5473 199.913 64.4664 203.659Z" fill="#D08D0A"/>
<path d="M48.6066 157.07C45.5184 160.437 43.241 164.582 42.1327 169.293C41.6715 171.253 41.4351 173.216 41.4074 175.156C51.303 173.413 63.5364 175.637 69.2975 178.955C72.9264 181.046 82.8847 189.327 85.7083 200.96C91.5261 197.845 96.1922 192.822 98.6457 186.515L97.6293 183.659L91.2118 177.57L76.7177 168.272L60.9475 161.617L52.6357 158.018L48.6066 157.07Z" fill="url(#paint0_linear_2560_11134)"/>
<path d="M27.1489 150.599C86.2565 167.127 103.654 180.782 104.028 203.655C32.8136 228.203 23.8352 174.569 27.1489 150.599Z" stroke="#201919" stroke-width="1.91039" stroke-linejoin="round"/>
<path d="M84.3751 191.334L96.335 196.111L89.8082 204.388L82.2056 196.385L84.3751 191.334Z" fill="#E8E8E8"/>
<path d="M81.2932 197.479L83.1893 206.102L77.1729 206.649L79.78 199.739L81.2932 197.479Z" fill="#E8E8E8"/>
<circle cx="69.1702" cy="180.888" r="12.4175" transform="rotate(13.2402 69.1702 180.888)" fill="#C9680F"/>
<circle cx="69.1699" cy="180.888" r="7.95997" transform="rotate(13.2402 69.1699 180.888)" fill="#AF4F0C"/>
<path d="M244.852 150.599C185.744 167.127 168.347 180.782 167.973 203.655C239.187 228.203 248.166 174.569 244.852 150.599Z" fill="#BDBDBD"/>
<path fill-rule="evenodd" clip-rule="evenodd" d="M207.535 203.659C192.934 207.094 178.424 199.544 173.355 186.515L174.372 183.659L180.789 177.57L195.283 168.272L211.053 161.617L219.365 158.018L223.394 157.07C226.483 160.437 228.76 164.582 229.868 169.293C233.453 184.527 223.454 199.913 207.535 203.659Z" fill="#D08D0A"/>
<path d="M223.394 157.07C226.483 160.437 228.76 164.582 229.868 169.293C230.33 171.253 230.566 173.216 230.594 175.156C220.698 173.413 208.465 175.637 202.703 178.955C199.075 181.046 189.116 189.327 186.293 200.96C180.475 197.845 175.809 192.822 173.355 186.515L174.372 183.659L180.789 177.57L195.283 168.272L211.053 161.617L219.365 158.018L223.394 157.07Z" fill="url(#paint1_linear_2560_11134)"/>
<path d="M244.852 150.599C185.744 167.127 168.347 180.782 167.973 203.655C239.187 228.203 248.166 174.569 244.852 150.599Z" stroke="#201919" stroke-width="1.91039" stroke-linejoin="round"/>
<path d="M187.626 191.334L175.666 196.111L182.193 204.388L189.795 196.385L187.626 191.334Z" fill="#E8E8E8"/>
<path d="M190.708 197.479L188.812 206.102L194.828 206.649L192.221 199.739L190.708 197.479Z" fill="#E8E8E8"/>
<circle cx="12.4175" cy="12.4175" r="12.4175" transform="matrix(-0.973418 0.229034 0.229034 0.973418 212.074 165.957)" fill="#C9680F"/>
<circle cx="7.95997" cy="7.95997" r="7.95997" transform="matrix(-0.973418 0.229034 0.229034 0.973418 208.756 171.317)" fill="#AF4F0C"/>
</g>
<defs>
<linearGradient id="paint0_linear_2560_11134" x1="60.2183" y1="186.959" x2="75.4049" y2="146.048" gradientUnits="userSpaceOnUse">
<stop stop-color="#C9680F"/>
<stop offset="1" stop-color="#861A14"/>
</linearGradient>
<linearGradient id="paint1_linear_2560_11134" x1="211.783" y1="186.959" x2="196.596" y2="146.048" gradientUnits="userSpaceOnUse">
<stop stop-color="#C9680F"/>
<stop offset="1" stop-color="#861A14"/>
</linearGradient>
</defs>
</svg>
