<svg width="272" height="252" viewBox="0 0 272 252" fill="none" xmlns="http://www.w3.org/2000/svg">
<mask id="mask0_3335_12500" style="mask-type:alpha" maskUnits="userSpaceOnUse" x="0" y="0" width="272" height="252">
<rect width="272" height="252" rx="10" fill="#DFEAFF"/>
</mask>
<g mask="url(#mask0_3335_12500)">
<rect width="342" height="290" rx="10" fill="#4ADFE9"/>
<path d="M-47.711 34.782C-85.9823 34.782 -103.416 7.00035 -141.687 7.00035C-164.165 7.00035 -179.455 16.5839 -196 24.4935V176.754L169.232 343L845.997 327.847L862 28.7392C841.386 20.5668 824.817 7.0003 798.073 7.0003C759.802 7.0003 742.368 34.7816 704.097 34.7816C665.826 34.7816 648.393 7 610.121 7C571.85 7 554.416 34.782 516.145 34.782C477.874 34.782 460.44 7.00035 422.169 7.00035C383.898 7.00035 366.464 34.782 328.193 34.782C289.922 34.782 272.488 7.00035 234.217 7.00035C195.946 7.00035 178.512 34.782 140.241 34.782C101.97 34.782 84.5363 7.00035 46.265 7.00035C7.99368 7.00035 -9.4397 34.782 -47.711 34.782Z" fill="#2ECED9"/>
<path d="M-47.711 60.8304C-85.9823 60.8304 -103.416 33.0004 -141.687 33.0004C-164.165 33.0004 -179.455 42.6006 -196 50.524L-178.93 196.411L106.473 329H464.115L845.997 196.411L862 54.7771C841.386 46.5904 824.817 33.0003 798.073 33.0003C759.802 33.0003 742.368 60.8301 704.097 60.8301C665.826 60.8301 648.393 33 610.121 33C571.85 33 554.416 60.8304 516.145 60.8304C477.874 60.8304 460.44 33.0004 422.169 33.0004C383.898 33.0004 366.464 60.8304 328.193 60.8304C289.922 60.8304 272.488 33.0004 234.217 33.0004C195.946 33.0004 178.512 60.8304 140.241 60.8304C101.97 60.8304 84.5363 33.0004 46.265 33.0004C7.99368 33.0004 -9.4397 60.8304 -47.711 60.8304Z" fill="#19A8B3"/>
<path d="M120.9 103.163C125.093 99.8613 126.491 97.3456 122.857 91.1961C112.888 89.6122 96.4706 87.6745 104.968 92.5939C113.465 97.5133 115.59 97.3456 115.03 101.538C113.59 105.319 113.657 107.709 116.428 109.229C117.959 110.069 121.18 111.601 123.695 111.042C129.006 108.247 122.577 106.849 120.9 106.57C117.546 106.29 118.944 104.333 120.9 103.163Z" fill="#BD5E06"/>
<path d="M174.567 101.818V92.0349L165.063 93.712C166.927 96.1344 170.43 101.427 169.535 103.215C165.343 105.731 162.829 104.744 162.268 107.408C161.15 112.719 167.579 112.439 168.697 111.601C169.815 110.762 174.567 103.774 174.567 101.818Z" fill="#BD5E06"/>
<path d="M215.096 35.2936C197.766 36.1322 206.711 24.6724 187.704 30.8217C183.008 32.1634 180.157 38.2754 179.319 41.1637C178.76 48.7105 175.182 63.7483 165.343 63.5247C153.376 63.2527 99.8607 57.4233 94.1506 63.8042C87.9181 63.8042 77.8557 86.1651 70.0293 87.2832C68.6317 87.4828 68.352 89.5193 71.1474 88.6807C76.7374 87.2832 88.7564 70.792 90.9927 69.0722C88.6187 73.8917 87.2513 77.9837 86.5206 85.0471C85.6821 93.1529 88.4772 97.3456 75.8991 96.5071C73.3835 95.9481 68.6318 108.806 74.2221 109.085C76.7377 109.365 76.7376 104.333 76.4581 101.259C77.2966 101.445 79.3091 101.818 80.6508 101.818C81.1487 103.312 102.717 112.568 107.422 93.4324C124.214 96.2126 161.206 100.352 174.846 94.6679C177.859 97.0822 180.374 97.4517 183.791 101.818C183.232 104.054 183.232 105.451 183.791 112.439C182.114 114.116 180.157 118.309 184.909 118.03C189.66 117.75 188.431 98.8827 187.704 97.0661C187.145 95.6685 186.027 94.83 183.232 90.6373C198.884 74.9846 191.058 59.332 194.133 48.9855C196.417 49.2961 199.08 48.9249 202.239 47.872C210.624 46.7539 215.655 46.4744 219.009 40.0456C220.575 35.7971 217.053 35.1074 215.096 35.2936Z" fill="#C7701F"/>
<path d="M219.288 35.1244C218.263 34.6586 215.99 34.23 215.095 36.2425C215.095 38.4786 218.617 40.4911 219.288 39.5966C219.959 38.7022 220.127 36.2425 219.288 35.1244Z" fill="#422306"/>
<path d="M167.019 38.3686C177.921 26.6292 184.629 28.8655 188.542 34.7352C188.915 35.5737 188.933 37.1388 186.026 36.6916C182.113 36.9711 177.641 42.3168 172.889 46.4745C170.653 48.4311 161.429 52.9033 158.634 45.3565C157.516 37.8097 161.988 40.0457 167.019 38.3686Z" fill="#422306"/>
<path opacity="0.5" d="M181.555 82.5317C190.965 72.4579 188.542 54.86 194.133 49.5493C192.455 59.0527 194.133 63.8044 193.294 67.7176C193.196 68.1768 193.264 73.7279 190.499 80.2956C188.263 85.6064 184.559 89.572 183.511 90.3581C181.722 91.6997 176.989 93.8986 174.846 94.8303L165.343 96.8667C163.777 97.6015 151.647 97.4923 145.777 97.3459C156.678 96.7869 171.232 93.5827 181.555 82.5317Z" fill="#CD9239"/>
<path d="M193.662 36.2672C196.457 35.9877 198.694 34.3106 199.253 32.9131" stroke="#322828" stroke-width="0.559024" stroke-linecap="round" stroke-linejoin="round"/>
<g style="mix-blend-mode:hard-light">
<path d="M-47.711 86.8536C-85.9823 86.8536 -103.416 59.0004 -141.687 59.0004C-164.165 59.0004 -179.455 68.6086 -196 76.5386L-178.93 222.547L140.241 320L491.382 295.868L845.997 222.547L862 80.7952C841.386 72.6017 824.817 59.0003 798.073 59.0003C759.802 59.0003 742.368 86.8532 704.097 86.8532C665.826 86.8532 648.393 59 610.121 59C571.85 59 554.416 86.8536 516.145 86.8536C477.874 86.8536 460.44 59.0004 422.169 59.0004C383.898 59.0004 366.464 86.8536 328.193 86.8536C289.922 86.8536 272.488 59.0004 234.217 59.0004C195.946 59.0004 178.512 86.8536 140.241 86.8536C101.97 86.8536 84.5363 59.0004 46.265 59.0004C7.99368 59.0004 -9.4397 86.8536 -47.711 86.8536Z" fill="#18949D"/>
</g>
<path opacity="0.75" d="M70.7749 139.556V155H67.0129V145.738L63.5589 155H60.5229L57.0469 145.716V155H53.2849V139.556H57.7289L62.0629 150.248L66.3529 139.556H70.7749ZM77.2422 142.57V145.694H82.2802V148.598H77.2422V151.986H82.9402V155H73.4802V139.556H82.9402V142.57H77.2422ZM93.2586 155L90.0466 149.17H89.1446V155H85.3826V139.556H91.6966C92.9139 139.556 93.9479 139.769 94.7986 140.194C95.6639 140.619 96.3092 141.206 96.7346 141.954C97.1599 142.687 97.3726 143.509 97.3726 144.418C97.3726 145.445 97.0792 146.361 96.4926 147.168C95.9206 147.975 95.0699 148.547 93.9406 148.884L97.5046 155H93.2586ZM89.1446 146.508H91.4766C92.1659 146.508 92.6792 146.339 93.0166 146.002C93.3686 145.665 93.5446 145.188 93.5446 144.572C93.5446 143.985 93.3686 143.523 93.0166 143.186C92.6792 142.849 92.1659 142.68 91.4766 142.68H89.1446V146.508ZM109.986 144.44C109.707 143.927 109.304 143.538 108.776 143.274C108.263 142.995 107.654 142.856 106.95 142.856C105.733 142.856 104.757 143.259 104.024 144.066C103.291 144.858 102.924 145.921 102.924 147.256C102.924 148.679 103.305 149.793 104.068 150.6C104.845 151.392 105.909 151.788 107.258 151.788C108.182 151.788 108.959 151.553 109.59 151.084C110.235 150.615 110.705 149.94 110.998 149.06H106.224V146.288H114.408V149.786C114.129 150.725 113.653 151.597 112.978 152.404C112.318 153.211 111.475 153.863 110.448 154.362C109.421 154.861 108.263 155.11 106.972 155.11C105.447 155.11 104.083 154.78 102.88 154.12C101.692 153.445 100.761 152.514 100.086 151.326C99.4261 150.138 99.0961 148.781 99.0961 147.256C99.0961 145.731 99.4261 144.374 100.086 143.186C100.761 141.983 101.692 141.052 102.88 140.392C104.068 139.717 105.425 139.38 106.95 139.38C108.798 139.38 110.353 139.827 111.614 140.722C112.89 141.617 113.733 142.856 114.144 144.44H109.986ZM120.188 139.556V148.796C120.188 149.72 120.415 150.431 120.87 150.93C121.325 151.429 121.992 151.678 122.872 151.678C123.752 151.678 124.427 151.429 124.896 150.93C125.365 150.431 125.6 149.72 125.6 148.796V139.556H129.362V148.774C129.362 150.153 129.069 151.319 128.482 152.272C127.895 153.225 127.103 153.944 126.106 154.428C125.123 154.912 124.023 155.154 122.806 155.154C121.589 155.154 120.496 154.919 119.528 154.45C118.575 153.966 117.819 153.247 117.262 152.294C116.705 151.326 116.426 150.153 116.426 148.774V139.556H120.188ZM135.766 152.096H140.694V155H132.004V139.556H135.766V152.096ZM155.864 139.556V155H152.102V148.642H146.25V155H142.488V139.556H146.25V145.606H152.102V139.556H155.864ZM162.342 142.57V145.694H167.38V148.598H162.342V151.986H168.04V155H158.58V139.556H168.04V142.57H162.342ZM188.96 155H185.198L178.906 145.474V155H175.144V139.556H178.906L185.198 149.126V139.556H188.96V155ZM201.301 152.272H195.537L194.613 155H190.675L196.263 139.556H200.619L206.207 155H202.225L201.301 152.272ZM200.333 149.368L198.419 143.714L196.527 149.368H200.333ZM213.496 155.154C212.367 155.154 211.355 154.971 210.46 154.604C209.565 154.237 208.847 153.695 208.304 152.976C207.776 152.257 207.497 151.392 207.468 150.38H211.472C211.531 150.952 211.729 151.392 212.066 151.7C212.403 151.993 212.843 152.14 213.386 152.14C213.943 152.14 214.383 152.015 214.706 151.766C215.029 151.502 215.19 151.143 215.19 150.688C215.19 150.307 215.058 149.991 214.794 149.742C214.545 149.493 214.229 149.287 213.848 149.126C213.481 148.965 212.953 148.781 212.264 148.576C211.267 148.268 210.453 147.96 209.822 147.652C209.191 147.344 208.649 146.889 208.194 146.288C207.739 145.687 207.512 144.902 207.512 143.934C207.512 142.497 208.033 141.375 209.074 140.568C210.115 139.747 211.472 139.336 213.144 139.336C214.845 139.336 216.217 139.747 217.258 140.568C218.299 141.375 218.857 142.504 218.93 143.956H214.86C214.831 143.457 214.647 143.069 214.31 142.79C213.973 142.497 213.54 142.35 213.012 142.35C212.557 142.35 212.191 142.475 211.912 142.724C211.633 142.959 211.494 143.303 211.494 143.758C211.494 144.257 211.729 144.645 212.198 144.924C212.667 145.203 213.401 145.503 214.398 145.826C215.395 146.163 216.202 146.486 216.818 146.794C217.449 147.102 217.991 147.549 218.446 148.136C218.901 148.723 219.128 149.478 219.128 150.402C219.128 151.282 218.901 152.081 218.446 152.8C218.006 153.519 217.361 154.091 216.51 154.516C215.659 154.941 214.655 155.154 213.496 155.154ZM95.501 188.154C94.049 188.154 92.7143 187.817 91.497 187.142C90.2943 186.467 89.3337 185.529 88.615 184.326C87.911 183.109 87.559 181.745 87.559 180.234C87.559 178.723 87.911 177.367 88.615 176.164C89.3337 174.961 90.2943 174.023 91.497 173.348C92.7143 172.673 94.049 172.336 95.501 172.336C96.953 172.336 98.2803 172.673 99.483 173.348C100.7 174.023 101.654 174.961 102.343 176.164C103.047 177.367 103.399 178.723 103.399 180.234C103.399 181.745 103.047 183.109 102.343 184.326C101.639 185.529 100.686 186.467 99.483 187.142C98.2803 187.817 96.953 188.154 95.501 188.154ZM95.501 184.722C96.733 184.722 97.7157 184.311 98.449 183.49C99.197 182.669 99.571 181.583 99.571 180.234C99.571 178.87 99.197 177.785 98.449 176.978C97.7157 176.157 96.733 175.746 95.501 175.746C94.2543 175.746 93.257 176.149 92.509 176.956C91.7757 177.763 91.409 178.855 91.409 180.234C91.409 181.598 91.7757 182.691 92.509 183.512C93.257 184.319 94.2543 184.722 95.501 184.722ZM115.546 172.556V175.57H109.254V178.826H113.962V181.752H109.254V188H105.492V172.556H115.546ZM121.285 175.57V178.694H126.323V181.598H121.285V184.986H126.983V188H117.523V172.556H126.983V175.57H121.285ZM137.302 188L134.09 182.17H133.188V188H129.426V172.556H135.74C136.957 172.556 137.991 172.769 138.842 173.194C139.707 173.619 140.352 174.206 140.778 174.954C141.203 175.687 141.416 176.509 141.416 177.418C141.416 178.445 141.122 179.361 140.536 180.168C139.964 180.975 139.113 181.547 137.984 181.884L141.548 188H137.302ZM133.188 179.508H135.52C136.209 179.508 136.722 179.339 137.06 179.002C137.412 178.665 137.588 178.188 137.588 177.572C137.588 176.985 137.412 176.523 137.06 176.186C136.722 175.849 136.209 175.68 135.52 175.68H133.188V179.508ZM154.887 172.556V175.57H150.795V188H147.033V175.57H142.941V172.556H154.887ZM166.389 185.272H160.625L159.701 188H155.763L161.351 172.556H165.707L171.295 188H167.313L166.389 185.272ZM165.421 182.368L163.507 176.714L161.615 182.368H165.421ZM178.584 188.154C177.455 188.154 176.443 187.971 175.548 187.604C174.653 187.237 173.935 186.695 173.392 185.976C172.864 185.257 172.585 184.392 172.556 183.38H176.56C176.619 183.952 176.817 184.392 177.154 184.7C177.491 184.993 177.931 185.14 178.474 185.14C179.031 185.14 179.471 185.015 179.794 184.766C180.117 184.502 180.278 184.143 180.278 183.688C180.278 183.307 180.146 182.991 179.882 182.742C179.633 182.493 179.317 182.287 178.936 182.126C178.569 181.965 178.041 181.781 177.352 181.576C176.355 181.268 175.541 180.96 174.91 180.652C174.279 180.344 173.737 179.889 173.282 179.288C172.827 178.687 172.6 177.902 172.6 176.934C172.6 175.497 173.121 174.375 174.162 173.568C175.203 172.747 176.56 172.336 178.232 172.336C179.933 172.336 181.305 172.747 182.346 173.568C183.387 174.375 183.945 175.504 184.018 176.956H179.948C179.919 176.457 179.735 176.069 179.398 175.79C179.061 175.497 178.628 175.35 178.1 175.35C177.645 175.35 177.279 175.475 177 175.724C176.721 175.959 176.582 176.303 176.582 176.758C176.582 177.257 176.817 177.645 177.286 177.924C177.755 178.203 178.489 178.503 179.486 178.826C180.483 179.163 181.29 179.486 181.906 179.794C182.537 180.102 183.079 180.549 183.534 181.136C183.989 181.723 184.216 182.478 184.216 183.402C184.216 184.282 183.989 185.081 183.534 185.8C183.094 186.519 182.449 187.091 181.598 187.516C180.747 187.941 179.743 188.154 178.584 188.154ZM68.251 205.556V221H64.489V205.556H68.251ZM88.4673 205.556V221H84.7053V211.738L81.2513 221H78.2153L74.7393 211.716V221H70.9773V205.556H75.4213L79.7553 216.248L84.0453 205.556H88.4673ZM102.943 210.528C102.943 211.423 102.737 212.244 102.327 212.992C101.916 213.725 101.285 214.319 100.435 214.774C99.5839 215.229 98.5279 215.456 97.2666 215.456H94.9346V221H91.1726V205.556H97.2666C98.4986 205.556 99.5399 205.769 100.391 206.194C101.241 206.619 101.879 207.206 102.305 207.954C102.73 208.702 102.943 209.56 102.943 210.528ZM96.9806 212.464C97.6993 212.464 98.2346 212.295 98.5866 211.958C98.9386 211.621 99.1146 211.144 99.1146 210.528C99.1146 209.912 98.9386 209.435 98.5866 209.098C98.2346 208.761 97.6993 208.592 96.9806 208.592H94.9346V212.464H96.9806ZM108.663 208.57V211.694H113.701V214.598H108.663V217.986H114.361V221H104.901V205.556H114.361V208.57H108.663ZM124.679 221L121.467 215.17H120.565V221H116.803V205.556H123.117C124.335 205.556 125.369 205.769 126.219 206.194C127.085 206.619 127.73 207.206 128.155 207.954C128.581 208.687 128.793 209.509 128.793 210.418C128.793 211.445 128.5 212.361 127.913 213.168C127.341 213.975 126.491 214.547 125.361 214.884L128.925 221H124.679ZM120.565 212.508H122.897C123.587 212.508 124.1 212.339 124.437 212.002C124.789 211.665 124.965 211.188 124.965 210.572C124.965 209.985 124.789 209.523 124.437 209.186C124.1 208.849 123.587 208.68 122.897 208.68H120.565V212.508ZM136.941 205.556C138.569 205.556 139.992 205.879 141.209 206.524C142.426 207.169 143.365 208.079 144.025 209.252C144.7 210.411 145.037 211.753 145.037 213.278C145.037 214.789 144.7 216.131 144.025 217.304C143.365 218.477 142.419 219.387 141.187 220.032C139.97 220.677 138.554 221 136.941 221H131.155V205.556H136.941ZM136.699 217.744C138.122 217.744 139.229 217.355 140.021 216.578C140.813 215.801 141.209 214.701 141.209 213.278C141.209 211.855 140.813 210.748 140.021 209.956C139.229 209.164 138.122 208.768 136.699 208.768H134.917V217.744H136.699ZM150.901 205.556V221H147.139V205.556H150.901ZM151.583 202.454L146.281 204.676V202.08L151.583 199.528V202.454ZM168.126 205.556L162.648 221H157.94L152.462 205.556H156.466L160.294 217.216L164.144 205.556H168.126ZM173.46 208.57V211.694H178.498V214.598H173.46V217.986H179.158V221H169.698V205.556H179.158V208.57H173.46ZM185.362 205.556V221H181.6V205.556H185.362ZM193.677 221.154C192.547 221.154 191.535 220.971 190.641 220.604C189.746 220.237 189.027 219.695 188.485 218.976C187.957 218.257 187.678 217.392 187.649 216.38H191.653C191.711 216.952 191.909 217.392 192.247 217.7C192.584 217.993 193.024 218.14 193.567 218.14C194.124 218.14 194.564 218.015 194.887 217.766C195.209 217.502 195.371 217.143 195.371 216.688C195.371 216.307 195.239 215.991 194.975 215.742C194.725 215.493 194.41 215.287 194.029 215.126C193.662 214.965 193.134 214.781 192.445 214.576C191.447 214.268 190.633 213.96 190.003 213.652C189.372 213.344 188.829 212.889 188.375 212.288C187.92 211.687 187.693 210.902 187.693 209.934C187.693 208.497 188.213 207.375 189.255 206.568C190.296 205.747 191.653 205.336 193.325 205.336C195.026 205.336 196.397 205.747 197.439 206.568C198.48 207.375 199.037 208.504 199.111 209.956H195.041C195.011 209.457 194.828 209.069 194.491 208.79C194.153 208.497 193.721 208.35 193.193 208.35C192.738 208.35 192.371 208.475 192.093 208.724C191.814 208.959 191.675 209.303 191.675 209.758C191.675 210.257 191.909 210.645 192.379 210.924C192.848 211.203 193.581 211.503 194.579 211.826C195.576 212.163 196.383 212.486 196.999 212.794C197.629 213.102 198.172 213.549 198.627 214.136C199.081 214.723 199.309 215.478 199.309 216.402C199.309 217.282 199.081 218.081 198.627 218.8C198.187 219.519 197.541 220.091 196.691 220.516C195.84 220.941 194.835 221.154 193.677 221.154ZM206.574 205.006L206.134 215.544H202.944L202.504 205.006H206.574ZM204.594 221.176C203.934 221.176 203.391 220.985 202.966 220.604C202.555 220.208 202.35 219.724 202.35 219.152C202.35 218.565 202.555 218.074 202.966 217.678C203.391 217.282 203.934 217.084 204.594 217.084C205.239 217.084 205.767 217.282 206.178 217.678C206.603 218.074 206.816 218.565 206.816 219.152C206.816 219.724 206.603 220.208 206.178 220.604C205.767 220.985 205.239 221.176 204.594 221.176Z" fill="white"/>
</g>
</svg>
