<svg width="60" height="60" viewBox="0 0 60 60" fill="none" xmlns="http://www.w3.org/2000/svg">
<g clip-path="url(#clip0_1269_4374)">
<path d="M56.1389 30.1918V50.7555C56.1389 52.3138 55.5406 53.8082 54.4756 54.91C53.4106 56.0119 51.9662 56.6309 50.4601 56.6309H10.7089C9.2028 56.6309 7.75839 56.0119 6.69342 54.91C5.62845 53.8082 5.03015 52.3138 5.03015 50.7555V9.62804C5.03015 8.0698 5.62845 6.57538 6.69342 5.47354C7.75839 4.37169 9.2028 3.75269 10.7089 3.75269H30.5845" stroke="#4F4F4F" stroke-width="2" stroke-linecap="round" stroke-linejoin="round"/>
<path d="M41.9415 9.62817H58.9778" stroke="#4F4F4F" stroke-width="2" stroke-linecap="round" stroke-linejoin="round"/>
<path d="M50.4595 0.815186V18.4412" stroke="#4F4F4F" stroke-width="2" stroke-linecap="round" stroke-linejoin="round"/>
<path d="M22.066 27.2541C25.2022 27.2541 27.7447 24.6236 27.7447 21.3788C27.7447 18.1339 25.2022 15.5034 22.066 15.5034C18.9297 15.5034 16.3872 18.1339 16.3872 21.3788C16.3872 24.6236 18.9297 27.2541 22.066 27.2541Z" stroke="#4F4F4F" stroke-width="2" stroke-linecap="round" stroke-linejoin="round"/>
<path d="M56.1387 39.0049L47.3764 29.9392C46.3115 28.8378 44.8673 28.219 43.3615 28.219C41.8557 28.219 40.4116 28.8378 39.3466 29.9392L13.5481 56.6309" stroke="#4F4F4F" stroke-width="2" stroke-linecap="round" stroke-linejoin="round"/>
</g>
<defs>
<clipPath id="clip0_1269_4374">
<rect width="60" height="60" fill="white"/>
</clipPath>
</defs>
</svg>
