<svg width="92" height="97" viewBox="0 0 92 97" fill="none" xmlns="http://www.w3.org/2000/svg">
<path d="M1 51.0001C1 75.8529 21.1472 96.0001 46 96.0001C70.8528 96.0001 91 75.8529 91 51.0001C91 50.6518 90.9872 50.3187 90.9625 50.0002C90.8084 43.0721 89.9 32.1945 87.5 44.1081C87.1668 43.9434 85.3302 43.095 85 43C85.8333 35.7596 85.1 20.4002 69.5 14.0002C66 12.5643 54.4225 10.0003 66 18.0002C77.5775 26 79.9775 31.429 77.5775 43.5002C77.0758 43.7017 76.4848 44.3981 76 44.7875C74.5 38.575 69.5 38.0002 73.5831 55.0002C72.8357 69.4332 60.8249 81.6082 46 82.0002C29.428 82.4384 17.551 67.5687 17 51.0001C16.6241 39.6964 20.8182 31.304 29.5 25.9477C41.5 31 48.48 29.9155 45.24 24.5C48.0397 23.5999 49.7947 21.7505 47.5722 19.0845C48.4503 19.0175 49.2589 18.8788 50 18.6828C59.5 25.9477 57.5 18.9999 54.6852 16C55.9187 14.6835 56.5 13.1856 56.5 12C56.5 6.50016 53.4173 6.90254 47.5722 6.50016C49.1444 -1.99961 33 1.49993 33 7.90641C14.4853 13.484 1 30.6673 1 51.0001Z" fill="#CD9239"/>
<path d="M33 7.90641C14.4853 13.484 1 30.6673 1 51.0001C1 75.8529 21.1472 96.0001 46 96.0001C70.8528 96.0001 91 75.8529 91 51.0001C91 50.6518 90.9872 50.3187 90.9625 50.0002M33 7.90641C33 1.49993 49.1444 -1.99961 47.5722 6.50016M33 7.90641C33.7811 9.3098 34.219 10.0966 35 11.5M35.5 23.0002C34.7499 21 34.5 18 35 16M35.5 23.0002C33.3063 23.8505 31.306 24.8334 29.5 25.9477M35.5 23.0002C36.3427 25.2474 41.6502 25.6541 45.24 24.5M73.5831 55.0002C73.6513 53.6832 73.6258 52.3475 73.5 51.0001C73.5 47.8026 74.636 45.8831 76 44.7875M73.5831 55.0002C72.8357 69.4332 60.8249 81.6082 46 82.0002C29.428 82.4384 17.551 67.5687 17 51.0001C16.6241 39.6964 20.8182 31.304 29.5 25.9477M73.5831 55.0002C69.5 38.0002 74.5 38.575 76 44.7875M76 44.7875C76.4848 44.3981 77.0758 43.7017 77.5775 43.5002C79.9775 31.429 77.5775 26 66 18.0002C54.4225 10.0003 66 12.5643 69.5 14.0002C85.1 20.4002 85.8333 35.7596 85 43C85.3302 43.095 87.1668 43.9434 87.5 44.1081M90.9625 50.0002C90.7039 46.6551 89.1451 44.9214 87.5 44.1081M90.9625 50.0002C90.8084 43.0721 89.9 32.1945 87.5 44.1081M44 6.50016C45.3536 6.42496 46.5375 6.42893 47.5722 6.50016M44 18.9999C45.3568 19.1427 46.5403 19.1631 47.5722 19.0845M47.5722 6.50016C53.4173 6.90254 56.5 6.50016 56.5 12C56.5 13.1856 55.9187 14.6835 54.6852 16M47.5722 19.0845C49.7947 21.7505 48.0397 23.5999 45.24 24.5M47.5722 19.0845C48.4503 19.0175 49.2589 18.8788 50 18.6828M29.5 25.9477C41.5 31 48.48 29.9155 45.24 24.5M54.6852 16C53.6226 17.1341 52.0759 18.1336 50 18.6828M54.6852 16C57.5 18.9999 59.5 25.9477 50 18.6828" stroke="#322828" stroke-width="2" stroke-linecap="round" stroke-linejoin="round"/>
<path d="M44.1163 9.58153C44.5816 8.80616 47.4184 8.80616 47.8837 9.58153C48.0388 9.83999 48.0388 10.0207 47.8837 10.2792C47.4184 11.0545 44.5816 11.0545 44.1163 10.2792C43.9612 10.0207 43.9612 9.83999 44.1163 9.58153Z" fill="#322828"/>
<path d="M44.1163 13.8024C44.5816 13.027 47.4184 13.027 47.8837 13.8024C48.0388 14.0608 48.0388 14.2415 47.8837 14.5C47.4184 15.2754 44.5816 15.2754 44.1163 14.5C43.9612 14.2415 43.9612 14.0608 44.1163 13.8024Z" fill="#322828"/>
<path d="M44.1163 9.58153C44.5816 8.80616 47.4184 8.80616 47.8837 9.58153C48.0388 9.83999 48.0388 10.0207 47.8837 10.2792C47.4184 11.0545 44.5816 11.0545 44.1163 10.2792C43.9612 10.0207 43.9612 9.83999 44.1163 9.58153Z" stroke="#322828" stroke-linejoin="round"/>
<path d="M44.1163 13.8024C44.5816 13.027 47.4184 13.027 47.8837 13.8024C48.0388 14.0608 48.0388 14.2415 47.8837 14.5C47.4184 15.2754 44.5816 15.2754 44.1163 14.5C43.9612 14.2415 43.9612 14.0608 44.1163 13.8024Z" stroke="#322828" stroke-linejoin="round"/>
<path d="M53 10.5L54 11.5L53 12.5V10.5Z" stroke="#322828" stroke-linejoin="round"/>
</svg>
