<svg width="1274" height="252" viewBox="0 0 1274 252" fill="none" xmlns="http://www.w3.org/2000/svg">
<mask id="mask0_3335_9444" style="mask-type:alpha" maskUnits="userSpaceOnUse" x="0" y="0" width="1274" height="252">
<rect width="1274" height="252" rx="7.89" fill="#DFEAFF"/>
</mask>
<g mask="url(#mask0_3335_9444)">
<rect width="1274" height="252" rx="7.89" fill="#4ADFE9"/>
<path d="M101.488 65.1038C47.6799 65.1038 23.1693 26.0005 -30.6385 26.0005C-62.2414 26.0005 -83.7381 39.4895 -107 50.6225L-83 255.604L430.5 267.604L1358 255.604L1380.5 56.5984C1351.52 45.0956 1328.22 26.0004 1290.62 26.0004C1236.81 26.0004 1212.3 65.1033 1158.5 65.1033C1104.69 65.1033 1080.18 26 1026.37 26C972.562 26 948.052 65.1038 894.244 65.1038C840.436 65.1038 815.925 26.0005 762.118 26.0005C708.31 26.0005 683.799 65.1038 629.992 65.1038C576.184 65.1038 551.673 26.0005 497.866 26.0005C444.058 26.0005 419.547 65.1038 365.74 65.1038C311.932 65.1038 287.421 26.0005 233.614 26.0005C179.806 26.0005 155.295 65.1038 101.488 65.1038Z" fill="#2ECED9"/>
<path d="M101.488 102.104C47.6799 102.104 23.1693 63.0005 -30.6385 63.0005C-62.2414 63.0005 -83.7381 76.4895 -107 87.6225L-83 292.604L430.5 304.604L1358 292.604L1380.5 93.5984C1351.52 82.0956 1328.22 63.0004 1290.62 63.0004C1236.81 63.0004 1212.3 102.103 1158.5 102.103C1104.69 102.103 1080.18 63 1026.37 63C972.562 63 948.052 102.104 894.244 102.104C840.436 102.104 815.925 63.0005 762.118 63.0005C708.31 63.0005 683.799 102.104 629.992 102.104C576.184 102.104 551.673 63.0005 497.866 63.0005C444.058 63.0005 419.547 102.104 365.74 102.104C311.932 102.104 287.421 63.0005 233.614 63.0005C179.806 63.0005 155.295 102.104 101.488 102.104Z" fill="#19A8B3"/>
<path d="M587.84 160.665C595.34 154.759 597.841 150.259 591.341 139.258C573.507 136.425 544.14 132.959 559.34 141.759C574.54 150.559 578.341 150.259 577.34 157.759C574.764 164.523 574.885 168.797 579.841 171.517C582.579 173.019 588.341 175.759 592.841 174.759C602.341 169.759 590.84 167.259 587.84 166.759C581.841 166.259 584.341 162.759 587.84 160.665Z" fill="#BD5E06"/>
<path d="M683.841 158.259V140.759L666.841 143.759C670.174 148.092 676.441 157.559 674.841 160.759C667.341 165.259 662.844 163.493 661.841 168.259C659.841 177.759 671.341 177.259 673.341 175.759C675.341 174.259 683.841 161.759 683.841 158.259Z" fill="#BD5E06"/>
<path d="M756.341 39.2582C725.341 40.7582 741.341 20.2587 707.341 31.2587C698.941 33.6588 693.841 44.5921 692.341 49.7588C691.341 63.2588 684.941 90.1588 667.341 89.7588C645.935 89.2723 550.205 78.8444 539.99 90.2588C528.841 90.2588 510.841 130.259 496.841 132.259C494.341 132.616 493.841 136.259 498.841 134.759C508.841 132.259 530.341 102.759 534.341 99.6824C530.095 108.304 527.648 115.624 526.341 128.259C524.841 142.759 529.841 150.259 507.341 148.759C502.841 147.759 494.341 170.759 504.341 171.259C508.841 171.759 508.841 162.759 508.341 157.259C509.841 157.592 513.441 158.259 515.841 158.259C516.732 160.931 555.314 177.49 563.731 143.259C593.768 148.232 659.941 155.637 684.341 145.469C689.731 149.788 694.229 150.449 700.341 158.259C699.341 162.259 699.341 164.759 700.341 177.259C697.341 180.259 693.841 187.759 702.341 187.259C710.841 186.759 708.641 153.008 707.341 149.759C706.341 147.259 704.341 145.759 699.341 138.259C727.341 110.259 713.341 82.2588 718.841 63.7508C722.927 64.3063 727.691 63.6423 733.341 61.7588C748.341 59.7588 757.341 59.2588 763.341 47.7588C766.142 40.1588 759.842 38.9251 756.341 39.2582Z" fill="#C7701F"/>
<path d="M763.841 38.9554C762.008 38.1221 757.941 37.3554 756.341 40.9554C756.341 44.9554 762.641 48.5554 763.841 46.9554C765.041 45.3554 765.341 40.9554 763.841 38.9554Z" fill="#422306"/>
<path d="M670.341 44.7587C689.841 23.7588 701.841 27.7591 708.841 38.2591C709.508 39.759 709.541 42.5588 704.341 41.7588C697.341 42.2588 689.341 51.8213 680.841 59.2588C676.841 62.7588 660.341 70.7588 655.341 57.2588C653.341 43.7588 661.341 47.7588 670.341 44.7587Z" fill="#422306"/>
<path opacity="0.5" d="M696.342 123.759C713.175 105.738 708.842 74.2588 718.842 64.7588C715.842 81.7588 718.842 90.2588 717.342 97.2588C717.166 98.0802 717.288 108.01 712.342 119.759C708.342 129.259 701.716 136.353 699.842 137.759C696.642 140.159 688.175 144.092 684.342 145.759L667.341 149.402C664.541 150.716 642.842 150.521 632.342 150.259C651.842 149.259 677.876 143.527 696.342 123.759Z" fill="#CD9239"/>
<path d="M718 41C723 40.5 727 37.5 728 35" stroke="#322828" stroke-linecap="round" stroke-linejoin="round"/>
<g style="mix-blend-mode:hard-light">
<path d="M101.488 139.104C47.6799 139.104 23.1693 100 -30.6385 100C-62.2414 100 -83.7381 113.49 -107 124.623L-83 329.604L430.5 341.604L1358 329.604L1380.5 130.598C1351.52 119.096 1328.22 100 1290.62 100C1236.81 100 1212.3 139.103 1158.5 139.103C1104.69 139.103 1080.18 100 1026.37 100C972.562 100 948.052 139.104 894.244 139.104C840.436 139.104 815.925 100 762.118 100C708.31 100 683.799 139.104 629.992 139.104C576.184 139.104 551.673 100 497.866 100C444.058 100 419.547 139.104 365.74 139.104C311.932 139.104 287.421 100 233.614 100C179.806 100 155.295 139.104 101.488 139.104Z" fill="#18949D"/>
</g>
<path opacity="0.75" d="M288.28 193.92V222H281.44V205.16L275.16 222H269.64L263.32 205.12V222H256.48V193.92H264.56L272.44 213.36L280.24 193.92H288.28ZM300.039 199.4V205.08H309.199V210.36H300.039V216.52H310.399V222H293.199V193.92H310.399V199.4H300.039ZM329.159 222L323.319 211.4H321.679V222H314.839V193.92H326.319C328.533 193.92 330.413 194.307 331.959 195.08C333.533 195.853 334.706 196.92 335.479 198.28C336.253 199.613 336.639 201.107 336.639 202.76C336.639 204.627 336.106 206.293 335.039 207.76C333.999 209.227 332.453 210.267 330.399 210.88L336.879 222H329.159ZM321.679 206.56H325.919C327.173 206.56 328.106 206.253 328.719 205.64C329.359 205.027 329.679 204.16 329.679 203.04C329.679 201.973 329.359 201.133 328.719 200.52C328.106 199.907 327.173 199.6 325.919 199.6H321.679V206.56ZM359.573 202.8C359.066 201.867 358.333 201.16 357.373 200.68C356.44 200.173 355.333 199.92 354.053 199.92C351.84 199.92 350.066 200.653 348.733 202.12C347.4 203.56 346.733 205.493 346.733 207.92C346.733 210.507 347.426 212.533 348.813 214C350.226 215.44 352.16 216.16 354.613 216.16C356.293 216.16 357.706 215.733 358.853 214.88C360.026 214.027 360.88 212.8 361.413 211.2H352.733V206.16H367.613V212.52C367.106 214.227 366.24 215.813 365.013 217.28C363.813 218.747 362.28 219.933 360.413 220.84C358.546 221.747 356.44 222.2 354.093 222.2C351.32 222.2 348.84 221.6 346.653 220.4C344.493 219.173 342.8 217.48 341.573 215.32C340.373 213.16 339.773 210.693 339.773 207.92C339.773 205.147 340.373 202.68 341.573 200.52C342.8 198.333 344.493 196.64 346.653 195.44C348.813 194.213 351.28 193.6 354.053 193.6C357.413 193.6 360.24 194.413 362.533 196.04C364.853 197.667 366.386 199.92 367.133 202.8H359.573ZM378.122 193.92V210.72C378.122 212.4 378.535 213.693 379.362 214.6C380.189 215.507 381.402 215.96 383.002 215.96C384.602 215.96 385.829 215.507 386.682 214.6C387.535 213.693 387.962 212.4 387.962 210.72V193.92H394.802V210.68C394.802 213.187 394.269 215.307 393.202 217.04C392.135 218.773 390.695 220.08 388.882 220.96C387.095 221.84 385.095 222.28 382.882 222.28C380.669 222.28 378.682 221.853 376.922 221C375.189 220.12 373.815 218.813 372.802 217.08C371.789 215.32 371.282 213.187 371.282 210.68V193.92H378.122ZM406.445 216.72H415.405V222H399.605V193.92H406.445V216.72ZM442.988 193.92V222H436.148V210.44H425.508V222H418.668V193.92H425.508V204.92H436.148V193.92H442.988ZM454.765 199.4V205.08H463.925V210.36H454.765V216.52H465.125V222H447.925V193.92H465.125V199.4H454.765ZM503.163 222H496.323L484.883 204.68V222H478.043V193.92H484.883L496.323 211.32V193.92H503.163V222ZM525.601 217.04H515.121L513.441 222H506.281L516.441 193.92H524.361L534.521 222H527.281L525.601 217.04ZM523.841 211.76L520.361 201.48L516.921 211.76H523.841ZM547.773 222.28C545.719 222.28 543.879 221.947 542.253 221.28C540.626 220.613 539.319 219.627 538.333 218.32C537.373 217.013 536.866 215.44 536.813 213.6H544.093C544.199 214.64 544.559 215.44 545.173 216C545.786 216.533 546.586 216.8 547.573 216.8C548.586 216.8 549.386 216.573 549.973 216.12C550.559 215.64 550.853 214.987 550.853 214.16C550.853 213.467 550.613 212.893 550.133 212.44C549.679 211.987 549.106 211.613 548.413 211.32C547.746 211.027 546.786 210.693 545.533 210.32C543.719 209.76 542.239 209.2 541.093 208.64C539.946 208.08 538.959 207.253 538.133 206.16C537.306 205.067 536.893 203.64 536.893 201.88C536.893 199.267 537.839 197.227 539.733 195.76C541.626 194.267 544.093 193.52 547.133 193.52C550.226 193.52 552.719 194.267 554.613 195.76C556.506 197.227 557.519 199.28 557.653 201.92H550.253C550.199 201.013 549.866 200.307 549.253 199.8C548.639 199.267 547.853 199 546.893 199C546.066 199 545.399 199.227 544.893 199.68C544.386 200.107 544.133 200.733 544.133 201.56C544.133 202.467 544.559 203.173 545.413 203.68C546.266 204.187 547.599 204.733 549.413 205.32C551.226 205.933 552.693 206.52 553.813 207.08C554.959 207.64 555.946 208.453 556.773 209.52C557.599 210.587 558.013 211.96 558.013 213.64C558.013 215.24 557.599 216.693 556.773 218C555.973 219.307 554.799 220.347 553.253 221.12C551.706 221.893 549.879 222.28 547.773 222.28ZM583.979 222.28C581.339 222.28 578.912 221.667 576.699 220.44C574.512 219.213 572.765 217.507 571.459 215.32C570.179 213.107 569.539 210.627 569.539 207.88C569.539 205.133 570.179 202.667 571.459 200.48C572.765 198.293 574.512 196.587 576.699 195.36C578.912 194.133 581.339 193.52 583.979 193.52C586.619 193.52 589.032 194.133 591.219 195.36C593.432 196.587 595.165 198.293 596.419 200.48C597.699 202.667 598.339 205.133 598.339 207.88C598.339 210.627 597.699 213.107 596.419 215.32C595.139 217.507 593.405 219.213 591.219 220.44C589.032 221.667 586.619 222.28 583.979 222.28ZM583.979 216.04C586.219 216.04 588.005 215.293 589.339 213.8C590.699 212.307 591.379 210.333 591.379 207.88C591.379 205.4 590.699 203.427 589.339 201.96C588.005 200.467 586.219 199.72 583.979 199.72C581.712 199.72 579.899 200.453 578.539 201.92C577.205 203.387 576.539 205.373 576.539 207.88C576.539 210.36 577.205 212.347 578.539 213.84C579.899 215.307 581.712 216.04 583.979 216.04ZM620.424 193.92V199.4H608.984V205.32H617.544V210.64H608.984V222H602.144V193.92H620.424ZM630.859 199.4V205.08H640.019V210.36H630.859V216.52H641.219V222H624.019V193.92H641.219V199.4H630.859ZM659.98 222L654.14 211.4H652.5V222H645.66V193.92H657.14C659.353 193.92 661.233 194.307 662.78 195.08C664.353 195.853 665.526 196.92 666.3 198.28C667.073 199.613 667.46 201.107 667.46 202.76C667.46 204.627 666.926 206.293 665.86 207.76C664.82 209.227 663.273 210.267 661.22 210.88L667.7 222H659.98ZM652.5 206.56H656.74C657.993 206.56 658.926 206.253 659.54 205.64C660.18 205.027 660.5 204.16 660.5 203.04C660.5 201.973 660.18 201.133 659.54 200.52C658.926 199.907 657.993 199.6 656.74 199.6H652.5V206.56ZM691.953 193.92V199.4H684.513V222H677.673V199.4H670.233V193.92H691.953ZM712.866 217.04H702.386L700.706 222H693.546L703.706 193.92H711.626L721.786 222H714.546L712.866 217.04ZM711.106 211.76L707.626 201.48L704.186 211.76H711.106ZM735.038 222.28C732.985 222.28 731.145 221.947 729.518 221.28C727.892 220.613 726.585 219.627 725.598 218.32C724.638 217.013 724.132 215.44 724.078 213.6H731.358C731.465 214.64 731.825 215.44 732.438 216C733.052 216.533 733.852 216.8 734.838 216.8C735.852 216.8 736.652 216.573 737.238 216.12C737.825 215.64 738.118 214.987 738.118 214.16C738.118 213.467 737.878 212.893 737.398 212.44C736.945 211.987 736.372 211.613 735.678 211.32C735.012 211.027 734.052 210.693 732.798 210.32C730.985 209.76 729.505 209.2 728.358 208.64C727.212 208.08 726.225 207.253 725.398 206.16C724.572 205.067 724.158 203.64 724.158 201.88C724.158 199.267 725.105 197.227 726.998 195.76C728.892 194.267 731.358 193.52 734.398 193.52C737.492 193.52 739.985 194.267 741.878 195.76C743.772 197.227 744.785 199.28 744.918 201.92H737.518C737.465 201.013 737.132 200.307 736.518 199.8C735.905 199.267 735.118 199 734.158 199C733.332 199 732.665 199.227 732.158 199.68C731.652 200.107 731.398 200.733 731.398 201.56C731.398 202.467 731.825 203.173 732.678 203.68C733.532 204.187 734.865 204.733 736.678 205.32C738.492 205.933 739.958 206.52 741.078 207.08C742.225 207.64 743.212 208.453 744.038 209.52C744.865 210.587 745.278 211.96 745.278 213.64C745.278 215.24 744.865 216.693 744.038 218C743.238 219.307 742.065 220.347 740.518 221.12C738.972 221.893 737.145 222.28 735.038 222.28ZM764.804 193.92V222H757.964V193.92H764.804ZM801.561 193.92V222H794.721V205.16L788.441 222H782.921L776.601 205.12V222H769.761V193.92H777.841L785.721 213.36L793.521 193.92H801.561ZM827.88 202.96C827.88 204.587 827.507 206.08 826.76 207.44C826.013 208.773 824.867 209.853 823.32 210.68C821.773 211.507 819.853 211.92 817.56 211.92H813.32V222H806.48V193.92H817.56C819.8 193.92 821.693 194.307 823.24 195.08C824.787 195.853 825.947 196.92 826.72 198.28C827.493 199.64 827.88 201.2 827.88 202.96ZM817.04 206.48C818.347 206.48 819.32 206.173 819.96 205.56C820.6 204.947 820.92 204.08 820.92 202.96C820.92 201.84 820.6 200.973 819.96 200.36C819.32 199.747 818.347 199.44 817.04 199.44H813.32V206.48H817.04ZM838.281 199.4V205.08H847.441V210.36H838.281V216.52H848.641V222H831.441V193.92H848.641V199.4H838.281ZM867.402 222L861.562 211.4H859.922V222H853.082V193.92H864.562C866.775 193.92 868.655 194.307 870.202 195.08C871.775 195.853 872.948 196.92 873.722 198.28C874.495 199.613 874.882 201.107 874.882 202.76C874.882 204.627 874.348 206.293 873.282 207.76C872.242 209.227 870.695 210.267 868.642 210.88L875.122 222H867.402ZM859.922 206.56H864.162C865.415 206.56 866.348 206.253 866.962 205.64C867.602 205.027 867.922 204.16 867.922 203.04C867.922 201.973 867.602 201.133 866.962 200.52C866.348 199.907 865.415 199.6 864.162 199.6H859.922V206.56ZM889.695 193.92C892.655 193.92 895.242 194.507 897.455 195.68C899.669 196.853 901.375 198.507 902.575 200.64C903.802 202.747 904.415 205.187 904.415 207.96C904.415 210.707 903.802 213.147 902.575 215.28C901.375 217.413 899.655 219.067 897.415 220.24C895.202 221.413 892.629 222 889.695 222H879.175V193.92H889.695ZM889.255 216.08C891.842 216.08 893.855 215.373 895.295 213.96C896.735 212.547 897.455 210.547 897.455 207.96C897.455 205.373 896.735 203.36 895.295 201.92C893.855 200.48 891.842 199.76 889.255 199.76H886.015V216.08H889.255ZM915.078 193.92V222H908.238V193.92H915.078ZM916.318 188.28L906.678 192.32V187.6L916.318 182.96V188.28ZM946.395 193.92L936.435 222H927.875L917.915 193.92H925.195L932.155 215.12L939.155 193.92H946.395ZM956.093 199.4V205.08H965.253V210.36H956.093V216.52H966.453V222H949.253V193.92H966.453V199.4H956.093ZM977.734 193.92V222H970.894V193.92H977.734ZM992.851 222.28C990.798 222.28 988.958 221.947 987.331 221.28C985.704 220.613 984.398 219.627 983.411 218.32C982.451 217.013 981.944 215.44 981.891 213.6H989.171C989.278 214.64 989.638 215.44 990.251 216C990.864 216.533 991.664 216.8 992.651 216.8C993.664 216.8 994.464 216.573 995.051 216.12C995.638 215.64 995.931 214.987 995.931 214.16C995.931 213.467 995.691 212.893 995.211 212.44C994.758 211.987 994.184 211.613 993.491 211.32C992.824 211.027 991.864 210.693 990.611 210.32C988.798 209.76 987.318 209.2 986.171 208.64C985.024 208.08 984.038 207.253 983.211 206.16C982.384 205.067 981.971 203.64 981.971 201.88C981.971 199.267 982.918 197.227 984.811 195.76C986.704 194.267 989.171 193.52 992.211 193.52C995.304 193.52 997.798 194.267 999.691 195.76C1001.58 197.227 1002.6 199.28 1002.73 201.92H995.331C995.278 201.013 994.944 200.307 994.331 199.8C993.718 199.267 992.931 199 991.971 199C991.144 199 990.478 199.227 989.971 199.68C989.464 200.107 989.211 200.733 989.211 201.56C989.211 202.467 989.638 203.173 990.491 203.68C991.344 204.187 992.678 204.733 994.491 205.32C996.304 205.933 997.771 206.52 998.891 207.08C1000.04 207.64 1001.02 208.453 1001.85 209.52C1002.68 210.587 1003.09 211.96 1003.09 213.64C1003.09 215.24 1002.68 216.693 1001.85 218C1001.05 219.307 999.878 220.347 998.331 221.12C996.784 221.893 994.958 222.28 992.851 222.28ZM1016.3 192.92L1015.5 212.08H1009.7L1008.9 192.92H1016.3ZM1012.7 222.32C1011.5 222.32 1010.51 221.973 1009.74 221.28C1008.99 220.56 1008.62 219.68 1008.62 218.64C1008.62 217.573 1008.99 216.68 1009.74 215.96C1010.51 215.24 1011.5 214.88 1012.7 214.88C1013.87 214.88 1014.83 215.24 1015.58 215.96C1016.35 216.68 1016.74 217.573 1016.74 218.64C1016.74 219.68 1016.35 220.56 1015.58 221.28C1014.83 221.973 1013.87 222.32 1012.7 222.32Z" fill="white"/>
</g>
</svg>
