<svg width="1274" height="252" viewBox="0 0 1274 252" fill="none" xmlns="http://www.w3.org/2000/svg">
<mask id="mask0_2487_6210" style="mask-type:alpha" maskUnits="userSpaceOnUse" x="0" y="0" width="1274" height="252">
<rect width="1274" height="252" rx="10" fill="#DFEAFF"/>
</mask>
<g mask="url(#mask0_2487_6210)">
<rect x="-53" y="-21" width="1344" height="293" fill="#2C2525"/>
<path d="M725.5 25L709.5 40.5L711.5 42L729.5 28.5L725.5 25Z" fill="#FFD601" stroke="#FFD601" stroke-width="3" stroke-linejoin="round"/>
<path d="M553.814 191.865L569.814 176.365L567.814 174.865L549.814 188.365L553.814 191.865Z" fill="#FFD601" stroke="#FFD601" stroke-width="3" stroke-linejoin="round"/>
<path d="M737.69 42.769L716.635 50.0445L717.812 52.2498L739.834 47.6326L737.69 42.769Z" fill="#FFD601" stroke="#FFD601" stroke-width="3" stroke-linejoin="round"/>
<path d="M541.624 174.096L562.68 166.821L561.502 164.615L539.481 169.233L541.624 174.096Z" fill="#FFD601" stroke="#FFD601" stroke-width="3" stroke-linejoin="round"/>
<path d="M828.117 142.047H828.352C828.625 142.047 828.859 142.125 829.055 142.281C829.25 142.438 829.348 142.57 829.348 142.68V142.879C829.348 143.105 829.027 143.715 828.387 144.707C827.746 145.699 827.305 146.633 827.062 147.508C826.641 149.039 826.43 150.773 826.43 152.711C826.43 152.883 826.43 153.055 826.43 153.227L826.441 153.484C826.449 153.656 826.453 153.824 826.453 153.988C826.453 155.535 826.715 157.074 827.238 158.605C827.441 159.191 827.828 159.895 828.398 160.715C828.977 161.543 829.266 162.141 829.266 162.508C829.266 162.688 829.129 162.867 828.855 163.047C828.59 163.227 828.34 163.316 828.105 163.316H827.883C827.43 163.316 826.891 162.906 826.266 162.086C824.562 159.844 823.711 156.672 823.711 152.57C823.711 148.469 824.668 145.293 826.582 143.043C827.145 142.379 827.656 142.047 828.117 142.047ZM838.793 152.359V152.16C838.793 151.543 838.586 151.055 838.172 150.695C837.758 150.336 837.262 150.156 836.684 150.156H836.391C835.711 150.156 835.141 150.387 834.68 150.848C834.219 151.309 833.988 151.871 833.988 152.535V152.723C833.988 152.934 834.242 153.039 834.75 153.039H835.348L835.418 153.027L837.902 152.91L838.16 152.887C838.582 152.887 838.793 152.711 838.793 152.359ZM837.832 154.914C835.309 154.914 834.047 155.18 834.047 155.711C834.047 156.383 834.293 156.914 834.785 157.305C835.277 157.695 835.898 157.891 836.648 157.891C837.398 157.891 838.121 157.793 838.816 157.598C839.512 157.395 839.98 157.293 840.223 157.293C840.473 157.293 840.68 157.395 840.844 157.598C841.016 157.793 841.102 158.09 841.102 158.488C841.102 158.879 840.672 159.277 839.812 159.684C838.961 160.09 838.082 160.293 837.176 160.293H836.32C835.648 160.293 834.938 160.156 834.188 159.883C832.719 159.352 831.77 158.383 831.34 156.977C831.098 156.195 830.977 155.406 830.977 154.609V154.047C830.977 151.188 831.984 149.328 834 148.469C834.75 148.148 835.602 147.988 836.555 147.988C838.172 147.988 839.402 148.395 840.246 149.207C840.605 149.559 840.91 150.059 841.16 150.707C841.418 151.355 841.547 151.953 841.547 152.5V153.285C841.547 153.957 841.305 154.398 840.82 154.609C840.344 154.812 839.348 154.914 837.832 154.914ZM860.742 156.719C860.734 157.016 860.73 157.48 860.73 158.113C860.73 158.738 860.668 159.16 860.543 159.379C860.418 159.598 859.992 159.707 859.266 159.707C858.547 159.707 858.137 159.605 858.035 159.402C857.941 159.199 857.895 158.621 857.895 157.668L857.859 156.32C857.844 155.719 857.836 155.113 857.836 154.504C857.836 152.855 857.707 151.758 857.449 151.211C857.191 150.664 856.793 150.391 856.254 150.391C855.223 150.391 854.535 150.793 854.191 151.598C853.973 152.098 853.863 153.402 853.863 155.512C853.863 157.621 853.77 158.836 853.582 159.156C853.316 159.602 852.793 159.824 852.012 159.824C851.73 159.824 851.512 159.719 851.355 159.508C851.207 159.289 851.133 158.77 851.133 157.949L851.145 157.492V155.16C851.145 151.387 851.207 149.32 851.332 148.961C851.465 148.594 851.863 148.41 852.527 148.41C852.715 148.41 852.984 148.492 853.336 148.656C853.688 148.82 853.941 148.902 854.098 148.902C854.262 148.902 854.664 148.777 855.305 148.527C855.953 148.277 856.562 148.152 857.133 148.152C857.711 148.152 858.41 148.344 859.23 148.727C860.059 149.109 860.5 149.301 860.555 149.301C860.609 149.301 860.809 149.203 861.152 149.008L861.902 148.574C862.488 148.277 863.129 148.129 863.824 148.129C864.52 148.129 865.121 148.301 865.629 148.645C866.145 148.988 866.539 149.43 866.812 149.969C867.234 150.812 867.445 152.512 867.445 155.066L867.469 156.883L867.504 158.219C867.504 158.789 867.43 159.211 867.281 159.484C867.133 159.75 866.863 159.883 866.473 159.883C866.09 159.883 865.746 159.789 865.441 159.602C865.145 159.414 864.922 159.062 864.773 158.547C864.625 158.031 864.551 156.902 864.551 155.16C864.551 153.41 864.449 152.293 864.246 151.809C863.941 151.082 863.406 150.719 862.641 150.719C861.875 150.719 861.371 150.984 861.129 151.516C860.895 152.039 860.777 153.039 860.777 154.516L860.754 156.273L860.742 156.719ZM880.852 157.949C880.852 158.715 880.707 159.211 880.418 159.438C880.137 159.664 879.789 159.777 879.375 159.777C878.969 159.777 878.684 159.738 878.52 159.66C878.355 159.582 878.199 159.469 878.051 159.32C877.91 159.164 877.824 159.086 877.793 159.086C877.762 159.086 877.367 159.242 876.609 159.555C875.852 159.867 875.094 160.023 874.336 160.023C873.586 160.023 872.914 159.867 872.32 159.555C871.211 158.961 870.574 157.832 870.41 156.168C870.363 155.66 870.34 154.184 870.34 151.738L870.305 149.289V148.996C870.305 148.457 870.664 148.188 871.383 148.188H871.664C872.383 148.188 872.844 148.484 873.047 149.078C873.125 149.305 873.164 150.52 873.164 152.723C873.164 154.918 873.262 156.254 873.457 156.73C873.762 157.48 874.344 157.855 875.203 157.855C875.719 157.855 876.164 157.734 876.539 157.492C876.922 157.242 877.199 156.949 877.371 156.613C877.676 156.035 877.828 154.945 877.828 153.344L877.852 152.734L877.863 151.809C877.863 150.285 877.945 149.355 878.109 149.02C878.328 148.574 878.867 148.352 879.727 148.352C880.148 148.352 880.422 148.59 880.547 149.066C880.617 149.332 880.652 150.125 880.652 151.445L880.852 157.352V157.949ZM894.258 157.949C894.258 158.715 894.113 159.211 893.824 159.438C893.543 159.664 893.195 159.777 892.781 159.777C892.375 159.777 892.09 159.738 891.926 159.66C891.762 159.582 891.605 159.469 891.457 159.32C891.316 159.164 891.23 159.086 891.199 159.086C891.168 159.086 890.773 159.242 890.016 159.555C889.258 159.867 888.5 160.023 887.742 160.023C886.992 160.023 886.32 159.867 885.727 159.555C884.617 158.961 883.98 157.832 883.816 156.168C883.77 155.66 883.746 154.184 883.746 151.738L883.711 149.289V148.996C883.711 148.457 884.07 148.188 884.789 148.188H885.07C885.789 148.188 886.25 148.484 886.453 149.078C886.531 149.305 886.57 150.52 886.57 152.723C886.57 154.918 886.668 156.254 886.863 156.73C887.168 157.48 887.75 157.855 888.609 157.855C889.125 157.855 889.57 157.734 889.945 157.492C890.328 157.242 890.605 156.949 890.777 156.613C891.082 156.035 891.234 154.945 891.234 153.344L891.258 152.734L891.27 151.809C891.27 150.285 891.352 149.355 891.516 149.02C891.734 148.574 892.273 148.352 893.133 148.352C893.555 148.352 893.828 148.59 893.953 149.066C894.023 149.332 894.059 150.125 894.059 151.445L894.258 157.352V157.949ZM907.664 157.949C907.664 158.715 907.52 159.211 907.23 159.438C906.949 159.664 906.602 159.777 906.188 159.777C905.781 159.777 905.496 159.738 905.332 159.66C905.168 159.582 905.012 159.469 904.863 159.32C904.723 159.164 904.637 159.086 904.605 159.086C904.574 159.086 904.18 159.242 903.422 159.555C902.664 159.867 901.906 160.023 901.148 160.023C900.398 160.023 899.727 159.867 899.133 159.555C898.023 158.961 897.387 157.832 897.223 156.168C897.176 155.66 897.152 154.184 897.152 151.738L897.117 149.289V148.996C897.117 148.457 897.477 148.188 898.195 148.188H898.477C899.195 148.188 899.656 148.484 899.859 149.078C899.938 149.305 899.977 150.52 899.977 152.723C899.977 154.918 900.074 156.254 900.27 156.73C900.574 157.48 901.156 157.855 902.016 157.855C902.531 157.855 902.977 157.734 903.352 157.492C903.734 157.242 904.012 156.949 904.184 156.613C904.488 156.035 904.641 154.945 904.641 153.344L904.664 152.734L904.676 151.809C904.676 150.285 904.758 149.355 904.922 149.02C905.141 148.574 905.68 148.352 906.539 148.352C906.961 148.352 907.234 148.59 907.359 149.066C907.43 149.332 907.465 150.125 907.465 151.445L907.664 157.352V157.949ZM910.816 144.543C910.84 144.449 910.852 144.312 910.852 144.133C910.852 143.953 910.945 143.77 911.133 143.582C911.328 143.387 911.613 143.289 911.988 143.289L912.305 143.254H912.574L912.633 143.266L912.996 143.301C913.027 143.309 913.062 143.312 913.102 143.312C913.664 143.312 913.945 143.625 913.945 144.25L913.98 144.578V144.848L913.957 145.07L913.922 145.328C913.922 145.953 913.406 146.266 912.375 146.266H912.27L912.211 146.254L911.801 146.219C911.762 146.211 911.727 146.207 911.695 146.207C911.141 146.207 910.863 145.926 910.863 145.363C910.848 145.285 910.84 145.23 910.84 145.199L910.816 144.988V144.543ZM912.375 160.047H912.07C911.5 160.047 911.152 159.969 911.027 159.812C910.824 159.555 910.723 159.102 910.723 158.453C910.723 157.805 910.754 157.227 910.816 156.719C910.887 156.211 910.922 155.914 910.922 155.828L910.934 155.523C910.934 155.422 910.934 155.32 910.934 155.219L910.945 154.914V153.355L910.957 152.887V152.266L910.945 151.797C910.945 151.695 910.945 151.594 910.945 151.492L910.934 151.188L910.629 149.312V149.031C910.629 148.656 910.707 148.422 910.863 148.328C911.027 148.234 911.359 148.188 911.859 148.188H912.316C913.051 148.188 913.484 148.391 913.617 148.797C913.688 149.008 913.723 150.035 913.723 151.879C913.723 153.723 913.734 154.789 913.758 155.078C913.781 155.359 913.848 155.816 913.957 156.449C914.074 157.074 914.133 157.504 914.133 157.738L914.156 158.031V158.465C914.156 159.184 914.047 159.629 913.828 159.801C913.609 159.965 913.125 160.047 912.375 160.047ZM923.812 158.992C923.812 159.688 923.102 160.035 921.68 160.035C920.258 160.035 919.254 159.551 918.668 158.582C918.223 157.832 918 156.32 918 154.047V153.543L917.977 152.816L917.965 152.57L917.953 151.832C917.953 151.277 917.914 150.922 917.836 150.766C917.766 150.602 917.531 150.41 917.133 150.191C916.742 149.973 916.547 149.688 916.547 149.336V149.125C916.547 148.516 916.77 148.105 917.215 147.895C917.66 147.676 917.922 147.473 918 147.285C918.008 147.262 918.07 146.918 918.188 146.254C918.312 145.59 918.453 145.141 918.609 144.906C918.773 144.672 919.133 144.555 919.688 144.555C920.25 144.555 920.605 144.727 920.754 145.07C920.809 145.195 920.895 145.605 921.012 146.301C921.129 146.996 921.262 147.434 921.41 147.613C921.559 147.785 921.914 147.926 922.477 148.035C923.039 148.145 923.391 148.254 923.531 148.363C923.68 148.473 923.754 148.738 923.754 149.16C923.754 149.582 923.578 149.871 923.227 150.027C923.086 150.09 922.754 150.145 922.23 150.191C921.707 150.23 921.352 150.355 921.164 150.566C920.984 150.777 920.895 151.512 920.895 152.77L920.883 153.016C920.875 153.18 920.871 153.344 920.871 153.508L920.859 153.754V154.258C920.859 155.844 920.965 156.793 921.176 157.105C921.395 157.418 921.773 157.605 922.312 157.668C922.852 157.73 923.234 157.852 923.461 158.031C923.695 158.211 923.812 158.531 923.812 158.992ZM930.926 158.031H931.406C932.258 158.031 932.895 157.703 933.316 157.047C933.738 156.391 933.949 155.508 933.949 154.398V153.777C933.949 152.645 933.723 151.758 933.27 151.117C932.824 150.469 932.203 150.145 931.406 150.145H931.055C930.281 150.145 929.66 150.449 929.191 151.059C928.73 151.66 928.5 152.527 928.5 153.66V154.41C928.5 155.504 928.711 156.383 929.133 157.047C929.562 157.703 930.16 158.031 930.926 158.031ZM936.82 153.473V154.293C936.82 155.121 936.691 155.93 936.434 156.719C936.184 157.508 935.84 158.145 935.402 158.629C934.965 159.105 934.395 159.5 933.691 159.812C932.996 160.125 932.234 160.281 931.406 160.281H930.785C929.199 160.281 927.914 159.719 926.93 158.594C926.07 157.617 925.641 156.254 925.641 154.504V153.684C925.641 152.809 925.773 152 926.039 151.258C926.312 150.516 926.676 149.906 927.129 149.43C927.59 148.953 928.18 148.582 928.898 148.316C929.625 148.051 930.418 147.918 931.277 147.918L931.488 147.93C932.215 147.93 932.914 148.055 933.586 148.305C934.984 148.836 935.938 149.801 936.445 151.199C936.695 151.879 936.82 152.637 936.82 153.473ZM939.152 151.293C939.152 149.871 939.961 148.867 941.578 148.281C942.156 148.062 942.789 147.953 943.477 147.953H943.793C944.832 147.953 945.762 148.098 946.582 148.387C947.41 148.668 947.824 149.023 947.824 149.453C947.824 149.789 947.734 150.082 947.555 150.332C947.383 150.582 947.207 150.707 947.027 150.707C946.855 150.707 946.402 150.609 945.668 150.414C944.934 150.219 944.273 150.121 943.688 150.121C943.109 150.121 942.66 150.223 942.34 150.426C942.02 150.629 941.859 150.922 941.859 151.305C941.859 151.688 942.109 152.02 942.609 152.301C942.82 152.418 943.215 152.562 943.793 152.734C945.496 153.234 946.664 153.762 947.297 154.316C947.938 154.863 948.258 155.586 948.258 156.484V156.789C948.258 157.258 948.145 157.719 947.918 158.172C947.691 158.625 947.383 158.996 946.992 159.285C946.164 159.902 945.148 160.211 943.945 160.211H943.301C942.191 160.211 941.199 160.039 940.324 159.695C939.449 159.352 939.012 158.961 939.012 158.523C939.012 158.086 939.164 157.715 939.469 157.41C939.578 157.301 939.773 157.246 940.055 157.246C940.086 157.246 940.555 157.379 941.461 157.645C942.383 157.91 943.156 158.043 943.781 158.043C944.953 158.043 945.539 157.551 945.539 156.566C945.539 156.215 945.246 155.898 944.66 155.617C944.402 155.492 943.719 155.258 942.609 154.914C941.5 154.562 940.734 154.219 940.312 153.883C939.898 153.539 939.602 153.172 939.422 152.781C939.242 152.391 939.152 151.895 939.152 151.293ZM960 153.895V154.27C960 155.449 960.176 156.312 960.527 156.859C960.996 157.594 961.578 157.961 962.273 157.961H962.719C963.562 157.961 964.199 157.602 964.629 156.883C964.879 156.469 965.004 155.66 965.004 154.457V153.191C965.004 152.059 964.855 151.301 964.559 150.918C964.129 150.363 963.496 150.086 962.66 150.086L962.543 150.098C960.848 150.098 960 151.363 960 153.895ZM967.957 158.453C967.957 158.453 967.957 158.461 967.957 158.477C967.957 159.375 967.484 159.824 966.539 159.824C966.102 159.824 965.82 159.785 965.695 159.707C965.578 159.621 965.457 159.504 965.332 159.355C965.207 159.207 965.109 159.133 965.039 159.133C964.977 159.133 964.812 159.211 964.547 159.367C963.711 159.859 962.891 160.105 962.086 160.105H961.816C960.418 160.105 959.312 159.637 958.5 158.699C957.688 157.762 957.281 156.438 957.281 154.727V154.152C957.281 153.223 957.418 152.316 957.691 151.434C958.152 149.957 958.977 148.93 960.164 148.352C960.742 148.07 961.328 147.93 961.922 147.93C962.516 147.93 963.02 147.98 963.434 148.082C963.848 148.184 964.105 148.234 964.207 148.234C964.465 148.234 964.637 148.062 964.723 147.719C964.902 147 964.992 146.141 964.992 145.141C964.992 144.141 965.094 143.492 965.297 143.195C965.5 142.898 965.805 142.75 966.211 142.75H966.703C967.25 142.75 967.594 142.871 967.734 143.113C967.812 143.254 967.852 143.578 967.852 144.086L967.863 144.355C967.871 144.535 967.875 144.758 967.875 145.023V145.961L967.887 146.781V147.871L967.898 148.152V151.164L967.91 151.715V153.66L967.945 155.805V156.59L967.957 157.656V158.453ZM978.152 152.359V152.16C978.152 151.543 977.945 151.055 977.531 150.695C977.117 150.336 976.621 150.156 976.043 150.156H975.75C975.07 150.156 974.5 150.387 974.039 150.848C973.578 151.309 973.348 151.871 973.348 152.535V152.723C973.348 152.934 973.602 153.039 974.109 153.039H974.707L974.777 153.027L977.262 152.91L977.52 152.887C977.941 152.887 978.152 152.711 978.152 152.359ZM977.191 154.914C974.668 154.914 973.406 155.18 973.406 155.711C973.406 156.383 973.652 156.914 974.145 157.305C974.637 157.695 975.258 157.891 976.008 157.891C976.758 157.891 977.48 157.793 978.176 157.598C978.871 157.395 979.34 157.293 979.582 157.293C979.832 157.293 980.039 157.395 980.203 157.598C980.375 157.793 980.461 158.09 980.461 158.488C980.461 158.879 980.031 159.277 979.172 159.684C978.32 160.09 977.441 160.293 976.535 160.293H975.68C975.008 160.293 974.297 160.156 973.547 159.883C972.078 159.352 971.129 158.383 970.699 156.977C970.457 156.195 970.336 155.406 970.336 154.609V154.047C970.336 151.188 971.344 149.328 973.359 148.469C974.109 148.148 974.961 147.988 975.914 147.988C977.531 147.988 978.762 148.395 979.605 149.207C979.965 149.559 980.27 150.059 980.52 150.707C980.777 151.355 980.906 151.953 980.906 152.5V153.285C980.906 153.957 980.664 154.398 980.18 154.609C979.703 154.812 978.707 154.914 977.191 154.914ZM983.215 151.293C983.215 149.871 984.023 148.867 985.641 148.281C986.219 148.062 986.852 147.953 987.539 147.953H987.855C988.895 147.953 989.824 148.098 990.645 148.387C991.473 148.668 991.887 149.023 991.887 149.453C991.887 149.789 991.797 150.082 991.617 150.332C991.445 150.582 991.27 150.707 991.09 150.707C990.918 150.707 990.465 150.609 989.73 150.414C988.996 150.219 988.336 150.121 987.75 150.121C987.172 150.121 986.723 150.223 986.402 150.426C986.082 150.629 985.922 150.922 985.922 151.305C985.922 151.688 986.172 152.02 986.672 152.301C986.883 152.418 987.277 152.562 987.855 152.734C989.559 153.234 990.727 153.762 991.359 154.316C992 154.863 992.32 155.586 992.32 156.484V156.789C992.32 157.258 992.207 157.719 991.98 158.172C991.754 158.625 991.445 158.996 991.055 159.285C990.227 159.902 989.211 160.211 988.008 160.211H987.363C986.254 160.211 985.262 160.039 984.387 159.695C983.512 159.352 983.074 158.961 983.074 158.523C983.074 158.086 983.227 157.715 983.531 157.41C983.641 157.301 983.836 157.246 984.117 157.246C984.148 157.246 984.617 157.379 985.523 157.645C986.445 157.91 987.219 158.043 987.844 158.043C989.016 158.043 989.602 157.551 989.602 156.566C989.602 156.215 989.309 155.898 988.723 155.617C988.465 155.492 987.781 155.258 986.672 154.914C985.562 154.562 984.797 154.219 984.375 153.883C983.961 153.539 983.664 153.172 983.484 152.781C983.305 152.391 983.215 151.895 983.215 151.293ZM1003.8 149.781C1003.8 150.633 1003.43 151.059 1002.69 151.059C1002.48 151.059 1002.01 150.953 1001.29 150.742C1000.56 150.531 999.988 150.426 999.574 150.426C998.738 150.426 998.109 150.781 997.688 151.492C997.359 152.047 997.195 152.934 997.195 154.152C997.195 155.363 997.375 156.242 997.734 156.789C998.195 157.492 998.934 157.844 999.949 157.844C1000.43 157.844 1001.01 157.746 1001.67 157.551C1002.34 157.355 1002.8 157.258 1003.04 157.258C1003.29 157.258 1003.51 157.344 1003.69 157.516C1003.88 157.68 1003.97 157.977 1003.97 158.406C1003.97 158.828 1003.54 159.234 1002.67 159.625C1001.8 160.008 1000.89 160.199 999.949 160.199H999.68C998.023 160.199 996.719 159.707 995.766 158.723C994.812 157.738 994.332 156.398 994.324 154.703V153.871C994.324 152.012 994.824 150.566 995.824 149.535C996.824 148.504 998.289 147.988 1000.22 147.988H1000.48C1001.16 147.988 1001.81 148.129 1002.42 148.41C1003.34 148.832 1003.8 149.289 1003.8 149.781ZM1010.96 158.031H1011.45C1012.3 158.031 1012.93 157.703 1013.36 157.047C1013.78 156.391 1013.99 155.508 1013.99 154.398V153.777C1013.99 152.645 1013.76 151.758 1013.31 151.117C1012.86 150.469 1012.24 150.145 1011.45 150.145H1011.09C1010.32 150.145 1009.7 150.449 1009.23 151.059C1008.77 151.66 1008.54 152.527 1008.54 153.66V154.41C1008.54 155.504 1008.75 156.383 1009.17 157.047C1009.6 157.703 1010.2 158.031 1010.96 158.031ZM1016.86 153.473V154.293C1016.86 155.121 1016.73 155.93 1016.47 156.719C1016.22 157.508 1015.88 158.145 1015.44 158.629C1015 159.105 1014.43 159.5 1013.73 159.812C1013.04 160.125 1012.27 160.281 1011.45 160.281H1010.82C1009.24 160.281 1007.95 159.719 1006.97 158.594C1006.11 157.617 1005.68 156.254 1005.68 154.504V153.684C1005.68 152.809 1005.81 152 1006.08 151.258C1006.35 150.516 1006.71 149.906 1007.17 149.43C1007.63 148.953 1008.22 148.582 1008.94 148.316C1009.66 148.051 1010.46 147.918 1011.32 147.918L1011.53 147.93C1012.25 147.93 1012.95 148.055 1013.62 148.305C1015.02 148.836 1015.98 149.801 1016.48 151.199C1016.73 151.879 1016.86 152.637 1016.86 153.473ZM1019.53 150.016C1019.53 149.398 1019.59 148.98 1019.71 148.762C1019.83 148.543 1020.15 148.434 1020.66 148.434C1021.17 148.434 1021.55 148.52 1021.78 148.691C1021.83 148.723 1021.94 148.84 1022.11 149.043C1022.29 149.238 1022.43 149.336 1022.52 149.336C1022.62 149.336 1022.84 149.242 1023.19 149.055C1024.09 148.555 1024.84 148.305 1025.45 148.305H1026.06C1026.63 148.305 1027.16 148.426 1027.66 148.668C1028.66 149.152 1029.28 149.965 1029.53 151.105C1029.65 151.66 1029.71 152.484 1029.71 153.578L1029.81 156.531L1029.91 158.863C1029.91 159.207 1029.84 159.445 1029.69 159.578C1029.55 159.711 1029.22 159.777 1028.7 159.777C1027.9 159.777 1027.42 159.465 1027.27 158.84C1027.16 158.441 1027.07 157.27 1027 155.324C1026.93 153.379 1026.8 152.172 1026.62 151.703C1026.03 150.953 1025.39 150.5 1024.7 150.344C1023.75 150.344 1023.09 150.68 1022.71 151.352C1022.42 151.852 1022.27 152.844 1022.27 154.328L1022.24 155.266L1022.21 156.531C1022.21 158.047 1022.16 158.938 1022.06 159.203C1021.88 159.672 1021.39 159.906 1020.57 159.906C1020.07 159.906 1019.76 159.828 1019.62 159.672C1019.49 159.508 1019.43 159.242 1019.43 158.875L1019.44 158.57C1019.44 158.258 1019.44 157.949 1019.44 157.645L1019.48 155.781V153.59L1019.5 153.285C1019.5 153.082 1019.5 152.879 1019.5 152.676L1019.52 151.164L1019.53 150.871V150.016ZM1039.31 158.992C1039.31 159.688 1038.6 160.035 1037.18 160.035C1035.76 160.035 1034.75 159.551 1034.17 158.582C1033.72 157.832 1033.5 156.32 1033.5 154.047V153.543L1033.48 152.816L1033.46 152.57L1033.45 151.832C1033.45 151.277 1033.41 150.922 1033.34 150.766C1033.27 150.602 1033.03 150.41 1032.63 150.191C1032.24 149.973 1032.05 149.688 1032.05 149.336V149.125C1032.05 148.516 1032.27 148.105 1032.71 147.895C1033.16 147.676 1033.42 147.473 1033.5 147.285C1033.51 147.262 1033.57 146.918 1033.69 146.254C1033.81 145.59 1033.95 145.141 1034.11 144.906C1034.27 144.672 1034.63 144.555 1035.19 144.555C1035.75 144.555 1036.11 144.727 1036.25 145.07C1036.31 145.195 1036.39 145.605 1036.51 146.301C1036.63 146.996 1036.76 147.434 1036.91 147.613C1037.06 147.785 1037.41 147.926 1037.98 148.035C1038.54 148.145 1038.89 148.254 1039.03 148.363C1039.18 148.473 1039.25 148.738 1039.25 149.16C1039.25 149.582 1039.08 149.871 1038.73 150.027C1038.59 150.09 1038.25 150.145 1037.73 150.191C1037.21 150.23 1036.85 150.355 1036.66 150.566C1036.48 150.777 1036.39 151.512 1036.39 152.77L1036.38 153.016C1036.38 153.18 1036.37 153.344 1036.37 153.508L1036.36 153.754V154.258C1036.36 155.844 1036.46 156.793 1036.68 157.105C1036.89 157.418 1037.27 157.605 1037.81 157.668C1038.35 157.73 1038.73 157.852 1038.96 158.031C1039.2 158.211 1039.31 158.531 1039.31 158.992ZM1046.43 158.031H1046.91C1047.76 158.031 1048.39 157.703 1048.82 157.047C1049.24 156.391 1049.45 155.508 1049.45 154.398V153.777C1049.45 152.645 1049.22 151.758 1048.77 151.117C1048.32 150.469 1047.7 150.145 1046.91 150.145H1046.55C1045.78 150.145 1045.16 150.449 1044.69 151.059C1044.23 151.66 1044 152.527 1044 153.66V154.41C1044 155.504 1044.21 156.383 1044.63 157.047C1045.06 157.703 1045.66 158.031 1046.43 158.031ZM1052.32 153.473V154.293C1052.32 155.121 1052.19 155.93 1051.93 156.719C1051.68 157.508 1051.34 158.145 1050.9 158.629C1050.46 159.105 1049.89 159.5 1049.19 159.812C1048.5 160.125 1047.73 160.281 1046.91 160.281H1046.29C1044.7 160.281 1043.41 159.719 1042.43 158.594C1041.57 157.617 1041.14 156.254 1041.14 154.504V153.684C1041.14 152.809 1041.27 152 1041.54 151.258C1041.81 150.516 1042.18 149.906 1042.63 149.43C1043.09 148.953 1043.68 148.582 1044.4 148.316C1045.12 148.051 1045.92 147.918 1046.78 147.918L1046.99 147.93C1047.71 147.93 1048.41 148.055 1049.09 148.305C1050.48 148.836 1051.44 149.801 1051.95 151.199C1052.2 151.879 1052.32 152.637 1052.32 153.473ZM1054.65 151.293C1054.65 149.871 1055.46 148.867 1057.08 148.281C1057.66 148.062 1058.29 147.953 1058.98 147.953H1059.29C1060.33 147.953 1061.26 148.098 1062.08 148.387C1062.91 148.668 1063.32 149.023 1063.32 149.453C1063.32 149.789 1063.23 150.082 1063.05 150.332C1062.88 150.582 1062.71 150.707 1062.53 150.707C1062.36 150.707 1061.9 150.609 1061.17 150.414C1060.43 150.219 1059.77 150.121 1059.19 150.121C1058.61 150.121 1058.16 150.223 1057.84 150.426C1057.52 150.629 1057.36 150.922 1057.36 151.305C1057.36 151.688 1057.61 152.02 1058.11 152.301C1058.32 152.418 1058.71 152.562 1059.29 152.734C1061 153.234 1062.16 153.762 1062.8 154.316C1063.44 154.863 1063.76 155.586 1063.76 156.484V156.789C1063.76 157.258 1063.64 157.719 1063.42 158.172C1063.19 158.625 1062.88 158.996 1062.49 159.285C1061.66 159.902 1060.65 160.211 1059.45 160.211H1058.8C1057.69 160.211 1056.7 160.039 1055.82 159.695C1054.95 159.352 1054.51 158.961 1054.51 158.523C1054.51 158.086 1054.66 157.715 1054.97 157.41C1055.08 157.301 1055.27 157.246 1055.55 157.246C1055.59 157.246 1056.05 157.379 1056.96 157.645C1057.88 157.91 1058.66 158.043 1059.28 158.043C1060.45 158.043 1061.04 157.551 1061.04 156.566C1061.04 156.215 1060.75 155.898 1060.16 155.617C1059.9 155.492 1059.22 155.258 1058.11 154.914C1057 154.562 1056.23 154.219 1055.81 153.883C1055.4 153.539 1055.1 153.172 1054.92 152.781C1054.74 152.391 1054.65 151.895 1054.65 151.293ZM1079.74 158.992C1079.74 159.688 1079.03 160.035 1077.61 160.035C1076.19 160.035 1075.18 159.551 1074.6 158.582C1074.15 157.832 1073.93 156.32 1073.93 154.047V153.543L1073.91 152.816L1073.89 152.57L1073.88 151.832C1073.88 151.277 1073.84 150.922 1073.77 150.766C1073.7 150.602 1073.46 150.41 1073.06 150.191C1072.67 149.973 1072.48 149.688 1072.48 149.336V149.125C1072.48 148.516 1072.7 148.105 1073.14 147.895C1073.59 147.676 1073.85 147.473 1073.93 147.285C1073.94 147.262 1074 146.918 1074.12 146.254C1074.24 145.59 1074.38 145.141 1074.54 144.906C1074.7 144.672 1075.06 144.555 1075.62 144.555C1076.18 144.555 1076.54 144.727 1076.68 145.07C1076.74 145.195 1076.82 145.605 1076.94 146.301C1077.06 146.996 1077.19 147.434 1077.34 147.613C1077.49 147.785 1077.84 147.926 1078.41 148.035C1078.97 148.145 1079.32 148.254 1079.46 148.363C1079.61 148.473 1079.68 148.738 1079.68 149.16C1079.68 149.582 1079.51 149.871 1079.16 150.027C1079.02 150.09 1078.68 150.145 1078.16 150.191C1077.64 150.23 1077.28 150.355 1077.09 150.566C1076.91 150.777 1076.82 151.512 1076.82 152.77L1076.81 153.016C1076.8 153.18 1076.8 153.344 1076.8 153.508L1076.79 153.754V154.258C1076.79 155.844 1076.89 156.793 1077.11 157.105C1077.32 157.418 1077.7 157.605 1078.24 157.668C1078.78 157.73 1079.16 157.852 1079.39 158.031C1079.62 158.211 1079.74 158.531 1079.74 158.992ZM1084.59 156.555C1084.59 156.953 1084.79 157.285 1085.19 157.551C1085.59 157.816 1086.02 157.949 1086.48 157.949H1086.82C1087.61 157.949 1088.23 157.664 1088.67 157.094C1088.87 156.844 1088.96 156.336 1088.96 155.57L1088.98 155.43V155.137C1088.98 154.645 1088.71 154.398 1088.19 154.398H1087.24C1086.38 154.398 1085.72 154.543 1085.26 154.832C1084.8 155.121 1084.57 155.473 1084.57 155.887V156.32C1084.59 156.43 1084.59 156.508 1084.59 156.555ZM1088.85 151.844C1088.85 150.695 1088.12 150.121 1086.68 150.121C1086.15 150.121 1085.48 150.223 1084.69 150.426C1083.9 150.629 1083.4 150.73 1083.19 150.73C1082.98 150.73 1082.78 150.625 1082.6 150.414C1082.43 150.203 1082.34 149.938 1082.34 149.617C1082.34 149.094 1082.66 148.684 1083.28 148.387C1084.16 147.973 1085.21 147.766 1086.45 147.766H1086.74C1088.75 147.766 1090.18 148.336 1091.03 149.477C1091.36 149.914 1091.57 150.438 1091.67 151.047C1091.77 151.648 1091.82 152.699 1091.82 154.199C1091.82 155.691 1091.88 156.738 1091.98 157.34C1092.08 157.941 1092.13 158.445 1092.13 158.852C1092.13 159.25 1092.05 159.543 1091.89 159.73C1091.74 159.91 1091.4 160 1090.89 160C1090.37 160 1090.02 159.949 1089.82 159.848C1089.62 159.746 1089.44 159.617 1089.27 159.461C1089.11 159.305 1088.97 159.227 1088.87 159.227C1088.77 159.227 1088.32 159.387 1087.52 159.707C1086.73 160.02 1086.04 160.176 1085.46 160.176H1085.18C1084.05 160.176 1083.17 159.836 1082.53 159.156C1081.89 158.469 1081.57 157.641 1081.57 156.672V156.098C1081.57 155.637 1081.7 155.172 1081.95 154.703C1082.63 153.406 1084.33 152.703 1087.04 152.594C1087.98 152.555 1088.52 152.5 1088.65 152.43C1088.78 152.352 1088.85 152.156 1088.85 151.844ZM1104.66 156.719C1104.65 157.016 1104.64 157.48 1104.64 158.113C1104.64 158.738 1104.58 159.16 1104.46 159.379C1104.33 159.598 1103.91 159.707 1103.18 159.707C1102.46 159.707 1102.05 159.605 1101.95 159.402C1101.86 159.199 1101.81 158.621 1101.81 157.668L1101.77 156.32C1101.76 155.719 1101.75 155.113 1101.75 154.504C1101.75 152.855 1101.62 151.758 1101.36 151.211C1101.11 150.664 1100.71 150.391 1100.17 150.391C1099.14 150.391 1098.45 150.793 1098.11 151.598C1097.89 152.098 1097.78 153.402 1097.78 155.512C1097.78 157.621 1097.68 158.836 1097.5 159.156C1097.23 159.602 1096.71 159.824 1095.93 159.824C1095.64 159.824 1095.43 159.719 1095.27 159.508C1095.12 159.289 1095.05 158.77 1095.05 157.949L1095.06 157.492V155.16C1095.06 151.387 1095.12 149.32 1095.25 148.961C1095.38 148.594 1095.78 148.41 1096.44 148.41C1096.63 148.41 1096.9 148.492 1097.25 148.656C1097.6 148.82 1097.86 148.902 1098.01 148.902C1098.18 148.902 1098.58 148.777 1099.22 148.527C1099.87 148.277 1100.48 148.152 1101.05 148.152C1101.62 148.152 1102.32 148.344 1103.14 148.727C1103.97 149.109 1104.41 149.301 1104.47 149.301C1104.52 149.301 1104.72 149.203 1105.07 149.008L1105.82 148.574C1106.4 148.277 1107.04 148.129 1107.74 148.129C1108.43 148.129 1109.04 148.301 1109.54 148.645C1110.06 148.988 1110.45 149.43 1110.73 149.969C1111.15 150.812 1111.36 152.512 1111.36 155.066L1111.38 156.883L1111.42 158.219C1111.42 158.789 1111.34 159.211 1111.2 159.484C1111.05 159.75 1110.78 159.883 1110.39 159.883C1110 159.883 1109.66 159.789 1109.36 159.602C1109.06 159.414 1108.84 159.062 1108.69 158.547C1108.54 158.031 1108.46 156.902 1108.46 155.16C1108.46 153.41 1108.36 152.293 1108.16 151.809C1107.86 151.082 1107.32 150.719 1106.55 150.719C1105.79 150.719 1105.29 150.984 1105.04 151.516C1104.81 152.039 1104.69 153.039 1104.69 154.516L1104.67 156.273L1104.66 156.719ZM1119.27 157.926H1119.74C1120.56 157.926 1121.21 157.57 1121.71 156.859C1122.07 156.344 1122.25 155.539 1122.25 154.445V153.953L1122.23 153.824L1122.21 153.344C1122.21 153.344 1122.21 153.262 1122.21 153.098C1122.2 152.941 1122.19 152.828 1122.19 152.758C1122.19 152.023 1121.98 151.391 1121.57 150.859C1121.15 150.32 1120.62 150.051 1119.96 150.051H1119.5C1118.64 150.051 1118.01 150.375 1117.59 151.023C1117.32 151.445 1117.18 152.258 1117.18 153.461V154.609L1117.2 154.727L1117.23 155.395C1117.24 155.473 1117.24 155.547 1117.24 155.617C1117.24 156.328 1117.42 156.891 1117.77 157.305C1118.12 157.719 1118.62 157.926 1119.27 157.926ZM1120.37 160.047H1120.09C1119.57 160.047 1118.96 159.934 1118.29 159.707C1117.61 159.48 1117.25 159.367 1117.23 159.367C1117.21 159.367 1117.09 159.441 1116.84 159.59C1116.61 159.738 1116.29 159.812 1115.88 159.812C1115.16 159.812 1114.71 159.641 1114.56 159.297C1114.41 158.953 1114.34 158.055 1114.34 156.602V156.051L1114.35 155.77V154.117L1114.36 153.297C1114.36 152.836 1114.36 152.375 1114.36 151.914L1114.37 151.363C1114.37 151.363 1114.37 150.016 1114.37 147.32C1114.37 144.898 1114.41 143.504 1114.48 143.137C1114.55 142.77 1114.93 142.586 1115.61 142.586H1115.88C1116.55 142.586 1116.98 142.754 1117.17 143.09C1117.36 143.418 1117.45 144.363 1117.45 145.926C1117.45 147.48 1117.64 148.258 1118.02 148.258C1118.12 148.258 1118.33 148.203 1118.66 148.094C1118.99 147.984 1119.28 147.898 1119.53 147.836C1119.78 147.773 1120.23 147.742 1120.88 147.742C1121.53 147.742 1122.13 147.898 1122.68 148.211C1123.23 148.516 1123.67 148.926 1124 149.441C1124.75 150.574 1125.12 151.953 1125.12 153.578V154.164C1125.12 156.922 1124.22 158.727 1122.43 159.578C1121.78 159.891 1121.09 160.047 1120.37 160.047ZM1131.74 152.898C1131.99 152.898 1132.23 152.879 1132.46 152.84C1132.71 152.793 1133.04 152.77 1133.47 152.77L1133.96 152.746C1134 152.738 1134.04 152.734 1134.07 152.734C1134.59 152.734 1134.86 152.422 1134.86 151.797V151.398C1134.86 150.844 1134.62 150.406 1134.15 150.086C1133.69 149.758 1133.16 149.594 1132.57 149.594H1132.49L1132.41 149.605C1131.7 149.605 1131.12 149.836 1130.66 150.297C1130.21 150.75 1129.98 151.281 1129.98 151.891L1129.96 152.055V152.359C1129.96 152.695 1130.22 152.863 1130.75 152.863L1131.13 152.898H1131.74ZM1131.75 146.242H1131.54C1131.05 146.242 1130.81 146.094 1130.81 145.797V145.539C1130.81 145.047 1131.46 144.152 1132.76 142.855C1133.2 142.418 1133.68 142.199 1134.22 142.199C1134.34 142.176 1134.41 142.164 1134.42 142.164H1134.69C1135.34 142.164 1135.66 142.359 1135.66 142.75V143.008C1135.66 143.344 1134.94 144.152 1133.5 145.434C1132.89 145.973 1132.3 146.242 1131.75 146.242ZM1136.27 156.906C1136.9 156.906 1137.21 157.324 1137.21 158.16C1137.21 158.527 1136.79 158.891 1135.93 159.25C1135.09 159.609 1134.18 159.789 1133.19 159.789H1132.62C1131.8 159.789 1131 159.648 1130.2 159.367C1129.39 159.086 1128.77 158.707 1128.35 158.23C1127.5 157.293 1127.07 155.93 1127.07 154.141C1127.07 154.125 1127.07 154.109 1127.07 154.094V153.812C1127.07 151.773 1127.49 150.285 1128.32 149.348C1128.81 148.785 1129.41 148.367 1130.11 148.094C1130.82 147.812 1131.54 147.672 1132.25 147.672H1132.83C1135.19 147.672 1136.69 148.594 1137.34 150.438C1137.57 151.094 1137.69 151.77 1137.69 152.465V152.723C1137.69 153.59 1137.46 154.109 1137.01 154.281C1136.57 154.445 1135.53 154.527 1133.91 154.527C1132.29 154.527 1131.24 154.586 1130.75 154.703C1130.43 154.781 1130.27 154.973 1130.27 155.277C1130.27 155.941 1130.51 156.465 1130.99 156.848C1131.46 157.223 1132.08 157.41 1132.83 157.41C1133.58 157.41 1134.3 157.328 1135.01 157.164C1135.72 156.992 1136.14 156.906 1136.27 156.906ZM1150.22 156.719C1150.21 157.016 1150.21 157.48 1150.21 158.113C1150.21 158.738 1150.14 159.16 1150.02 159.379C1149.89 159.598 1149.47 159.707 1148.74 159.707C1148.02 159.707 1147.61 159.605 1147.51 159.402C1147.42 159.199 1147.37 158.621 1147.37 157.668L1147.34 156.32C1147.32 155.719 1147.31 155.113 1147.31 154.504C1147.31 152.855 1147.18 151.758 1146.93 151.211C1146.67 150.664 1146.27 150.391 1145.73 150.391C1144.7 150.391 1144.01 150.793 1143.67 151.598C1143.45 152.098 1143.34 153.402 1143.34 155.512C1143.34 157.621 1143.25 158.836 1143.06 159.156C1142.79 159.602 1142.27 159.824 1141.49 159.824C1141.21 159.824 1140.99 159.719 1140.83 159.508C1140.68 159.289 1140.61 158.77 1140.61 157.949L1140.62 157.492V155.16C1140.62 151.387 1140.68 149.32 1140.81 148.961C1140.94 148.594 1141.34 148.41 1142 148.41C1142.19 148.41 1142.46 148.492 1142.81 148.656C1143.16 148.82 1143.42 148.902 1143.57 148.902C1143.74 148.902 1144.14 148.777 1144.78 148.527C1145.43 148.277 1146.04 148.152 1146.61 148.152C1147.19 148.152 1147.89 148.344 1148.71 148.727C1149.54 149.109 1149.98 149.301 1150.03 149.301C1150.09 149.301 1150.29 149.203 1150.63 149.008L1151.38 148.574C1151.96 148.277 1152.61 148.129 1153.3 148.129C1154 148.129 1154.6 148.301 1155.11 148.645C1155.62 148.988 1156.02 149.43 1156.29 149.969C1156.71 150.812 1156.92 152.512 1156.92 155.066L1156.95 156.883L1156.98 158.219C1156.98 158.789 1156.91 159.211 1156.76 159.484C1156.61 159.75 1156.34 159.883 1155.95 159.883C1155.57 159.883 1155.22 159.789 1154.92 159.602C1154.62 159.414 1154.4 159.062 1154.25 158.547C1154.1 158.031 1154.03 156.902 1154.03 155.16C1154.03 153.41 1153.93 152.293 1153.72 151.809C1153.42 151.082 1152.88 150.719 1152.12 150.719C1151.35 150.719 1150.85 150.984 1150.61 151.516C1150.37 152.039 1150.25 153.039 1150.25 154.516L1150.23 156.273L1150.22 156.719ZM1162.15 155.465H1161.59C1161.11 155.465 1160.87 155.148 1160.87 154.516L1160.85 154.234C1160.85 154.141 1160.85 154.047 1160.85 153.953L1160.81 152.934C1160.81 152.84 1160.81 152.746 1160.81 152.652L1160.79 151.914V151.621L1160.78 151.316V151.023L1160.77 150.578V150.285L1160.75 149.98V149.688L1160.73 148.785C1160.73 148.582 1160.73 148.379 1160.73 148.176L1160.72 147.883V147.285L1160.71 146.992C1160.71 146.797 1160.71 146.602 1160.71 146.406L1160.7 146.113V144.977L1160.68 144.684C1160.68 144.066 1160.79 143.68 1161 143.523C1161.22 143.359 1161.66 143.277 1162.32 143.277H1162.46C1162.99 143.277 1163.31 143.344 1163.44 143.477C1163.56 143.609 1163.62 143.949 1163.62 144.496V144.637L1163.61 144.777L1163.52 147.086L1163.51 147.227L1163.46 148.27L1163.44 148.867C1163.41 149.273 1163.39 149.574 1163.39 149.77L1163.37 150.074L1163.33 150.965L1163.31 151.27L1163.26 152.301C1163.23 152.676 1163.21 152.965 1163.21 153.168L1163.19 153.461L1163.16 154.316C1163.16 154.777 1163.09 155.086 1162.97 155.242C1162.85 155.391 1162.58 155.465 1162.15 155.465ZM1161.77 160.281L1161.35 160.234C1160.74 160.234 1160.44 159.789 1160.44 158.898V158.559L1160.46 158.336L1160.5 158.066C1160.5 157.449 1160.94 157.141 1161.83 157.141H1162.22L1162.43 157.164L1162.7 157.199C1163.24 157.199 1163.51 157.512 1163.51 158.137C1163.52 158.215 1163.53 158.27 1163.53 158.301L1163.55 158.582V158.863L1163.54 158.922V159.027C1163.5 159.223 1163.48 159.348 1163.48 159.402C1163.48 159.949 1163.18 160.223 1162.58 160.223C1162.47 160.246 1162.4 160.258 1162.37 160.258L1162.1 160.281H1161.77ZM1168.11 163.316H1167.89C1167.23 163.316 1166.89 163.109 1166.89 162.695V162.496C1166.89 162.184 1167.21 161.57 1167.84 160.656C1168.48 159.742 1168.91 158.902 1169.12 158.137C1169.6 156.402 1169.84 154.52 1169.84 152.488C1169.84 150.457 1169.62 148.711 1169.18 147.25C1168.97 146.547 1168.56 145.707 1167.95 144.73C1167.35 143.746 1167.05 143.148 1167.05 142.938C1167.05 142.719 1167.16 142.516 1167.39 142.328C1167.62 142.141 1167.86 142.047 1168.11 142.047H1168.35C1168.76 142.047 1169.3 142.48 1169.95 143.348C1170.61 144.215 1171.12 145.137 1171.5 146.113C1172.17 147.855 1172.51 150.008 1172.51 152.57C1172.51 156.766 1171.54 160.004 1169.61 162.285C1169.04 162.973 1168.54 163.316 1168.11 163.316Z" fill="#BDBDBD"/>
<path d="M781.97 132.28H774.11L772.85 136H767.48L775.1 114.94H781.04L788.66 136H783.23L781.97 132.28ZM780.65 128.32L778.04 120.61L775.46 128.32H780.65ZM802.467 121.63C802.947 120.85 803.637 120.22 804.537 119.74C805.437 119.26 806.467 119.02 807.627 119.02C809.007 119.02 810.257 119.37 811.377 120.07C812.497 120.77 813.377 121.77 814.017 123.07C814.677 124.37 815.007 125.88 815.007 127.6C815.007 129.32 814.677 130.84 814.017 132.16C813.377 133.46 812.497 134.47 811.377 135.19C810.257 135.89 809.007 136.24 807.627 136.24C806.447 136.24 805.417 136.01 804.537 135.55C803.657 135.07 802.967 134.44 802.467 133.66V136H797.337V113.8H802.467V121.63ZM809.787 127.6C809.787 126.32 809.427 125.32 808.707 124.6C808.007 123.86 807.137 123.49 806.097 123.49C805.077 123.49 804.207 123.86 803.487 124.6C802.787 125.34 802.437 126.35 802.437 127.63C802.437 128.91 802.787 129.92 803.487 130.66C804.207 131.4 805.077 131.77 806.097 131.77C807.117 131.77 807.987 131.4 808.707 130.66C809.427 129.9 809.787 128.88 809.787 127.6ZM822.828 113.8V136H817.698V113.8H822.828ZM825.526 127.6C825.526 125.88 825.846 124.37 826.486 123.07C827.146 121.77 828.036 120.77 829.156 120.07C830.276 119.37 831.526 119.02 832.906 119.02C834.086 119.02 835.116 119.26 835.996 119.74C836.896 120.22 837.586 120.85 838.066 121.63V119.26H843.196V136H838.066V133.63C837.566 134.41 836.866 135.04 835.966 135.52C835.086 136 834.056 136.24 832.876 136.24C831.516 136.24 830.276 135.89 829.156 135.19C828.036 134.47 827.146 133.46 826.486 132.16C825.846 130.84 825.526 129.32 825.526 127.6ZM838.066 127.63C838.066 126.35 837.706 125.34 836.986 124.6C836.286 123.86 835.426 123.49 834.406 123.49C833.386 123.49 832.516 123.86 831.796 124.6C831.096 125.32 830.746 126.32 830.746 127.6C830.746 128.88 831.096 129.9 831.796 130.66C832.516 131.4 833.386 131.77 834.406 131.77C835.426 131.77 836.286 131.4 836.986 130.66C837.706 129.92 838.066 128.91 838.066 127.63ZM845.887 127.63C845.887 125.89 846.237 124.37 846.937 123.07C847.657 121.77 848.647 120.77 849.907 120.07C851.187 119.37 852.647 119.02 854.287 119.02C856.387 119.02 858.137 119.57 859.537 120.67C860.957 121.77 861.887 123.32 862.327 125.32H856.867C856.407 124.04 855.517 123.4 854.197 123.4C853.257 123.4 852.507 123.77 851.947 124.51C851.387 125.23 851.107 126.27 851.107 127.63C851.107 128.99 851.387 130.04 851.947 130.78C852.507 131.5 853.257 131.86 854.197 131.86C855.517 131.86 856.407 131.22 856.867 129.94H862.327C861.887 131.9 860.957 133.44 859.537 134.56C858.117 135.68 856.367 136.24 854.287 136.24C852.647 136.24 851.187 135.89 849.907 135.19C848.647 134.49 847.657 133.49 846.937 132.19C846.237 130.89 845.887 129.37 845.887 127.63ZM875.301 136L870.201 128.98V136H865.071V113.8H870.201V126.07L875.271 119.26H881.601L874.641 127.66L881.661 136H875.301ZM898.373 123.52H895.613V136H890.483V123.52H888.623V119.26H890.483V118.78C890.483 116.72 891.073 115.16 892.253 114.1C893.433 113.02 895.163 112.48 897.443 112.48C897.823 112.48 898.103 112.49 898.283 112.51V116.86C897.303 116.8 896.613 116.94 896.213 117.28C895.813 117.62 895.613 118.23 895.613 119.11V119.26H898.373V123.52ZM905.914 122.05C906.514 121.13 907.264 120.41 908.164 119.89C909.064 119.35 910.064 119.08 911.164 119.08V124.51H909.754C908.474 124.51 907.514 124.79 906.874 125.35C906.234 125.89 905.914 126.85 905.914 128.23V136H900.784V119.26H905.914V122.05ZM916.196 117.52C915.296 117.52 914.556 117.26 913.976 116.74C913.416 116.2 913.136 115.54 913.136 114.76C913.136 113.96 913.416 113.3 913.976 112.78C914.556 112.24 915.296 111.97 916.196 111.97C917.076 111.97 917.796 112.24 918.356 112.78C918.936 113.3 919.226 113.96 919.226 114.76C919.226 115.54 918.936 116.2 918.356 116.74C917.796 117.26 917.076 117.52 916.196 117.52ZM918.746 119.26V136H913.616V119.26H918.746ZM921.444 127.6C921.444 125.88 921.764 124.37 922.404 123.07C923.064 121.77 923.954 120.77 925.074 120.07C926.194 119.37 927.444 119.02 928.824 119.02C929.924 119.02 930.924 119.25 931.824 119.71C932.744 120.17 933.464 120.79 933.984 121.57V113.8H939.114V136H933.984V133.6C933.504 134.4 932.814 135.04 931.914 135.52C931.034 136 930.004 136.24 928.824 136.24C927.444 136.24 926.194 135.89 925.074 135.19C923.954 134.47 923.064 133.46 922.404 132.16C921.764 130.84 921.444 129.32 921.444 127.6ZM933.984 127.63C933.984 126.35 933.624 125.34 932.904 124.6C932.204 123.86 931.344 123.49 930.324 123.49C929.304 123.49 928.434 123.86 927.714 124.6C927.014 125.32 926.664 126.32 926.664 127.6C926.664 128.88 927.014 129.9 927.714 130.66C928.434 131.4 929.304 131.77 930.324 131.77C931.344 131.77 932.204 131.4 932.904 130.66C933.624 129.92 933.984 128.91 933.984 127.63ZM941.805 127.6C941.805 125.88 942.125 124.37 942.765 123.07C943.425 121.77 944.315 120.77 945.435 120.07C946.555 119.37 947.805 119.02 949.185 119.02C950.365 119.02 951.395 119.26 952.275 119.74C953.175 120.22 953.865 120.85 954.345 121.63V119.26H959.475V136H954.345V133.63C953.845 134.41 953.145 135.04 952.245 135.52C951.365 136 950.335 136.24 949.155 136.24C947.795 136.24 946.555 135.89 945.435 135.19C944.315 134.47 943.425 133.46 942.765 132.16C942.125 130.84 941.805 129.32 941.805 127.6ZM954.345 127.63C954.345 126.35 953.985 125.34 953.265 124.6C952.565 123.86 951.705 123.49 950.685 123.49C949.665 123.49 948.795 123.86 948.075 124.6C947.375 125.32 947.025 126.32 947.025 127.6C947.025 128.88 947.375 129.9 948.075 130.66C948.795 131.4 949.665 131.77 950.685 131.77C951.705 131.77 952.565 131.4 953.265 130.66C953.985 129.92 954.345 128.91 954.345 127.63ZM980.286 119.26L969.786 143.95H964.266L968.106 135.43L961.296 119.26H967.026L970.896 129.73L974.736 119.26H980.286ZM1004.28 127.36C1004.28 127.84 1004.25 128.34 1004.19 128.86H992.579C992.659 129.9 992.989 130.7 993.569 131.26C994.169 131.8 994.899 132.07 995.759 132.07C997.039 132.07 997.929 131.53 998.429 130.45H1003.89C1003.61 131.55 1003.1 132.54 1002.36 133.42C1001.64 134.3 1000.73 134.99 999.629 135.49C998.529 135.99 997.299 136.24 995.939 136.24C994.299 136.24 992.839 135.89 991.559 135.19C990.279 134.49 989.279 133.49 988.559 132.19C987.839 130.89 987.479 129.37 987.479 127.63C987.479 125.89 987.829 124.37 988.529 123.07C989.249 121.77 990.249 120.77 991.529 120.07C992.809 119.37 994.279 119.02 995.939 119.02C997.559 119.02 998.999 119.36 1000.26 120.04C1001.52 120.72 1002.5 121.69 1003.2 122.95C1003.92 124.21 1004.28 125.68 1004.28 127.36ZM999.029 126.01C999.029 125.13 998.729 124.43 998.129 123.91C997.529 123.39 996.779 123.13 995.879 123.13C995.019 123.13 994.289 123.38 993.689 123.88C993.109 124.38 992.749 125.09 992.609 126.01H999.029ZM1013.8 136.24C1012.34 136.24 1011.04 135.99 1009.9 135.49C1008.76 134.99 1007.86 134.31 1007.2 133.45C1006.54 132.57 1006.17 131.59 1006.09 130.51H1011.16C1011.22 131.09 1011.49 131.56 1011.97 131.92C1012.45 132.28 1013.04 132.46 1013.74 132.46C1014.38 132.46 1014.87 132.34 1015.21 132.1C1015.57 131.84 1015.75 131.51 1015.75 131.11C1015.75 130.63 1015.5 130.28 1015 130.06C1014.5 129.82 1013.69 129.56 1012.57 129.28C1011.37 129 1010.37 128.71 1009.57 128.41C1008.77 128.09 1008.08 127.6 1007.5 126.94C1006.92 126.26 1006.63 125.35 1006.63 124.21C1006.63 123.25 1006.89 122.38 1007.41 121.6C1007.95 120.8 1008.73 120.17 1009.75 119.71C1010.79 119.25 1012.02 119.02 1013.44 119.02C1015.54 119.02 1017.19 119.54 1018.39 120.58C1019.61 121.62 1020.31 123 1020.49 124.72H1015.75C1015.67 124.14 1015.41 123.68 1014.97 123.34C1014.55 123 1013.99 122.83 1013.29 122.83C1012.69 122.83 1012.23 122.95 1011.91 123.19C1011.59 123.41 1011.43 123.72 1011.43 124.12C1011.43 124.6 1011.68 124.96 1012.18 125.2C1012.7 125.44 1013.5 125.68 1014.58 125.92C1015.82 126.24 1016.83 126.56 1017.61 126.88C1018.39 127.18 1019.07 127.68 1019.65 128.38C1020.25 129.06 1020.56 129.98 1020.58 131.14C1020.58 132.12 1020.3 133 1019.74 133.78C1019.2 134.54 1018.41 135.14 1017.37 135.58C1016.35 136.02 1015.16 136.24 1013.8 136.24ZM1033.04 131.65V136H1030.43C1028.57 136 1027.12 135.55 1026.08 134.65C1025.04 133.73 1024.52 132.24 1024.52 130.18V123.52H1022.48V119.26H1024.52V115.18H1029.65V119.26H1033.01V123.52H1029.65V130.24C1029.65 130.74 1029.77 131.1 1030.01 131.32C1030.25 131.54 1030.65 131.65 1031.21 131.65H1033.04ZM1034.88 127.6C1034.88 125.88 1035.2 124.37 1035.84 123.07C1036.5 121.77 1037.39 120.77 1038.51 120.07C1039.63 119.37 1040.88 119.02 1042.26 119.02C1043.44 119.02 1044.47 119.26 1045.35 119.74C1046.25 120.22 1046.94 120.85 1047.42 121.63V119.26H1052.55V136H1047.42V133.63C1046.92 134.41 1046.22 135.04 1045.32 135.52C1044.44 136 1043.41 136.24 1042.23 136.24C1040.87 136.24 1039.63 135.89 1038.51 135.19C1037.39 134.47 1036.5 133.46 1035.84 132.16C1035.2 130.84 1034.88 129.32 1034.88 127.6ZM1047.42 127.63C1047.42 126.35 1047.06 125.34 1046.34 124.6C1045.64 123.86 1044.78 123.49 1043.76 123.49C1042.74 123.49 1041.87 123.86 1041.15 124.6C1040.45 125.32 1040.1 126.32 1040.1 127.6C1040.1 128.88 1040.45 129.9 1041.15 130.66C1041.87 131.4 1042.74 131.77 1043.76 131.77C1044.78 131.77 1045.64 131.4 1046.34 130.66C1047.06 129.92 1047.42 128.91 1047.42 127.63ZM1047.81 115.09L1040.58 118.12V114.58L1047.81 111.1V115.09ZM1061.6 127.63C1061.6 125.89 1061.95 124.37 1062.65 123.07C1063.37 121.77 1064.36 120.77 1065.62 120.07C1066.9 119.37 1068.36 119.02 1070 119.02C1072.1 119.02 1073.85 119.57 1075.25 120.67C1076.67 121.77 1077.6 123.32 1078.04 125.32H1072.58C1072.12 124.04 1071.23 123.4 1069.91 123.4C1068.97 123.4 1068.22 123.77 1067.66 124.51C1067.1 125.23 1066.82 126.27 1066.82 127.63C1066.82 128.99 1067.1 130.04 1067.66 130.78C1068.22 131.5 1068.97 131.86 1069.91 131.86C1071.23 131.86 1072.12 131.22 1072.58 129.94H1078.04C1077.6 131.9 1076.67 133.44 1075.25 134.56C1073.83 135.68 1072.08 136.24 1070 136.24C1068.36 136.24 1066.9 135.89 1065.62 135.19C1064.36 134.49 1063.37 133.49 1062.65 132.19C1061.95 130.89 1061.6 129.37 1061.6 127.63ZM1091.07 119.08C1092.99 119.08 1094.53 119.72 1095.69 121C1096.85 122.26 1097.43 124 1097.43 126.22V136H1092.33V126.91C1092.33 125.79 1092.04 124.92 1091.46 124.3C1090.88 123.68 1090.1 123.37 1089.12 123.37C1088.14 123.37 1087.36 123.68 1086.78 124.3C1086.2 124.92 1085.91 125.79 1085.91 126.91V136H1080.78V113.8H1085.91V121.51C1086.43 120.77 1087.14 120.18 1088.04 119.74C1088.94 119.3 1089.95 119.08 1091.07 119.08ZM1116.78 127.36C1116.78 127.84 1116.75 128.34 1116.69 128.86H1105.08C1105.16 129.9 1105.49 130.7 1106.07 131.26C1106.67 131.8 1107.4 132.07 1108.26 132.07C1109.54 132.07 1110.43 131.53 1110.93 130.45H1116.39C1116.11 131.55 1115.6 132.54 1114.86 133.42C1114.14 134.3 1113.23 134.99 1112.13 135.49C1111.03 135.99 1109.8 136.24 1108.44 136.24C1106.8 136.24 1105.34 135.89 1104.06 135.19C1102.78 134.49 1101.78 133.49 1101.06 132.19C1100.34 130.89 1099.98 129.37 1099.98 127.63C1099.98 125.89 1100.33 124.37 1101.03 123.07C1101.75 121.77 1102.75 120.77 1104.03 120.07C1105.31 119.37 1106.78 119.02 1108.44 119.02C1110.06 119.02 1111.5 119.36 1112.76 120.04C1114.02 120.72 1115 121.69 1115.7 122.95C1116.42 124.21 1116.78 125.68 1116.78 127.36ZM1111.53 126.01C1111.53 125.13 1111.23 124.43 1110.63 123.91C1110.03 123.39 1109.28 123.13 1108.38 123.13C1107.52 123.13 1106.79 123.38 1106.19 123.88C1105.61 124.38 1105.25 125.09 1105.11 126.01H1111.53ZM1125.85 119.02C1127.03 119.02 1128.06 119.26 1128.94 119.74C1129.84 120.22 1130.53 120.85 1131.01 121.63V119.26H1136.14V135.97C1136.14 137.51 1135.83 138.9 1135.21 140.14C1134.61 141.4 1133.68 142.4 1132.42 143.14C1131.18 143.88 1129.63 144.25 1127.77 144.25C1125.29 144.25 1123.28 143.66 1121.74 142.48C1120.2 141.32 1119.32 139.74 1119.1 137.74H1124.17C1124.33 138.38 1124.71 138.88 1125.31 139.24C1125.91 139.62 1126.65 139.81 1127.53 139.81C1128.59 139.81 1129.43 139.5 1130.05 138.88C1130.69 138.28 1131.01 137.31 1131.01 135.97V133.6C1130.51 134.38 1129.82 135.02 1128.94 135.52C1128.06 136 1127.03 136.24 1125.85 136.24C1124.47 136.24 1123.22 135.89 1122.1 135.19C1120.98 134.47 1120.09 133.46 1119.43 132.16C1118.79 130.84 1118.47 129.32 1118.47 127.6C1118.47 125.88 1118.79 124.37 1119.43 123.07C1120.09 121.77 1120.98 120.77 1122.1 120.07C1123.22 119.37 1124.47 119.02 1125.85 119.02ZM1131.01 127.63C1131.01 126.35 1130.65 125.34 1129.93 124.6C1129.23 123.86 1128.37 123.49 1127.35 123.49C1126.33 123.49 1125.46 123.86 1124.74 124.6C1124.04 125.32 1123.69 126.32 1123.69 127.6C1123.69 128.88 1124.04 129.9 1124.74 130.66C1125.46 131.4 1126.33 131.77 1127.35 131.77C1128.37 131.77 1129.23 131.4 1129.93 130.66C1130.65 129.92 1131.01 128.91 1131.01 127.63ZM1138.83 127.6C1138.83 125.88 1139.15 124.37 1139.79 123.07C1140.45 121.77 1141.34 120.77 1142.46 120.07C1143.58 119.37 1144.83 119.02 1146.21 119.02C1147.39 119.02 1148.42 119.26 1149.3 119.74C1150.2 120.22 1150.89 120.85 1151.37 121.63V119.26H1156.5V136H1151.37V133.63C1150.87 134.41 1150.17 135.04 1149.27 135.52C1148.39 136 1147.36 136.24 1146.18 136.24C1144.82 136.24 1143.58 135.89 1142.46 135.19C1141.34 134.47 1140.45 133.46 1139.79 132.16C1139.15 130.84 1138.83 129.32 1138.83 127.6ZM1151.37 127.63C1151.37 126.35 1151.01 125.34 1150.29 124.6C1149.59 123.86 1148.73 123.49 1147.71 123.49C1146.69 123.49 1145.82 123.86 1145.1 124.6C1144.4 125.32 1144.05 126.32 1144.05 127.6C1144.05 128.88 1144.4 129.9 1145.1 130.66C1145.82 131.4 1146.69 131.77 1147.71 131.77C1148.73 131.77 1149.59 131.4 1150.29 130.66C1151.01 129.92 1151.37 128.91 1151.37 127.63ZM1170.41 119.08C1172.37 119.08 1173.93 119.72 1175.09 121C1176.27 122.26 1176.86 124 1176.86 126.22V136H1171.76V126.91C1171.76 125.79 1171.47 124.92 1170.89 124.3C1170.31 123.68 1169.53 123.37 1168.55 123.37C1167.57 123.37 1166.79 123.68 1166.21 124.3C1165.63 124.92 1165.34 125.79 1165.34 126.91V136H1160.21V119.26H1165.34V121.48C1165.86 120.74 1166.56 120.16 1167.44 119.74C1168.32 119.3 1169.31 119.08 1170.41 119.08ZM1179.4 127.6C1179.4 125.88 1179.72 124.37 1180.36 123.07C1181.02 121.77 1181.91 120.77 1183.03 120.07C1184.15 119.37 1185.4 119.02 1186.78 119.02C1187.88 119.02 1188.88 119.25 1189.78 119.71C1190.7 120.17 1191.42 120.79 1191.94 121.57V113.8H1197.07V136H1191.94V133.6C1191.46 134.4 1190.77 135.04 1189.87 135.52C1188.99 136 1187.96 136.24 1186.78 136.24C1185.4 136.24 1184.15 135.89 1183.03 135.19C1181.91 134.47 1181.02 133.46 1180.36 132.16C1179.72 130.84 1179.4 129.32 1179.4 127.6ZM1191.94 127.63C1191.94 126.35 1191.58 125.34 1190.86 124.6C1190.16 123.86 1189.3 123.49 1188.28 123.49C1187.26 123.49 1186.39 123.86 1185.67 124.6C1184.97 125.32 1184.62 126.32 1184.62 127.6C1184.62 128.88 1184.97 129.9 1185.67 130.66C1186.39 131.4 1187.26 131.77 1188.28 131.77C1189.3 131.77 1190.16 131.4 1190.86 130.66C1191.58 129.92 1191.94 128.91 1191.94 127.63ZM1208.4 136.24C1206.76 136.24 1205.28 135.89 1203.96 135.19C1202.66 134.49 1201.63 133.49 1200.87 132.19C1200.13 130.89 1199.76 129.37 1199.76 127.63C1199.76 125.91 1200.14 124.4 1200.9 123.1C1201.66 121.78 1202.7 120.77 1204.02 120.07C1205.34 119.37 1206.82 119.02 1208.46 119.02C1210.1 119.02 1211.58 119.37 1212.9 120.07C1214.22 120.77 1215.26 121.78 1216.02 123.1C1216.78 124.4 1217.16 125.91 1217.16 127.63C1217.16 129.35 1216.77 130.87 1215.99 132.19C1215.23 133.49 1214.18 134.49 1212.84 135.19C1211.52 135.89 1210.04 136.24 1208.4 136.24ZM1208.4 131.8C1209.38 131.8 1210.21 131.44 1210.89 130.72C1211.59 130 1211.94 128.97 1211.94 127.63C1211.94 126.29 1211.6 125.26 1210.92 124.54C1210.26 123.82 1209.44 123.46 1208.46 123.46C1207.46 123.46 1206.63 123.82 1205.97 124.54C1205.31 125.24 1204.98 126.27 1204.98 127.63C1204.98 128.97 1205.3 130 1205.94 130.72C1206.6 131.44 1207.42 131.8 1208.4 131.8ZM1226.64 114.19L1226.04 128.56H1221.69L1221.09 114.19H1226.64ZM1223.94 136.24C1223.04 136.24 1222.3 135.98 1221.72 135.46C1221.16 134.92 1220.88 134.26 1220.88 133.48C1220.88 132.68 1221.16 132.01 1221.72 131.47C1222.3 130.93 1223.04 130.66 1223.94 130.66C1224.82 130.66 1225.54 130.93 1226.1 131.47C1226.68 132.01 1226.97 132.68 1226.97 133.48C1226.97 134.26 1226.68 134.92 1226.1 135.46C1225.54 135.98 1224.82 136.24 1223.94 136.24Z" fill="#E8E8E8"/>
<path d="M696.999 94.4997C680.499 47.9997 640 49.9998 612.5 60.9998C596 70.0002 609.634 83.9035 624.497 86.9997C648.499 91.9997 651.999 99.9997 668.997 113.5C690.889 130.887 698.499 104.166 696.999 94.4997Z" fill="#403636"/>
<path d="M92.5 169C89.6496 166.15 83 153 83 144.5C70.5 169 79.5 180.5 87 182.5C94.5 184.5 98.5 175 92.5 169Z" fill="#403636"/>
<path d="M411.907 169C414.758 166.15 421.407 153 421.407 144.5C433.907 169 424.907 180.5 417.407 182.5C409.907 184.5 405.907 175 411.907 169Z" fill="#403636"/>
<path d="M212 92.9997C217.001 98.9996 227 119.5 215.5 151C214.334 146.833 208.7 135.699 195.5 124.499C179 110.499 172.5 102 178 92.9997C183.5 83.9997 201 79.7999 212 92.9997Z" fill="#403636"/>
<path d="M295.816 92.9997C290.816 98.9996 280.816 119.5 292.316 151C293.483 146.833 299.116 135.699 312.316 124.499C328.816 110.499 335.316 102 329.816 92.9997C324.316 83.9997 306.816 79.7999 295.816 92.9997Z" fill="#403636"/>
<path fill-rule="evenodd" clip-rule="evenodd" d="M619 218C617.491 220.499 616.65 221.909 619 225H621.5L625.5 231H660L663.5 225H666.5C667.917 221.891 667.846 220.384 666.5 218C667.521 214.938 667.24 213.494 666.5 211C667.457 208.133 667.313 206.76 666.5 204C667.934 201.269 668.326 199.729 666.5 197H642.75H619C617.937 199.481 617.781 200.971 619 204C617.065 206.827 617.219 208.352 619 211C617.613 213.813 617.034 215.377 619 218Z" fill="#E1D9BC"/>
<path d="M619 197C617.937 199.481 617.781 200.971 619 204M619 197H642.75H666.5M619 197C591.001 150.5 577.501 147.5 577.501 106C577.501 65 603.5 42.5 642.75 42.5C679.5 42.5 708 65 708 106C708 147.5 694.5 150.5 666.5 197M666.5 197C668.326 199.729 667.934 201.269 666.5 204M619 211C617.613 213.813 617.034 215.377 619 218M619 211C617.219 208.352 617.065 206.827 619 204M619 211H666.5M619 218C617.491 220.499 616.65 221.909 619 225H621.5M619 218H666.5M666.5 218C667.846 220.384 667.917 221.891 666.5 225H663.5M666.5 218C667.521 214.938 667.24 213.494 666.5 211M619 204H666.5M666.5 204C667.313 206.76 667.457 208.133 666.5 211M621.5 225L625.5 231H660L663.5 225M621.5 225H663.5" stroke="#FFD601" stroke-width="6" stroke-linejoin="round"/>
<path d="M630.488 197.652C631.418 197.032 631.793 195.995 632.149 195.142C632.858 193.441 633.352 191.628 633.825 189.897C634.435 187.665 634.731 185.444 634.516 183.226C634.147 179.425 633.385 175.471 631.608 172.015C630.293 169.457 628.18 166.878 624.769 165.849C623.303 165.406 622.215 165.385 620.929 166.313C617.905 168.496 618.534 171.22 620.363 173.464C622.483 176.064 625.579 177.78 629.811 177.779C632.029 177.778 634.283 177.321 636.314 176.437C639.444 175.075 640.889 172.687 640.801 170.05C640.735 168.047 639.858 166.308 638.481 164.736C638.077 164.274 636.821 162.777 635.715 162.835C633.666 162.942 632.436 166.193 632.131 167.284C630.824 171.965 633.392 178.085 639.548 179.349C641.585 179.768 644.011 179.8 646.115 179.146C649.449 178.111 651.35 174.961 652.035 172.453C652.796 169.669 652.891 165.827 650.51 163.717C649.5 162.821 647.383 162.104 645.932 163.187C644.169 164.504 643.934 166.883 643.939 168.552C643.945 170.786 644.575 173.015 645.744 174.964C646.585 176.366 647.711 177.872 649.402 178.721C651.136 179.59 653.611 179.174 655.562 178.57C657.999 177.816 659.711 176.377 661.152 174.688C662.838 172.712 664.482 170.287 664.039 167.968C663.778 166.598 662.259 165.837 660.492 165.939C658.316 166.063 657.053 167.519 656.221 168.973C654.649 171.718 653.529 174.653 652.382 177.488C651.162 180.503 650.849 183.196 651.156 186.244C651.488 189.534 651.823 193.327 654.62 195.769" stroke="#FFD601" stroke-width="4" stroke-linecap="round"/>
<path d="M82.9727 84.3701C175.793 110.325 203.114 131.769 203.701 167.687C91.8682 206.236 77.769 122.012 82.9727 84.3701Z" fill="#BDBDBD"/>
<path fill-rule="evenodd" clip-rule="evenodd" d="M141.574 167.693C164.503 173.088 187.289 161.231 195.248 140.771L193.652 136.286L183.574 126.724L160.813 112.123L136.048 101.673L122.995 96.0209L116.668 94.5321C111.819 99.8202 108.242 106.329 106.502 113.726C100.873 137.65 116.575 161.812 141.574 167.693Z" fill="#D08D0A"/>
<path d="M116.668 94.5321C111.819 99.8202 108.242 106.329 106.502 113.726C105.778 116.804 105.407 119.887 105.363 122.933C120.903 120.197 140.114 123.689 149.16 128.9C154.859 132.183 170.497 145.188 174.931 163.455C184.067 158.564 191.395 150.675 195.248 140.771L193.652 136.286L183.574 126.724L160.813 112.123L136.048 101.673L122.995 96.0209L116.668 94.5321Z" fill="url(#paint0_linear_2487_6210)"/>
<path d="M82.9727 84.3701C175.793 110.325 203.114 131.769 203.701 167.687C91.8682 206.236 77.769 122.012 82.9727 84.3701Z" stroke="#201919" stroke-width="3" stroke-linejoin="round"/>
<path d="M172.837 148.34L191.618 155.841L181.369 168.839L169.43 156.27L172.837 148.34Z" fill="#E8E8E8"/>
<path d="M167.998 157.989L170.976 171.531L161.528 172.39L165.622 161.539L167.998 157.989Z" fill="#E8E8E8"/>
<circle cx="148.96" cy="131.935" r="19.5" transform="rotate(13.2402 148.96 131.935)" fill="#C9680F"/>
<circle cx="148.959" cy="131.936" r="12.5" transform="rotate(13.2402 148.959 131.936)" fill="#AF4F0C"/>
<path d="M424.844 84.3701C332.024 110.325 304.703 131.769 304.116 167.687C415.948 206.236 430.047 122.012 424.844 84.3701Z" fill="#BDBDBD"/>
<path fill-rule="evenodd" clip-rule="evenodd" d="M366.243 167.693C343.314 173.088 320.528 161.231 312.569 140.771L314.165 136.286L324.243 126.724L347.004 112.123L371.768 101.673L384.821 96.0209L391.148 94.5321C395.998 99.8202 399.574 106.329 401.314 113.726C406.943 137.65 391.241 161.812 366.243 167.693Z" fill="#D08D0A"/>
<path d="M391.148 94.5321C395.998 99.8202 399.574 106.329 401.314 113.726C402.039 116.804 402.41 119.887 402.453 122.933C386.914 120.197 367.703 123.689 358.656 128.9C352.957 132.183 337.319 145.188 332.885 163.455C323.749 158.564 316.422 150.675 312.569 140.771L314.165 136.286L324.243 126.724L347.004 112.123L371.768 101.673L384.821 96.0209L391.148 94.5321Z" fill="url(#paint1_linear_2487_6210)"/>
<path d="M424.844 84.3701C332.024 110.325 304.703 131.769 304.116 167.687C415.948 206.236 430.047 122.012 424.844 84.3701Z" stroke="#201919" stroke-width="3" stroke-linejoin="round"/>
<path d="M334.979 148.34L316.198 155.841L326.447 168.839L338.386 156.27L334.979 148.34Z" fill="#E8E8E8"/>
<path d="M339.818 157.989L336.84 171.531L346.288 172.39L342.194 161.539L339.818 157.989Z" fill="#E8E8E8"/>
<circle cx="19.5" cy="19.5" r="19.5" transform="matrix(-0.973418 0.229034 0.229034 0.973418 373.372 108.487)" fill="#C9680F"/>
<circle cx="12.5" cy="12.5" r="12.5" transform="matrix(-0.973418 0.229034 0.229034 0.973418 368.162 116.905)" fill="#AF4F0C"/>
</g>
<defs>
<linearGradient id="paint0_linear_2487_6210" x1="134.903" y1="141.469" x2="158.751" y2="77.2232" gradientUnits="userSpaceOnUse">
<stop stop-color="#C9680F"/>
<stop offset="1" stop-color="#861A14"/>
</linearGradient>
<linearGradient id="paint1_linear_2487_6210" x1="372.914" y1="141.469" x2="349.065" y2="77.2232" gradientUnits="userSpaceOnUse">
<stop stop-color="#C9680F"/>
<stop offset="1" stop-color="#861A14"/>
</linearGradient>
</defs>
</svg>
