<svg width="1274" height="252" viewBox="0 0 1274 252" fill="none" xmlns="http://www.w3.org/2000/svg">
<mask id="mask0_2487_6210" style="mask-type:alpha" maskUnits="userSpaceOnUse" x="0" y="0" width="1274" height="252">
<rect width="1274" height="252" rx="10" fill="#DFEAFF"/>
</mask>
<g mask="url(#mask0_2487_6210)">
<rect x="-53" y="-21" width="1344" height="293" fill="#2C2525"/>
<path d="M467.117 74.0469H467.352C467.625 74.0469 467.859 74.125 468.055 74.2812C468.25 74.4375 468.348 74.5703 468.348 74.6797V74.8789C468.348 75.1055 468.027 75.7148 467.387 76.707C466.746 77.6992 466.305 78.6328 466.062 79.5078C465.641 81.0391 465.43 82.7734 465.43 84.7109C465.43 84.8828 465.43 85.0547 465.43 85.2266L465.441 85.4844C465.449 85.6562 465.453 85.8242 465.453 85.9883C465.453 87.5352 465.715 89.0742 466.238 90.6055C466.441 91.1914 466.828 91.8945 467.398 92.7148C467.977 93.543 468.266 94.1406 468.266 94.5078C468.266 94.6875 468.129 94.8672 467.855 95.0469C467.59 95.2266 467.34 95.3164 467.105 95.3164H466.883C466.43 95.3164 465.891 94.9062 465.266 94.0859C463.562 91.8438 462.711 88.6719 462.711 84.5703C462.711 80.4688 463.668 77.293 465.582 75.043C466.145 74.3789 466.656 74.0469 467.117 74.0469ZM477.793 84.3594V84.1602C477.793 83.543 477.586 83.0547 477.172 82.6953C476.758 82.3359 476.262 82.1562 475.684 82.1562H475.391C474.711 82.1562 474.141 82.3867 473.68 82.8477C473.219 83.3086 472.988 83.8711 472.988 84.5352V84.7227C472.988 84.9336 473.242 85.0391 473.75 85.0391H474.348L474.418 85.0273L476.902 84.9102L477.16 84.8867C477.582 84.8867 477.793 84.7109 477.793 84.3594ZM476.832 86.9141C474.309 86.9141 473.047 87.1797 473.047 87.7109C473.047 88.3828 473.293 88.9141 473.785 89.3047C474.277 89.6953 474.898 89.8906 475.648 89.8906C476.398 89.8906 477.121 89.793 477.816 89.5977C478.512 89.3945 478.98 89.293 479.223 89.293C479.473 89.293 479.68 89.3945 479.844 89.5977C480.016 89.793 480.102 90.0898 480.102 90.4883C480.102 90.8789 479.672 91.2773 478.812 91.6836C477.961 92.0898 477.082 92.293 476.176 92.293H475.32C474.648 92.293 473.938 92.1562 473.188 91.8828C471.719 91.3516 470.77 90.3828 470.34 88.9766C470.098 88.1953 469.977 87.4062 469.977 86.6094V86.0469C469.977 83.1875 470.984 81.3281 473 80.4688C473.75 80.1484 474.602 79.9883 475.555 79.9883C477.172 79.9883 478.402 80.3945 479.246 81.207C479.605 81.5586 479.91 82.0586 480.16 82.707C480.418 83.3555 480.547 83.9531 480.547 84.5V85.2852C480.547 85.957 480.305 86.3984 479.82 86.6094C479.344 86.8125 478.348 86.9141 476.832 86.9141ZM499.742 88.7188C499.734 89.0156 499.73 89.4805 499.73 90.1133C499.73 90.7383 499.668 91.1602 499.543 91.3789C499.418 91.5977 498.992 91.707 498.266 91.707C497.547 91.707 497.137 91.6055 497.035 91.4023C496.941 91.1992 496.895 90.6211 496.895 89.668L496.859 88.3203C496.844 87.7188 496.836 87.1133 496.836 86.5039C496.836 84.8555 496.707 83.7578 496.449 83.2109C496.191 82.6641 495.793 82.3906 495.254 82.3906C494.223 82.3906 493.535 82.793 493.191 83.5977C492.973 84.0977 492.863 85.4023 492.863 87.5117C492.863 89.6211 492.77 90.8359 492.582 91.1562C492.316 91.6016 491.793 91.8242 491.012 91.8242C490.73 91.8242 490.512 91.7188 490.355 91.5078C490.207 91.2891 490.133 90.7695 490.133 89.9492L490.145 89.4922V87.1602C490.145 83.3867 490.207 81.3203 490.332 80.9609C490.465 80.5938 490.863 80.4102 491.527 80.4102C491.715 80.4102 491.984 80.4922 492.336 80.6562C492.688 80.8203 492.941 80.9023 493.098 80.9023C493.262 80.9023 493.664 80.7773 494.305 80.5273C494.953 80.2773 495.562 80.1523 496.133 80.1523C496.711 80.1523 497.41 80.3438 498.23 80.7266C499.059 81.1094 499.5 81.3008 499.555 81.3008C499.609 81.3008 499.809 81.2031 500.152 81.0078L500.902 80.5742C501.488 80.2773 502.129 80.1289 502.824 80.1289C503.52 80.1289 504.121 80.3008 504.629 80.6445C505.145 80.9883 505.539 81.4297 505.812 81.9688C506.234 82.8125 506.445 84.5117 506.445 87.0664L506.469 88.8828L506.504 90.2188C506.504 90.7891 506.43 91.2109 506.281 91.4844C506.133 91.75 505.863 91.8828 505.473 91.8828C505.09 91.8828 504.746 91.7891 504.441 91.6016C504.145 91.4141 503.922 91.0625 503.773 90.5469C503.625 90.0312 503.551 88.9023 503.551 87.1602C503.551 85.4102 503.449 84.293 503.246 83.8086C502.941 83.082 502.406 82.7188 501.641 82.7188C500.875 82.7188 500.371 82.9844 500.129 83.5156C499.895 84.0391 499.777 85.0391 499.777 86.5156L499.754 88.2734L499.742 88.7188ZM519.852 89.9492C519.852 90.7148 519.707 91.2109 519.418 91.4375C519.137 91.6641 518.789 91.7773 518.375 91.7773C517.969 91.7773 517.684 91.7383 517.52 91.6602C517.355 91.582 517.199 91.4688 517.051 91.3203C516.91 91.1641 516.824 91.0859 516.793 91.0859C516.762 91.0859 516.367 91.2422 515.609 91.5547C514.852 91.8672 514.094 92.0234 513.336 92.0234C512.586 92.0234 511.914 91.8672 511.32 91.5547C510.211 90.9609 509.574 89.832 509.41 88.168C509.363 87.6602 509.34 86.1836 509.34 83.7383L509.305 81.2891V80.9961C509.305 80.457 509.664 80.1875 510.383 80.1875H510.664C511.383 80.1875 511.844 80.4844 512.047 81.0781C512.125 81.3047 512.164 82.5195 512.164 84.7227C512.164 86.918 512.262 88.2539 512.457 88.7305C512.762 89.4805 513.344 89.8555 514.203 89.8555C514.719 89.8555 515.164 89.7344 515.539 89.4922C515.922 89.2422 516.199 88.9492 516.371 88.6133C516.676 88.0352 516.828 86.9453 516.828 85.3438L516.852 84.7344L516.863 83.8086C516.863 82.2852 516.945 81.3555 517.109 81.0195C517.328 80.5742 517.867 80.3516 518.727 80.3516C519.148 80.3516 519.422 80.5898 519.547 81.0664C519.617 81.332 519.652 82.125 519.652 83.4453L519.852 89.3516V89.9492ZM533.258 89.9492C533.258 90.7148 533.113 91.2109 532.824 91.4375C532.543 91.6641 532.195 91.7773 531.781 91.7773C531.375 91.7773 531.09 91.7383 530.926 91.6602C530.762 91.582 530.605 91.4688 530.457 91.3203C530.316 91.1641 530.23 91.0859 530.199 91.0859C530.168 91.0859 529.773 91.2422 529.016 91.5547C528.258 91.8672 527.5 92.0234 526.742 92.0234C525.992 92.0234 525.32 91.8672 524.727 91.5547C523.617 90.9609 522.98 89.832 522.816 88.168C522.77 87.6602 522.746 86.1836 522.746 83.7383L522.711 81.2891V80.9961C522.711 80.457 523.07 80.1875 523.789 80.1875H524.07C524.789 80.1875 525.25 80.4844 525.453 81.0781C525.531 81.3047 525.57 82.5195 525.57 84.7227C525.57 86.918 525.668 88.2539 525.863 88.7305C526.168 89.4805 526.75 89.8555 527.609 89.8555C528.125 89.8555 528.57 89.7344 528.945 89.4922C529.328 89.2422 529.605 88.9492 529.777 88.6133C530.082 88.0352 530.234 86.9453 530.234 85.3438L530.258 84.7344L530.27 83.8086C530.27 82.2852 530.352 81.3555 530.516 81.0195C530.734 80.5742 531.273 80.3516 532.133 80.3516C532.555 80.3516 532.828 80.5898 532.953 81.0664C533.023 81.332 533.059 82.125 533.059 83.4453L533.258 89.3516V89.9492ZM546.664 89.9492C546.664 90.7148 546.52 91.2109 546.23 91.4375C545.949 91.6641 545.602 91.7773 545.188 91.7773C544.781 91.7773 544.496 91.7383 544.332 91.6602C544.168 91.582 544.012 91.4688 543.863 91.3203C543.723 91.1641 543.637 91.0859 543.605 91.0859C543.574 91.0859 543.18 91.2422 542.422 91.5547C541.664 91.8672 540.906 92.0234 540.148 92.0234C539.398 92.0234 538.727 91.8672 538.133 91.5547C537.023 90.9609 536.387 89.832 536.223 88.168C536.176 87.6602 536.152 86.1836 536.152 83.7383L536.117 81.2891V80.9961C536.117 80.457 536.477 80.1875 537.195 80.1875H537.477C538.195 80.1875 538.656 80.4844 538.859 81.0781C538.938 81.3047 538.977 82.5195 538.977 84.7227C538.977 86.918 539.074 88.2539 539.27 88.7305C539.574 89.4805 540.156 89.8555 541.016 89.8555C541.531 89.8555 541.977 89.7344 542.352 89.4922C542.734 89.2422 543.012 88.9492 543.184 88.6133C543.488 88.0352 543.641 86.9453 543.641 85.3438L543.664 84.7344L543.676 83.8086C543.676 82.2852 543.758 81.3555 543.922 81.0195C544.141 80.5742 544.68 80.3516 545.539 80.3516C545.961 80.3516 546.234 80.5898 546.359 81.0664C546.43 81.332 546.465 82.125 546.465 83.4453L546.664 89.3516V89.9492ZM549.816 76.543C549.84 76.4492 549.852 76.3125 549.852 76.1328C549.852 75.9531 549.945 75.7695 550.133 75.582C550.328 75.3867 550.613 75.2891 550.988 75.2891L551.305 75.2539H551.574L551.633 75.2656L551.996 75.3008C552.027 75.3086 552.062 75.3125 552.102 75.3125C552.664 75.3125 552.945 75.625 552.945 76.25L552.98 76.5781V76.8477L552.957 77.0703L552.922 77.3281C552.922 77.9531 552.406 78.2656 551.375 78.2656H551.27L551.211 78.2539L550.801 78.2188C550.762 78.2109 550.727 78.207 550.695 78.207C550.141 78.207 549.863 77.9258 549.863 77.3633C549.848 77.2852 549.84 77.2305 549.84 77.1992L549.816 76.9883V76.543ZM551.375 92.0469H551.07C550.5 92.0469 550.152 91.9688 550.027 91.8125C549.824 91.5547 549.723 91.1016 549.723 90.4531C549.723 89.8047 549.754 89.2266 549.816 88.7188C549.887 88.2109 549.922 87.9141 549.922 87.8281L549.934 87.5234C549.934 87.4219 549.934 87.3203 549.934 87.2188L549.945 86.9141V85.3555L549.957 84.8867V84.2656L549.945 83.7969C549.945 83.6953 549.945 83.5938 549.945 83.4922L549.934 83.1875L549.629 81.3125V81.0312C549.629 80.6562 549.707 80.4219 549.863 80.3281C550.027 80.2344 550.359 80.1875 550.859 80.1875H551.316C552.051 80.1875 552.484 80.3906 552.617 80.7969C552.688 81.0078 552.723 82.0352 552.723 83.8789C552.723 85.7227 552.734 86.7891 552.758 87.0781C552.781 87.3594 552.848 87.8164 552.957 88.4492C553.074 89.0742 553.133 89.5039 553.133 89.7383L553.156 90.0312V90.4648C553.156 91.1836 553.047 91.6289 552.828 91.8008C552.609 91.9648 552.125 92.0469 551.375 92.0469ZM562.812 90.9922C562.812 91.6875 562.102 92.0352 560.68 92.0352C559.258 92.0352 558.254 91.5508 557.668 90.582C557.223 89.832 557 88.3203 557 86.0469V85.543L556.977 84.8164L556.965 84.5703L556.953 83.832C556.953 83.2773 556.914 82.9219 556.836 82.7656C556.766 82.6016 556.531 82.4102 556.133 82.1914C555.742 81.9727 555.547 81.6875 555.547 81.3359V81.125C555.547 80.5156 555.77 80.1055 556.215 79.8945C556.66 79.6758 556.922 79.4727 557 79.2852C557.008 79.2617 557.07 78.918 557.188 78.2539C557.312 77.5898 557.453 77.1406 557.609 76.9062C557.773 76.6719 558.133 76.5547 558.688 76.5547C559.25 76.5547 559.605 76.7266 559.754 77.0703C559.809 77.1953 559.895 77.6055 560.012 78.3008C560.129 78.9961 560.262 79.4336 560.41 79.6133C560.559 79.7852 560.914 79.9258 561.477 80.0352C562.039 80.1445 562.391 80.2539 562.531 80.3633C562.68 80.4727 562.754 80.7383 562.754 81.1602C562.754 81.582 562.578 81.8711 562.227 82.0273C562.086 82.0898 561.754 82.1445 561.23 82.1914C560.707 82.2305 560.352 82.3555 560.164 82.5664C559.984 82.7773 559.895 83.5117 559.895 84.7695L559.883 85.0156C559.875 85.1797 559.871 85.3438 559.871 85.5078L559.859 85.7539V86.2578C559.859 87.8438 559.965 88.793 560.176 89.1055C560.395 89.418 560.773 89.6055 561.312 89.668C561.852 89.7305 562.234 89.8516 562.461 90.0312C562.695 90.2109 562.812 90.5312 562.812 90.9922ZM569.926 90.0312H570.406C571.258 90.0312 571.895 89.7031 572.316 89.0469C572.738 88.3906 572.949 87.5078 572.949 86.3984V85.7773C572.949 84.6445 572.723 83.7578 572.27 83.1172C571.824 82.4688 571.203 82.1445 570.406 82.1445H570.055C569.281 82.1445 568.66 82.4492 568.191 83.0586C567.73 83.6602 567.5 84.5273 567.5 85.6602V86.4102C567.5 87.5039 567.711 88.3828 568.133 89.0469C568.562 89.7031 569.16 90.0312 569.926 90.0312ZM575.82 85.4727V86.293C575.82 87.1211 575.691 87.9297 575.434 88.7188C575.184 89.5078 574.84 90.1445 574.402 90.6289C573.965 91.1055 573.395 91.5 572.691 91.8125C571.996 92.125 571.234 92.2812 570.406 92.2812H569.785C568.199 92.2812 566.914 91.7188 565.93 90.5938C565.07 89.6172 564.641 88.2539 564.641 86.5039V85.6836C564.641 84.8086 564.773 84 565.039 83.2578C565.312 82.5156 565.676 81.9062 566.129 81.4297C566.59 80.9531 567.18 80.582 567.898 80.3164C568.625 80.0508 569.418 79.918 570.277 79.918L570.488 79.9297C571.215 79.9297 571.914 80.0547 572.586 80.3047C573.984 80.8359 574.938 81.8008 575.445 83.1992C575.695 83.8789 575.82 84.6367 575.82 85.4727ZM578.152 83.293C578.152 81.8711 578.961 80.8672 580.578 80.2812C581.156 80.0625 581.789 79.9531 582.477 79.9531H582.793C583.832 79.9531 584.762 80.0977 585.582 80.3867C586.41 80.668 586.824 81.0234 586.824 81.4531C586.824 81.7891 586.734 82.082 586.555 82.332C586.383 82.582 586.207 82.707 586.027 82.707C585.855 82.707 585.402 82.6094 584.668 82.4141C583.934 82.2188 583.273 82.1211 582.688 82.1211C582.109 82.1211 581.66 82.2227 581.34 82.4258C581.02 82.6289 580.859 82.9219 580.859 83.3047C580.859 83.6875 581.109 84.0195 581.609 84.3008C581.82 84.418 582.215 84.5625 582.793 84.7344C584.496 85.2344 585.664 85.7617 586.297 86.3164C586.938 86.8633 587.258 87.5859 587.258 88.4844V88.7891C587.258 89.2578 587.145 89.7188 586.918 90.1719C586.691 90.625 586.383 90.9961 585.992 91.2852C585.164 91.9023 584.148 92.2109 582.945 92.2109H582.301C581.191 92.2109 580.199 92.0391 579.324 91.6953C578.449 91.3516 578.012 90.9609 578.012 90.5234C578.012 90.0859 578.164 89.7148 578.469 89.4102C578.578 89.3008 578.773 89.2461 579.055 89.2461C579.086 89.2461 579.555 89.3789 580.461 89.6445C581.383 89.9102 582.156 90.043 582.781 90.043C583.953 90.043 584.539 89.5508 584.539 88.5664C584.539 88.2148 584.246 87.8984 583.66 87.6172C583.402 87.4922 582.719 87.2578 581.609 86.9141C580.5 86.5625 579.734 86.2188 579.312 85.8828C578.898 85.5391 578.602 85.1719 578.422 84.7812C578.242 84.3906 578.152 83.8945 578.152 83.293ZM599 85.8945V86.2695C599 87.4492 599.176 88.3125 599.527 88.8594C599.996 89.5938 600.578 89.9609 601.273 89.9609H601.719C602.562 89.9609 603.199 89.6016 603.629 88.8828C603.879 88.4688 604.004 87.6602 604.004 86.457V85.1914C604.004 84.0586 603.855 83.3008 603.559 82.918C603.129 82.3633 602.496 82.0859 601.66 82.0859L601.543 82.0977C599.848 82.0977 599 83.3633 599 85.8945ZM606.957 90.4531C606.957 90.4531 606.957 90.4609 606.957 90.4766C606.957 91.375 606.484 91.8242 605.539 91.8242C605.102 91.8242 604.82 91.7852 604.695 91.707C604.578 91.6211 604.457 91.5039 604.332 91.3555C604.207 91.207 604.109 91.1328 604.039 91.1328C603.977 91.1328 603.812 91.2109 603.547 91.3672C602.711 91.8594 601.891 92.1055 601.086 92.1055H600.816C599.418 92.1055 598.312 91.6367 597.5 90.6992C596.688 89.7617 596.281 88.4375 596.281 86.7266V86.1523C596.281 85.2227 596.418 84.3164 596.691 83.4336C597.152 81.957 597.977 80.9297 599.164 80.3516C599.742 80.0703 600.328 79.9297 600.922 79.9297C601.516 79.9297 602.02 79.9805 602.434 80.082C602.848 80.1836 603.105 80.2344 603.207 80.2344C603.465 80.2344 603.637 80.0625 603.723 79.7188C603.902 79 603.992 78.1406 603.992 77.1406C603.992 76.1406 604.094 75.4922 604.297 75.1953C604.5 74.8984 604.805 74.75 605.211 74.75H605.703C606.25 74.75 606.594 74.8711 606.734 75.1133C606.812 75.2539 606.852 75.5781 606.852 76.0859L606.863 76.3555C606.871 76.5352 606.875 76.7578 606.875 77.0234V77.9609L606.887 78.7812V79.8711L606.898 80.1523V83.1641L606.91 83.7148V85.6602L606.945 87.8047V88.5898L606.957 89.6562V90.4531ZM617.152 84.3594V84.1602C617.152 83.543 616.945 83.0547 616.531 82.6953C616.117 82.3359 615.621 82.1562 615.043 82.1562H614.75C614.07 82.1562 613.5 82.3867 613.039 82.8477C612.578 83.3086 612.348 83.8711 612.348 84.5352V84.7227C612.348 84.9336 612.602 85.0391 613.109 85.0391H613.707L613.777 85.0273L616.262 84.9102L616.52 84.8867C616.941 84.8867 617.152 84.7109 617.152 84.3594ZM616.191 86.9141C613.668 86.9141 612.406 87.1797 612.406 87.7109C612.406 88.3828 612.652 88.9141 613.145 89.3047C613.637 89.6953 614.258 89.8906 615.008 89.8906C615.758 89.8906 616.48 89.793 617.176 89.5977C617.871 89.3945 618.34 89.293 618.582 89.293C618.832 89.293 619.039 89.3945 619.203 89.5977C619.375 89.793 619.461 90.0898 619.461 90.4883C619.461 90.8789 619.031 91.2773 618.172 91.6836C617.32 92.0898 616.441 92.293 615.535 92.293H614.68C614.008 92.293 613.297 92.1562 612.547 91.8828C611.078 91.3516 610.129 90.3828 609.699 88.9766C609.457 88.1953 609.336 87.4062 609.336 86.6094V86.0469C609.336 83.1875 610.344 81.3281 612.359 80.4688C613.109 80.1484 613.961 79.9883 614.914 79.9883C616.531 79.9883 617.762 80.3945 618.605 81.207C618.965 81.5586 619.27 82.0586 619.52 82.707C619.777 83.3555 619.906 83.9531 619.906 84.5V85.2852C619.906 85.957 619.664 86.3984 619.18 86.6094C618.703 86.8125 617.707 86.9141 616.191 86.9141ZM622.215 83.293C622.215 81.8711 623.023 80.8672 624.641 80.2812C625.219 80.0625 625.852 79.9531 626.539 79.9531H626.855C627.895 79.9531 628.824 80.0977 629.645 80.3867C630.473 80.668 630.887 81.0234 630.887 81.4531C630.887 81.7891 630.797 82.082 630.617 82.332C630.445 82.582 630.27 82.707 630.09 82.707C629.918 82.707 629.465 82.6094 628.73 82.4141C627.996 82.2188 627.336 82.1211 626.75 82.1211C626.172 82.1211 625.723 82.2227 625.402 82.4258C625.082 82.6289 624.922 82.9219 624.922 83.3047C624.922 83.6875 625.172 84.0195 625.672 84.3008C625.883 84.418 626.277 84.5625 626.855 84.7344C628.559 85.2344 629.727 85.7617 630.359 86.3164C631 86.8633 631.32 87.5859 631.32 88.4844V88.7891C631.32 89.2578 631.207 89.7188 630.98 90.1719C630.754 90.625 630.445 90.9961 630.055 91.2852C629.227 91.9023 628.211 92.2109 627.008 92.2109H626.363C625.254 92.2109 624.262 92.0391 623.387 91.6953C622.512 91.3516 622.074 90.9609 622.074 90.5234C622.074 90.0859 622.227 89.7148 622.531 89.4102C622.641 89.3008 622.836 89.2461 623.117 89.2461C623.148 89.2461 623.617 89.3789 624.523 89.6445C625.445 89.9102 626.219 90.043 626.844 90.043C628.016 90.043 628.602 89.5508 628.602 88.5664C628.602 88.2148 628.309 87.8984 627.723 87.6172C627.465 87.4922 626.781 87.2578 625.672 86.9141C624.562 86.5625 623.797 86.2188 623.375 85.8828C622.961 85.5391 622.664 85.1719 622.484 84.7812C622.305 84.3906 622.215 83.8945 622.215 83.293ZM642.805 81.7812C642.805 82.6328 642.434 83.0586 641.691 83.0586C641.48 83.0586 641.012 82.9531 640.285 82.7422C639.559 82.5312 638.988 82.4258 638.574 82.4258C637.738 82.4258 637.109 82.7812 636.688 83.4922C636.359 84.0469 636.195 84.9336 636.195 86.1523C636.195 87.3633 636.375 88.2422 636.734 88.7891C637.195 89.4922 637.934 89.8438 638.949 89.8438C639.434 89.8438 640.008 89.7461 640.672 89.5508C641.344 89.3555 641.801 89.2578 642.043 89.2578C642.293 89.2578 642.508 89.3438 642.688 89.5156C642.875 89.6797 642.969 89.9766 642.969 90.4062C642.969 90.8281 642.535 91.2344 641.668 91.625C640.801 92.0078 639.895 92.1992 638.949 92.1992H638.68C637.023 92.1992 635.719 91.707 634.766 90.7227C633.812 89.7383 633.332 88.3984 633.324 86.7031V85.8711C633.324 84.0117 633.824 82.5664 634.824 81.5352C635.824 80.5039 637.289 79.9883 639.219 79.9883H639.477C640.164 79.9883 640.812 80.1289 641.422 80.4102C642.344 80.832 642.805 81.2891 642.805 81.7812ZM649.965 90.0312H650.445C651.297 90.0312 651.934 89.7031 652.355 89.0469C652.777 88.3906 652.988 87.5078 652.988 86.3984V85.7773C652.988 84.6445 652.762 83.7578 652.309 83.1172C651.863 82.4688 651.242 82.1445 650.445 82.1445H650.094C649.32 82.1445 648.699 82.4492 648.23 83.0586C647.77 83.6602 647.539 84.5273 647.539 85.6602V86.4102C647.539 87.5039 647.75 88.3828 648.172 89.0469C648.602 89.7031 649.199 90.0312 649.965 90.0312ZM655.859 85.4727V86.293C655.859 87.1211 655.73 87.9297 655.473 88.7188C655.223 89.5078 654.879 90.1445 654.441 90.6289C654.004 91.1055 653.434 91.5 652.73 91.8125C652.035 92.125 651.273 92.2812 650.445 92.2812H649.824C648.238 92.2812 646.953 91.7188 645.969 90.5938C645.109 89.6172 644.68 88.2539 644.68 86.5039V85.6836C644.68 84.8086 644.812 84 645.078 83.2578C645.352 82.5156 645.715 81.9062 646.168 81.4297C646.629 80.9531 647.219 80.582 647.938 80.3164C648.664 80.0508 649.457 79.918 650.316 79.918L650.527 79.9297C651.254 79.9297 651.953 80.0547 652.625 80.3047C654.023 80.8359 654.977 81.8008 655.484 83.1992C655.734 83.8789 655.859 84.6367 655.859 85.4727ZM658.531 82.0156C658.531 81.3984 658.59 80.9805 658.707 80.7617C658.832 80.543 659.148 80.4336 659.656 80.4336C660.172 80.4336 660.547 80.5195 660.781 80.6914C660.828 80.7227 660.938 80.8398 661.109 81.043C661.289 81.2383 661.426 81.3359 661.52 81.3359C661.621 81.3359 661.844 81.2422 662.188 81.0547C663.086 80.5547 663.84 80.3047 664.449 80.3047H665.059C665.629 80.3047 666.164 80.4258 666.664 80.668C667.656 81.1523 668.277 81.9648 668.527 83.1055C668.652 83.6602 668.715 84.4844 668.715 85.5781L668.809 88.5312L668.914 90.8633C668.914 91.207 668.84 91.4453 668.691 91.5781C668.551 91.7109 668.219 91.7773 667.695 91.7773C666.898 91.7773 666.422 91.4648 666.266 90.8398C666.164 90.4414 666.074 89.2695 665.996 87.3242C665.926 85.3789 665.801 84.1719 665.621 83.7031C665.027 82.9531 664.387 82.5 663.699 82.3438C662.754 82.3438 662.09 82.6797 661.707 83.3516C661.418 83.8516 661.273 84.8438 661.273 86.3281L661.238 87.2656L661.215 88.5312C661.215 90.0469 661.164 90.9375 661.062 91.2031C660.883 91.6719 660.387 91.9062 659.574 91.9062C659.074 91.9062 658.758 91.8281 658.625 91.6719C658.492 91.5078 658.426 91.2422 658.426 90.875L658.438 90.5703C658.438 90.2578 658.438 89.9492 658.438 89.6445L658.484 87.7812V85.5898L658.496 85.2852C658.496 85.082 658.496 84.8789 658.496 84.6758L658.52 83.1641L658.531 82.8711V82.0156ZM678.312 90.9922C678.312 91.6875 677.602 92.0352 676.18 92.0352C674.758 92.0352 673.754 91.5508 673.168 90.582C672.723 89.832 672.5 88.3203 672.5 86.0469V85.543L672.477 84.8164L672.465 84.5703L672.453 83.832C672.453 83.2773 672.414 82.9219 672.336 82.7656C672.266 82.6016 672.031 82.4102 671.633 82.1914C671.242 81.9727 671.047 81.6875 671.047 81.3359V81.125C671.047 80.5156 671.27 80.1055 671.715 79.8945C672.16 79.6758 672.422 79.4727 672.5 79.2852C672.508 79.2617 672.57 78.918 672.688 78.2539C672.812 77.5898 672.953 77.1406 673.109 76.9062C673.273 76.6719 673.633 76.5547 674.188 76.5547C674.75 76.5547 675.105 76.7266 675.254 77.0703C675.309 77.1953 675.395 77.6055 675.512 78.3008C675.629 78.9961 675.762 79.4336 675.91 79.6133C676.059 79.7852 676.414 79.9258 676.977 80.0352C677.539 80.1445 677.891 80.2539 678.031 80.3633C678.18 80.4727 678.254 80.7383 678.254 81.1602C678.254 81.582 678.078 81.8711 677.727 82.0273C677.586 82.0898 677.254 82.1445 676.73 82.1914C676.207 82.2305 675.852 82.3555 675.664 82.5664C675.484 82.7773 675.395 83.5117 675.395 84.7695L675.383 85.0156C675.375 85.1797 675.371 85.3438 675.371 85.5078L675.359 85.7539V86.2578C675.359 87.8438 675.465 88.793 675.676 89.1055C675.895 89.418 676.273 89.6055 676.812 89.668C677.352 89.7305 677.734 89.8516 677.961 90.0312C678.195 90.2109 678.312 90.5312 678.312 90.9922ZM685.426 90.0312H685.906C686.758 90.0312 687.395 89.7031 687.816 89.0469C688.238 88.3906 688.449 87.5078 688.449 86.3984V85.7773C688.449 84.6445 688.223 83.7578 687.77 83.1172C687.324 82.4688 686.703 82.1445 685.906 82.1445H685.555C684.781 82.1445 684.16 82.4492 683.691 83.0586C683.23 83.6602 683 84.5273 683 85.6602V86.4102C683 87.5039 683.211 88.3828 683.633 89.0469C684.062 89.7031 684.66 90.0312 685.426 90.0312ZM691.32 85.4727V86.293C691.32 87.1211 691.191 87.9297 690.934 88.7188C690.684 89.5078 690.34 90.1445 689.902 90.6289C689.465 91.1055 688.895 91.5 688.191 91.8125C687.496 92.125 686.734 92.2812 685.906 92.2812H685.285C683.699 92.2812 682.414 91.7188 681.43 90.5938C680.57 89.6172 680.141 88.2539 680.141 86.5039V85.6836C680.141 84.8086 680.273 84 680.539 83.2578C680.812 82.5156 681.176 81.9062 681.629 81.4297C682.09 80.9531 682.68 80.582 683.398 80.3164C684.125 80.0508 684.918 79.918 685.777 79.918L685.988 79.9297C686.715 79.9297 687.414 80.0547 688.086 80.3047C689.484 80.8359 690.438 81.8008 690.945 83.1992C691.195 83.8789 691.32 84.6367 691.32 85.4727ZM693.652 83.293C693.652 81.8711 694.461 80.8672 696.078 80.2812C696.656 80.0625 697.289 79.9531 697.977 79.9531H698.293C699.332 79.9531 700.262 80.0977 701.082 80.3867C701.91 80.668 702.324 81.0234 702.324 81.4531C702.324 81.7891 702.234 82.082 702.055 82.332C701.883 82.582 701.707 82.707 701.527 82.707C701.355 82.707 700.902 82.6094 700.168 82.4141C699.434 82.2188 698.773 82.1211 698.188 82.1211C697.609 82.1211 697.16 82.2227 696.84 82.4258C696.52 82.6289 696.359 82.9219 696.359 83.3047C696.359 83.6875 696.609 84.0195 697.109 84.3008C697.32 84.418 697.715 84.5625 698.293 84.7344C699.996 85.2344 701.164 85.7617 701.797 86.3164C702.438 86.8633 702.758 87.5859 702.758 88.4844V88.7891C702.758 89.2578 702.645 89.7188 702.418 90.1719C702.191 90.625 701.883 90.9961 701.492 91.2852C700.664 91.9023 699.648 92.2109 698.445 92.2109H697.801C696.691 92.2109 695.699 92.0391 694.824 91.6953C693.949 91.3516 693.512 90.9609 693.512 90.5234C693.512 90.0859 693.664 89.7148 693.969 89.4102C694.078 89.3008 694.273 89.2461 694.555 89.2461C694.586 89.2461 695.055 89.3789 695.961 89.6445C696.883 89.9102 697.656 90.043 698.281 90.043C699.453 90.043 700.039 89.5508 700.039 88.5664C700.039 88.2148 699.746 87.8984 699.16 87.6172C698.902 87.4922 698.219 87.2578 697.109 86.9141C696 86.5625 695.234 86.2188 694.812 85.8828C694.398 85.5391 694.102 85.1719 693.922 84.7812C693.742 84.3906 693.652 83.8945 693.652 83.293ZM718.742 90.9922C718.742 91.6875 718.031 92.0352 716.609 92.0352C715.188 92.0352 714.184 91.5508 713.598 90.582C713.152 89.832 712.93 88.3203 712.93 86.0469V85.543L712.906 84.8164L712.895 84.5703L712.883 83.832C712.883 83.2773 712.844 82.9219 712.766 82.7656C712.695 82.6016 712.461 82.4102 712.062 82.1914C711.672 81.9727 711.477 81.6875 711.477 81.3359V81.125C711.477 80.5156 711.699 80.1055 712.145 79.8945C712.59 79.6758 712.852 79.4727 712.93 79.2852C712.938 79.2617 713 78.918 713.117 78.2539C713.242 77.5898 713.383 77.1406 713.539 76.9062C713.703 76.6719 714.062 76.5547 714.617 76.5547C715.18 76.5547 715.535 76.7266 715.684 77.0703C715.738 77.1953 715.824 77.6055 715.941 78.3008C716.059 78.9961 716.191 79.4336 716.34 79.6133C716.488 79.7852 716.844 79.9258 717.406 80.0352C717.969 80.1445 718.32 80.2539 718.461 80.3633C718.609 80.4727 718.684 80.7383 718.684 81.1602C718.684 81.582 718.508 81.8711 718.156 82.0273C718.016 82.0898 717.684 82.1445 717.16 82.1914C716.637 82.2305 716.281 82.3555 716.094 82.5664C715.914 82.7773 715.824 83.5117 715.824 84.7695L715.812 85.0156C715.805 85.1797 715.801 85.3438 715.801 85.5078L715.789 85.7539V86.2578C715.789 87.8438 715.895 88.793 716.105 89.1055C716.324 89.418 716.703 89.6055 717.242 89.668C717.781 89.7305 718.164 89.8516 718.391 90.0312C718.625 90.2109 718.742 90.5312 718.742 90.9922ZM723.594 88.5547C723.594 88.9531 723.793 89.2852 724.191 89.5508C724.59 89.8164 725.02 89.9492 725.48 89.9492H725.82C726.609 89.9492 727.227 89.6641 727.672 89.0938C727.867 88.8438 727.965 88.3359 727.965 87.5703L727.977 87.4297V87.1367C727.977 86.6445 727.715 86.3984 727.191 86.3984H726.242C725.383 86.3984 724.723 86.543 724.262 86.832C723.801 87.1211 723.57 87.4727 723.57 87.8867V88.3203C723.586 88.4297 723.594 88.5078 723.594 88.5547ZM727.848 83.8438C727.848 82.6953 727.125 82.1211 725.68 82.1211C725.148 82.1211 724.484 82.2227 723.688 82.4258C722.898 82.6289 722.398 82.7305 722.188 82.7305C721.977 82.7305 721.781 82.625 721.602 82.4141C721.43 82.2031 721.344 81.9375 721.344 81.6172C721.344 81.0938 721.656 80.6836 722.281 80.3867C723.156 79.9727 724.211 79.7656 725.445 79.7656H725.738C727.746 79.7656 729.176 80.3359 730.027 81.4766C730.355 81.9141 730.57 82.4375 730.672 83.0469C730.773 83.6484 730.824 84.6992 730.824 86.1992C730.824 87.6914 730.875 88.7383 730.977 89.3398C731.078 89.9414 731.129 90.4453 731.129 90.8516C731.129 91.25 731.051 91.543 730.895 91.7305C730.738 91.9102 730.402 92 729.887 92C729.371 92 729.016 91.9492 728.82 91.8477C728.625 91.7461 728.441 91.6172 728.27 91.4609C728.105 91.3047 727.973 91.2266 727.871 91.2266C727.77 91.2266 727.32 91.3867 726.523 91.707C725.727 92.0195 725.039 92.1758 724.461 92.1758H724.18C723.055 92.1758 722.172 91.8359 721.531 91.1562C720.891 90.4688 720.57 89.6406 720.57 88.6719V88.0977C720.57 87.6367 720.695 87.1719 720.945 86.7031C721.633 85.4062 723.332 84.7031 726.043 84.5938C726.98 84.5547 727.516 84.5 727.648 84.4297C727.781 84.3516 727.848 84.1562 727.848 83.8438ZM743.656 88.7188C743.648 89.0156 743.645 89.4805 743.645 90.1133C743.645 90.7383 743.582 91.1602 743.457 91.3789C743.332 91.5977 742.906 91.707 742.18 91.707C741.461 91.707 741.051 91.6055 740.949 91.4023C740.855 91.1992 740.809 90.6211 740.809 89.668L740.773 88.3203C740.758 87.7188 740.75 87.1133 740.75 86.5039C740.75 84.8555 740.621 83.7578 740.363 83.2109C740.105 82.6641 739.707 82.3906 739.168 82.3906C738.137 82.3906 737.449 82.793 737.105 83.5977C736.887 84.0977 736.777 85.4023 736.777 87.5117C736.777 89.6211 736.684 90.8359 736.496 91.1562C736.23 91.6016 735.707 91.8242 734.926 91.8242C734.645 91.8242 734.426 91.7188 734.27 91.5078C734.121 91.2891 734.047 90.7695 734.047 89.9492L734.059 89.4922V87.1602C734.059 83.3867 734.121 81.3203 734.246 80.9609C734.379 80.5938 734.777 80.4102 735.441 80.4102C735.629 80.4102 735.898 80.4922 736.25 80.6562C736.602 80.8203 736.855 80.9023 737.012 80.9023C737.176 80.9023 737.578 80.7773 738.219 80.5273C738.867 80.2773 739.477 80.1523 740.047 80.1523C740.625 80.1523 741.324 80.3438 742.145 80.7266C742.973 81.1094 743.414 81.3008 743.469 81.3008C743.523 81.3008 743.723 81.2031 744.066 81.0078L744.816 80.5742C745.402 80.2773 746.043 80.1289 746.738 80.1289C747.434 80.1289 748.035 80.3008 748.543 80.6445C749.059 80.9883 749.453 81.4297 749.727 81.9688C750.148 82.8125 750.359 84.5117 750.359 87.0664L750.383 88.8828L750.418 90.2188C750.418 90.7891 750.344 91.2109 750.195 91.4844C750.047 91.75 749.777 91.8828 749.387 91.8828C749.004 91.8828 748.66 91.7891 748.355 91.6016C748.059 91.4141 747.836 91.0625 747.688 90.5469C747.539 90.0312 747.465 88.9023 747.465 87.1602C747.465 85.4102 747.363 84.293 747.16 83.8086C746.855 83.082 746.32 82.7188 745.555 82.7188C744.789 82.7188 744.285 82.9844 744.043 83.5156C743.809 84.0391 743.691 85.0391 743.691 86.5156L743.668 88.2734L743.656 88.7188ZM758.27 89.9258H758.738C759.559 89.9258 760.215 89.5703 760.707 88.8594C761.066 88.3438 761.246 87.5391 761.246 86.4453V85.9531L761.234 85.8242L761.211 85.3438C761.211 85.3438 761.211 85.2617 761.211 85.0977C761.195 84.9414 761.188 84.8281 761.188 84.7578C761.188 84.0234 760.98 83.3906 760.566 82.8594C760.152 82.3203 759.617 82.0508 758.961 82.0508H758.504C757.645 82.0508 757.008 82.375 756.594 83.0234C756.32 83.4453 756.184 84.2578 756.184 85.4609V86.6094L756.195 86.7266L756.23 87.3945C756.238 87.4727 756.242 87.5469 756.242 87.6172C756.242 88.3281 756.418 88.8906 756.77 89.3047C757.121 89.7188 757.621 89.9258 758.27 89.9258ZM759.371 92.0469H759.09C758.566 92.0469 757.965 91.9336 757.285 91.707C756.605 91.4805 756.254 91.3672 756.23 91.3672C756.215 91.3672 756.086 91.4414 755.844 91.5898C755.609 91.7383 755.289 91.8125 754.883 91.8125C754.156 91.8125 753.715 91.6406 753.559 91.2969C753.41 90.9531 753.336 90.0547 753.336 88.6016V88.0508L753.348 87.7695V86.1172L753.359 85.2969C753.359 84.8359 753.359 84.375 753.359 83.9141L753.371 83.3633C753.371 83.3633 753.371 82.0156 753.371 79.3203C753.371 76.8984 753.406 75.5039 753.477 75.1367C753.555 74.7695 753.934 74.5859 754.613 74.5859H754.883C755.555 74.5859 755.984 74.7539 756.172 75.0898C756.359 75.418 756.453 76.3633 756.453 77.9258C756.453 79.4805 756.641 80.2578 757.016 80.2578C757.117 80.2578 757.332 80.2031 757.66 80.0938C757.988 79.9844 758.277 79.8984 758.527 79.8359C758.777 79.7734 759.227 79.7422 759.875 79.7422C760.531 79.7422 761.133 79.8984 761.68 80.2109C762.227 80.5156 762.668 80.9258 763.004 81.4414C763.746 82.5742 764.117 83.9531 764.117 85.5781V86.1641C764.117 88.9219 763.223 90.7266 761.434 91.5781C760.777 91.8906 760.09 92.0469 759.371 92.0469ZM770.738 84.8984C770.988 84.8984 771.23 84.8789 771.465 84.8398C771.707 84.793 772.043 84.7695 772.473 84.7695L772.965 84.7461C773.004 84.7383 773.039 84.7344 773.07 84.7344C773.594 84.7344 773.855 84.4219 773.855 83.7969V83.3984C773.855 82.8438 773.621 82.4062 773.152 82.0859C772.691 81.7578 772.164 81.5938 771.57 81.5938H771.488L771.406 81.6055C770.703 81.6055 770.121 81.8359 769.66 82.2969C769.207 82.75 768.98 83.2812 768.98 83.8906L768.957 84.0547V84.3594C768.957 84.6953 769.223 84.8633 769.754 84.8633L770.129 84.8984H770.738ZM770.75 78.2422H770.539C770.055 78.2422 769.812 78.0938 769.812 77.7969V77.5391C769.812 77.0469 770.461 76.1523 771.758 74.8555C772.195 74.418 772.684 74.1992 773.223 74.1992C773.34 74.1758 773.406 74.1641 773.422 74.1641H773.691C774.34 74.1641 774.664 74.3594 774.664 74.75V75.0078C774.664 75.3438 773.941 76.1523 772.496 77.4336C771.887 77.9727 771.305 78.2422 770.75 78.2422ZM775.273 88.9062C775.898 88.9062 776.211 89.3242 776.211 90.1602C776.211 90.5273 775.785 90.8906 774.934 91.25C774.09 91.6094 773.176 91.7891 772.191 91.7891H771.617C770.805 91.7891 770 91.6484 769.203 91.3672C768.391 91.0859 767.773 90.707 767.352 90.2305C766.5 89.293 766.074 87.9297 766.074 86.1406C766.074 86.125 766.074 86.1094 766.074 86.0938V85.8125C766.074 83.7734 766.488 82.2852 767.316 81.3477C767.809 80.7852 768.406 80.3672 769.109 80.0938C769.82 79.8125 770.535 79.6719 771.254 79.6719H771.828C774.188 79.6719 775.691 80.5938 776.34 82.4375C776.574 83.0938 776.691 83.7695 776.691 84.4648V84.7227C776.691 85.5898 776.465 86.1094 776.012 86.2812C775.566 86.4453 774.531 86.5273 772.906 86.5273C771.289 86.5273 770.238 86.5859 769.754 86.7031C769.434 86.7812 769.273 86.9727 769.273 87.2773C769.273 87.9414 769.512 88.4648 769.988 88.8477C770.465 89.2227 771.078 89.4102 771.828 89.4102C772.578 89.4102 773.305 89.3281 774.008 89.1641C774.719 88.9922 775.141 88.9062 775.273 88.9062ZM789.219 88.7188C789.211 89.0156 789.207 89.4805 789.207 90.1133C789.207 90.7383 789.145 91.1602 789.02 91.3789C788.895 91.5977 788.469 91.707 787.742 91.707C787.023 91.707 786.613 91.6055 786.512 91.4023C786.418 91.1992 786.371 90.6211 786.371 89.668L786.336 88.3203C786.32 87.7188 786.312 87.1133 786.312 86.5039C786.312 84.8555 786.184 83.7578 785.926 83.2109C785.668 82.6641 785.27 82.3906 784.73 82.3906C783.699 82.3906 783.012 82.793 782.668 83.5977C782.449 84.0977 782.34 85.4023 782.34 87.5117C782.34 89.6211 782.246 90.8359 782.059 91.1562C781.793 91.6016 781.27 91.8242 780.488 91.8242C780.207 91.8242 779.988 91.7188 779.832 91.5078C779.684 91.2891 779.609 90.7695 779.609 89.9492L779.621 89.4922V87.1602C779.621 83.3867 779.684 81.3203 779.809 80.9609C779.941 80.5938 780.34 80.4102 781.004 80.4102C781.191 80.4102 781.461 80.4922 781.812 80.6562C782.164 80.8203 782.418 80.9023 782.574 80.9023C782.738 80.9023 783.141 80.7773 783.781 80.5273C784.43 80.2773 785.039 80.1523 785.609 80.1523C786.188 80.1523 786.887 80.3438 787.707 80.7266C788.535 81.1094 788.977 81.3008 789.031 81.3008C789.086 81.3008 789.285 81.2031 789.629 81.0078L790.379 80.5742C790.965 80.2773 791.605 80.1289 792.301 80.1289C792.996 80.1289 793.598 80.3008 794.105 80.6445C794.621 80.9883 795.016 81.4297 795.289 81.9688C795.711 82.8125 795.922 84.5117 795.922 87.0664L795.945 88.8828L795.98 90.2188C795.98 90.7891 795.906 91.2109 795.758 91.4844C795.609 91.75 795.34 91.8828 794.949 91.8828C794.566 91.8828 794.223 91.7891 793.918 91.6016C793.621 91.4141 793.398 91.0625 793.25 90.5469C793.102 90.0312 793.027 88.9023 793.027 87.1602C793.027 85.4102 792.926 84.293 792.723 83.8086C792.418 83.082 791.883 82.7188 791.117 82.7188C790.352 82.7188 789.848 82.9844 789.605 83.5156C789.371 84.0391 789.254 85.0391 789.254 86.5156L789.23 88.2734L789.219 88.7188ZM801.148 87.4648H800.586C800.109 87.4648 799.871 87.1484 799.871 86.5156L799.848 86.2344C799.848 86.1406 799.848 86.0469 799.848 85.9531L799.812 84.9336C799.812 84.8398 799.812 84.7461 799.812 84.6523L799.789 83.9141V83.6211L799.777 83.3164V83.0234L799.766 82.5781V82.2852L799.754 81.9805V81.6875L799.73 80.7852C799.73 80.582 799.73 80.3789 799.73 80.1758L799.719 79.8828V79.2852L799.707 78.9922C799.707 78.7969 799.707 78.6016 799.707 78.4062L799.695 78.1133V76.9766L799.684 76.6836C799.684 76.0664 799.789 75.6797 800 75.5234C800.219 75.3594 800.66 75.2773 801.324 75.2773H801.465C801.988 75.2773 802.312 75.3438 802.438 75.4766C802.562 75.6094 802.625 75.9492 802.625 76.4961V76.6367L802.613 76.7773L802.52 79.0859L802.508 79.2266L802.461 80.2695L802.438 80.8672C802.406 81.2734 802.391 81.5742 802.391 81.7695L802.367 82.0742L802.332 82.9648L802.309 83.2695L802.262 84.3008C802.23 84.6758 802.215 84.9648 802.215 85.168L802.191 85.4609L802.156 86.3164C802.156 86.7773 802.094 87.0859 801.969 87.2422C801.852 87.3906 801.578 87.4648 801.148 87.4648ZM800.773 92.2812L800.352 92.2344C799.742 92.2344 799.438 91.7891 799.438 90.8984V90.5586L799.461 90.3359L799.496 90.0664C799.496 89.4492 799.941 89.1406 800.832 89.1406H801.219L801.43 89.1641L801.699 89.1992C802.238 89.1992 802.508 89.5117 802.508 90.1367C802.523 90.2148 802.531 90.2695 802.531 90.3008L802.555 90.582V90.8633L802.543 90.9219V91.0273C802.504 91.2227 802.484 91.3477 802.484 91.4023C802.484 91.9492 802.184 92.2227 801.582 92.2227C801.473 92.2461 801.402 92.2578 801.371 92.2578L801.102 92.2812H800.773ZM807.113 95.3164H806.891C806.227 95.3164 805.895 95.1094 805.895 94.6953V94.4961C805.895 94.1836 806.211 93.5703 806.844 92.6562C807.484 91.7422 807.91 90.9023 808.121 90.1367C808.598 88.4023 808.836 86.5195 808.836 84.4883C808.836 82.457 808.617 80.7109 808.18 79.25C807.969 78.5469 807.559 77.707 806.949 76.7305C806.348 75.7461 806.047 75.1484 806.047 74.9375C806.047 74.7188 806.16 74.5156 806.387 74.3281C806.621 74.1406 806.863 74.0469 807.113 74.0469H807.348C807.762 74.0469 808.297 74.4805 808.953 75.3477C809.609 76.2148 810.125 77.1367 810.5 78.1133C811.172 79.8555 811.508 82.0078 811.508 84.5703C811.508 88.7656 810.543 92.0039 808.613 94.2852C808.035 94.9727 807.535 95.3164 807.113 95.3164Z" fill="#BDBDBD"/>
<path d="M420.97 64.28H413.11L411.85 68H406.48L414.1 46.94H420.04L427.66 68H422.23L420.97 64.28ZM419.65 60.32L417.04 52.61L414.46 60.32H419.65ZM441.467 53.63C441.947 52.85 442.637 52.22 443.537 51.74C444.437 51.26 445.467 51.02 446.627 51.02C448.007 51.02 449.257 51.37 450.377 52.07C451.497 52.77 452.377 53.77 453.017 55.07C453.677 56.37 454.007 57.88 454.007 59.6C454.007 61.32 453.677 62.84 453.017 64.16C452.377 65.46 451.497 66.47 450.377 67.19C449.257 67.89 448.007 68.24 446.627 68.24C445.447 68.24 444.417 68.01 443.537 67.55C442.657 67.07 441.967 66.44 441.467 65.66V68H436.337V45.8H441.467V53.63ZM448.787 59.6C448.787 58.32 448.427 57.32 447.707 56.6C447.007 55.86 446.137 55.49 445.097 55.49C444.077 55.49 443.207 55.86 442.487 56.6C441.787 57.34 441.437 58.35 441.437 59.63C441.437 60.91 441.787 61.92 442.487 62.66C443.207 63.4 444.077 63.77 445.097 63.77C446.117 63.77 446.987 63.4 447.707 62.66C448.427 61.9 448.787 60.88 448.787 59.6ZM461.828 45.8V68H456.698V45.8H461.828ZM464.526 59.6C464.526 57.88 464.846 56.37 465.486 55.07C466.146 53.77 467.036 52.77 468.156 52.07C469.276 51.37 470.526 51.02 471.906 51.02C473.086 51.02 474.116 51.26 474.996 51.74C475.896 52.22 476.586 52.85 477.066 53.63V51.26H482.196V68H477.066V65.63C476.566 66.41 475.866 67.04 474.966 67.52C474.086 68 473.056 68.24 471.876 68.24C470.516 68.24 469.276 67.89 468.156 67.19C467.036 66.47 466.146 65.46 465.486 64.16C464.846 62.84 464.526 61.32 464.526 59.6ZM477.066 59.63C477.066 58.35 476.706 57.34 475.986 56.6C475.286 55.86 474.426 55.49 473.406 55.49C472.386 55.49 471.516 55.86 470.796 56.6C470.096 57.32 469.746 58.32 469.746 59.6C469.746 60.88 470.096 61.9 470.796 62.66C471.516 63.4 472.386 63.77 473.406 63.77C474.426 63.77 475.286 63.4 475.986 62.66C476.706 61.92 477.066 60.91 477.066 59.63ZM484.887 59.63C484.887 57.89 485.237 56.37 485.937 55.07C486.657 53.77 487.647 52.77 488.907 52.07C490.187 51.37 491.647 51.02 493.287 51.02C495.387 51.02 497.137 51.57 498.537 52.67C499.957 53.77 500.887 55.32 501.327 57.32H495.867C495.407 56.04 494.517 55.4 493.197 55.4C492.257 55.4 491.507 55.77 490.947 56.51C490.387 57.23 490.107 58.27 490.107 59.63C490.107 60.99 490.387 62.04 490.947 62.78C491.507 63.5 492.257 63.86 493.197 63.86C494.517 63.86 495.407 63.22 495.867 61.94H501.327C500.887 63.9 499.957 65.44 498.537 66.56C497.117 67.68 495.367 68.24 493.287 68.24C491.647 68.24 490.187 67.89 488.907 67.19C487.647 66.49 486.657 65.49 485.937 64.19C485.237 62.89 484.887 61.37 484.887 59.63ZM514.301 68L509.201 60.98V68H504.071V45.8H509.201V58.07L514.271 51.26H520.601L513.641 59.66L520.661 68H514.301ZM537.373 55.52H534.613V68H529.483V55.52H527.623V51.26H529.483V50.78C529.483 48.72 530.073 47.16 531.253 46.1C532.433 45.02 534.163 44.48 536.443 44.48C536.823 44.48 537.103 44.49 537.283 44.51V48.86C536.303 48.8 535.613 48.94 535.213 49.28C534.813 49.62 534.613 50.23 534.613 51.11V51.26H537.373V55.52ZM544.914 54.05C545.514 53.13 546.264 52.41 547.164 51.89C548.064 51.35 549.064 51.08 550.164 51.08V56.51H548.754C547.474 56.51 546.514 56.79 545.874 57.35C545.234 57.89 544.914 58.85 544.914 60.23V68H539.784V51.26H544.914V54.05ZM555.196 49.52C554.296 49.52 553.556 49.26 552.976 48.74C552.416 48.2 552.136 47.54 552.136 46.76C552.136 45.96 552.416 45.3 552.976 44.78C553.556 44.24 554.296 43.97 555.196 43.97C556.076 43.97 556.796 44.24 557.356 44.78C557.936 45.3 558.226 45.96 558.226 46.76C558.226 47.54 557.936 48.2 557.356 48.74C556.796 49.26 556.076 49.52 555.196 49.52ZM557.746 51.26V68H552.616V51.26H557.746ZM560.444 59.6C560.444 57.88 560.764 56.37 561.404 55.07C562.064 53.77 562.954 52.77 564.074 52.07C565.194 51.37 566.444 51.02 567.824 51.02C568.924 51.02 569.924 51.25 570.824 51.71C571.744 52.17 572.464 52.79 572.984 53.57V45.8H578.114V68H572.984V65.6C572.504 66.4 571.814 67.04 570.914 67.52C570.034 68 569.004 68.24 567.824 68.24C566.444 68.24 565.194 67.89 564.074 67.19C562.954 66.47 562.064 65.46 561.404 64.16C560.764 62.84 560.444 61.32 560.444 59.6ZM572.984 59.63C572.984 58.35 572.624 57.34 571.904 56.6C571.204 55.86 570.344 55.49 569.324 55.49C568.304 55.49 567.434 55.86 566.714 56.6C566.014 57.32 565.664 58.32 565.664 59.6C565.664 60.88 566.014 61.9 566.714 62.66C567.434 63.4 568.304 63.77 569.324 63.77C570.344 63.77 571.204 63.4 571.904 62.66C572.624 61.92 572.984 60.91 572.984 59.63ZM580.805 59.6C580.805 57.88 581.125 56.37 581.765 55.07C582.425 53.77 583.315 52.77 584.435 52.07C585.555 51.37 586.805 51.02 588.185 51.02C589.365 51.02 590.395 51.26 591.275 51.74C592.175 52.22 592.865 52.85 593.345 53.63V51.26H598.475V68H593.345V65.63C592.845 66.41 592.145 67.04 591.245 67.52C590.365 68 589.335 68.24 588.155 68.24C586.795 68.24 585.555 67.89 584.435 67.19C583.315 66.47 582.425 65.46 581.765 64.16C581.125 62.84 580.805 61.32 580.805 59.6ZM593.345 59.63C593.345 58.35 592.985 57.34 592.265 56.6C591.565 55.86 590.705 55.49 589.685 55.49C588.665 55.49 587.795 55.86 587.075 56.6C586.375 57.32 586.025 58.32 586.025 59.6C586.025 60.88 586.375 61.9 587.075 62.66C587.795 63.4 588.665 63.77 589.685 63.77C590.705 63.77 591.565 63.4 592.265 62.66C592.985 61.92 593.345 60.91 593.345 59.63ZM619.286 51.26L608.786 75.95H603.266L607.106 67.43L600.296 51.26H606.026L609.896 61.73L613.736 51.26H619.286ZM643.279 59.36C643.279 59.84 643.249 60.34 643.189 60.86H631.579C631.659 61.9 631.989 62.7 632.569 63.26C633.169 63.8 633.899 64.07 634.759 64.07C636.039 64.07 636.929 63.53 637.429 62.45H642.889C642.609 63.55 642.099 64.54 641.359 65.42C640.639 66.3 639.729 66.99 638.629 67.49C637.529 67.99 636.299 68.24 634.939 68.24C633.299 68.24 631.839 67.89 630.559 67.19C629.279 66.49 628.279 65.49 627.559 64.19C626.839 62.89 626.479 61.37 626.479 59.63C626.479 57.89 626.829 56.37 627.529 55.07C628.249 53.77 629.249 52.77 630.529 52.07C631.809 51.37 633.279 51.02 634.939 51.02C636.559 51.02 637.999 51.36 639.259 52.04C640.519 52.72 641.499 53.69 642.199 54.95C642.919 56.21 643.279 57.68 643.279 59.36ZM638.029 58.01C638.029 57.13 637.729 56.43 637.129 55.91C636.529 55.39 635.779 55.13 634.879 55.13C634.019 55.13 633.289 55.38 632.689 55.88C632.109 56.38 631.749 57.09 631.609 58.01H638.029ZM652.795 68.24C651.335 68.24 650.035 67.99 648.895 67.49C647.755 66.99 646.855 66.31 646.195 65.45C645.535 64.57 645.165 63.59 645.085 62.51H650.155C650.215 63.09 650.485 63.56 650.965 63.92C651.445 64.28 652.035 64.46 652.735 64.46C653.375 64.46 653.865 64.34 654.205 64.1C654.565 63.84 654.745 63.51 654.745 63.11C654.745 62.63 654.495 62.28 653.995 62.06C653.495 61.82 652.685 61.56 651.565 61.28C650.365 61 649.365 60.71 648.565 60.41C647.765 60.09 647.075 59.6 646.495 58.94C645.915 58.26 645.625 57.35 645.625 56.21C645.625 55.25 645.885 54.38 646.405 53.6C646.945 52.8 647.725 52.17 648.745 51.71C649.785 51.25 651.015 51.02 652.435 51.02C654.535 51.02 656.185 51.54 657.385 52.58C658.605 53.62 659.305 55 659.485 56.72H654.745C654.665 56.14 654.405 55.68 653.965 55.34C653.545 55 652.985 54.83 652.285 54.83C651.685 54.83 651.225 54.95 650.905 55.19C650.585 55.41 650.425 55.72 650.425 56.12C650.425 56.6 650.675 56.96 651.175 57.2C651.695 57.44 652.495 57.68 653.575 57.92C654.815 58.24 655.825 58.56 656.605 58.88C657.385 59.18 658.065 59.68 658.645 60.38C659.245 61.06 659.555 61.98 659.575 63.14C659.575 64.12 659.295 65 658.735 65.78C658.195 66.54 657.405 67.14 656.365 67.58C655.345 68.02 654.155 68.24 652.795 68.24ZM672.044 63.65V68H669.434C667.574 68 666.124 67.55 665.084 66.65C664.044 65.73 663.524 64.24 663.524 62.18V55.52H661.484V51.26H663.524V47.18H668.654V51.26H672.014V55.52H668.654V62.24C668.654 62.74 668.774 63.1 669.014 63.32C669.254 63.54 669.654 63.65 670.214 63.65H672.044ZM673.881 59.6C673.881 57.88 674.201 56.37 674.841 55.07C675.501 53.77 676.391 52.77 677.511 52.07C678.631 51.37 679.881 51.02 681.261 51.02C682.441 51.02 683.471 51.26 684.351 51.74C685.251 52.22 685.941 52.85 686.421 53.63V51.26H691.551V68H686.421V65.63C685.921 66.41 685.221 67.04 684.321 67.52C683.441 68 682.411 68.24 681.231 68.24C679.871 68.24 678.631 67.89 677.511 67.19C676.391 66.47 675.501 65.46 674.841 64.16C674.201 62.84 673.881 61.32 673.881 59.6ZM686.421 59.63C686.421 58.35 686.061 57.34 685.341 56.6C684.641 55.86 683.781 55.49 682.761 55.49C681.741 55.49 680.871 55.86 680.151 56.6C679.451 57.32 679.101 58.32 679.101 59.6C679.101 60.88 679.451 61.9 680.151 62.66C680.871 63.4 681.741 63.77 682.761 63.77C683.781 63.77 684.641 63.4 685.341 62.66C686.061 61.92 686.421 60.91 686.421 59.63ZM686.811 47.09L679.581 50.12V46.58L686.811 43.1V47.09ZM700.6 59.63C700.6 57.89 700.95 56.37 701.65 55.07C702.37 53.77 703.36 52.77 704.62 52.07C705.9 51.37 707.36 51.02 709 51.02C711.1 51.02 712.85 51.57 714.25 52.67C715.67 53.77 716.6 55.32 717.04 57.32H711.58C711.12 56.04 710.23 55.4 708.91 55.4C707.97 55.4 707.22 55.77 706.66 56.51C706.1 57.23 705.82 58.27 705.82 59.63C705.82 60.99 706.1 62.04 706.66 62.78C707.22 63.5 707.97 63.86 708.91 63.86C710.23 63.86 711.12 63.22 711.58 61.94H717.04C716.6 63.9 715.67 65.44 714.25 66.56C712.83 67.68 711.08 68.24 709 68.24C707.36 68.24 705.9 67.89 704.62 67.19C703.36 66.49 702.37 65.49 701.65 64.19C700.95 62.89 700.6 61.37 700.6 59.63ZM730.074 51.08C731.994 51.08 733.534 51.72 734.694 53C735.854 54.26 736.434 56 736.434 58.22V68H731.334V58.91C731.334 57.79 731.044 56.92 730.464 56.3C729.884 55.68 729.104 55.37 728.124 55.37C727.144 55.37 726.364 55.68 725.784 56.3C725.204 56.92 724.914 57.79 724.914 58.91V68H719.784V45.8H724.914V53.51C725.434 52.77 726.144 52.18 727.044 51.74C727.944 51.3 728.954 51.08 730.074 51.08ZM755.779 59.36C755.779 59.84 755.749 60.34 755.689 60.86H744.079C744.159 61.9 744.489 62.7 745.069 63.26C745.669 63.8 746.399 64.07 747.259 64.07C748.539 64.07 749.429 63.53 749.929 62.45H755.389C755.109 63.55 754.599 64.54 753.859 65.42C753.139 66.3 752.229 66.99 751.129 67.49C750.029 67.99 748.799 68.24 747.439 68.24C745.799 68.24 744.339 67.89 743.059 67.19C741.779 66.49 740.779 65.49 740.059 64.19C739.339 62.89 738.979 61.37 738.979 59.63C738.979 57.89 739.329 56.37 740.029 55.07C740.749 53.77 741.749 52.77 743.029 52.07C744.309 51.37 745.779 51.02 747.439 51.02C749.059 51.02 750.499 51.36 751.759 52.04C753.019 52.72 753.999 53.69 754.699 54.95C755.419 56.21 755.779 57.68 755.779 59.36ZM750.529 58.01C750.529 57.13 750.229 56.43 749.629 55.91C749.029 55.39 748.279 55.13 747.379 55.13C746.519 55.13 745.789 55.38 745.189 55.88C744.609 56.38 744.249 57.09 744.109 58.01H750.529ZM764.845 51.02C766.025 51.02 767.055 51.26 767.935 51.74C768.835 52.22 769.525 52.85 770.005 53.63V51.26H775.135V67.97C775.135 69.51 774.825 70.9 774.205 72.14C773.605 73.4 772.675 74.4 771.415 75.14C770.175 75.88 768.625 76.25 766.765 76.25C764.285 76.25 762.275 75.66 760.735 74.48C759.195 73.32 758.315 71.74 758.095 69.74H763.165C763.325 70.38 763.705 70.88 764.305 71.24C764.905 71.62 765.645 71.81 766.525 71.81C767.585 71.81 768.425 71.5 769.045 70.88C769.685 70.28 770.005 69.31 770.005 67.97V65.6C769.505 66.38 768.815 67.02 767.935 67.52C767.055 68 766.025 68.24 764.845 68.24C763.465 68.24 762.215 67.89 761.095 67.19C759.975 66.47 759.085 65.46 758.425 64.16C757.785 62.84 757.465 61.32 757.465 59.6C757.465 57.88 757.785 56.37 758.425 55.07C759.085 53.77 759.975 52.77 761.095 52.07C762.215 51.37 763.465 51.02 764.845 51.02ZM770.005 59.63C770.005 58.35 769.645 57.34 768.925 56.6C768.225 55.86 767.365 55.49 766.345 55.49C765.325 55.49 764.455 55.86 763.735 56.6C763.035 57.32 762.685 58.32 762.685 59.6C762.685 60.88 763.035 61.9 763.735 62.66C764.455 63.4 765.325 63.77 766.345 63.77C767.365 63.77 768.225 63.4 768.925 62.66C769.645 61.92 770.005 60.91 770.005 59.63ZM777.826 59.6C777.826 57.88 778.146 56.37 778.786 55.07C779.446 53.77 780.336 52.77 781.456 52.07C782.576 51.37 783.826 51.02 785.206 51.02C786.386 51.02 787.416 51.26 788.296 51.74C789.196 52.22 789.886 52.85 790.366 53.63V51.26H795.496V68H790.366V65.63C789.866 66.41 789.166 67.04 788.266 67.52C787.386 68 786.356 68.24 785.176 68.24C783.816 68.24 782.576 67.89 781.456 67.19C780.336 66.47 779.446 65.46 778.786 64.16C778.146 62.84 777.826 61.32 777.826 59.6ZM790.366 59.63C790.366 58.35 790.006 57.34 789.286 56.6C788.586 55.86 787.726 55.49 786.706 55.49C785.686 55.49 784.816 55.86 784.096 56.6C783.396 57.32 783.046 58.32 783.046 59.6C783.046 60.88 783.396 61.9 784.096 62.66C784.816 63.4 785.686 63.77 786.706 63.77C787.726 63.77 788.586 63.4 789.286 62.66C790.006 61.92 790.366 60.91 790.366 59.63ZM809.408 51.08C811.368 51.08 812.928 51.72 814.088 53C815.268 54.26 815.858 56 815.858 58.22V68H810.758V58.91C810.758 57.79 810.468 56.92 809.888 56.3C809.308 55.68 808.528 55.37 807.548 55.37C806.568 55.37 805.788 55.68 805.208 56.3C804.628 56.92 804.338 57.79 804.338 58.91V68H799.208V51.26H804.338V53.48C804.858 52.74 805.558 52.16 806.438 51.74C807.318 51.3 808.308 51.08 809.408 51.08ZM818.403 59.6C818.403 57.88 818.723 56.37 819.363 55.07C820.023 53.77 820.913 52.77 822.033 52.07C823.153 51.37 824.403 51.02 825.783 51.02C826.883 51.02 827.883 51.25 828.783 51.71C829.703 52.17 830.423 52.79 830.943 53.57V45.8H836.073V68H830.943V65.6C830.463 66.4 829.773 67.04 828.873 67.52C827.993 68 826.963 68.24 825.783 68.24C824.403 68.24 823.153 67.89 822.033 67.19C820.913 66.47 820.023 65.46 819.363 64.16C818.723 62.84 818.403 61.32 818.403 59.6ZM830.943 59.63C830.943 58.35 830.583 57.34 829.863 56.6C829.163 55.86 828.303 55.49 827.283 55.49C826.263 55.49 825.393 55.86 824.673 56.6C823.973 57.32 823.623 58.32 823.623 59.6C823.623 60.88 823.973 61.9 824.673 62.66C825.393 63.4 826.263 63.77 827.283 63.77C828.303 63.77 829.163 63.4 829.863 62.66C830.583 61.92 830.943 60.91 830.943 59.63ZM847.404 68.24C845.764 68.24 844.284 67.89 842.964 67.19C841.664 66.49 840.634 65.49 839.874 64.19C839.134 62.89 838.764 61.37 838.764 59.63C838.764 57.91 839.144 56.4 839.904 55.1C840.664 53.78 841.704 52.77 843.024 52.07C844.344 51.37 845.824 51.02 847.464 51.02C849.104 51.02 850.584 51.37 851.904 52.07C853.224 52.77 854.264 53.78 855.024 55.1C855.784 56.4 856.164 57.91 856.164 59.63C856.164 61.35 855.774 62.87 854.994 64.19C854.234 65.49 853.184 66.49 851.844 67.19C850.524 67.89 849.044 68.24 847.404 68.24ZM847.404 63.8C848.384 63.8 849.214 63.44 849.894 62.72C850.594 62 850.944 60.97 850.944 59.63C850.944 58.29 850.604 57.26 849.924 56.54C849.264 55.82 848.444 55.46 847.464 55.46C846.464 55.46 845.634 55.82 844.974 56.54C844.314 57.24 843.984 58.27 843.984 59.63C843.984 60.97 844.304 62 844.944 62.72C845.604 63.44 846.424 63.8 847.404 63.8ZM865.635 46.19L865.035 60.56H860.685L860.085 46.19H865.635ZM862.935 68.24C862.035 68.24 861.295 67.98 860.715 67.46C860.155 66.92 859.875 66.26 859.875 65.48C859.875 64.68 860.155 64.01 860.715 63.47C861.295 62.93 862.035 62.66 862.935 62.66C863.815 62.66 864.535 62.93 865.095 63.47C865.675 64.01 865.965 64.68 865.965 65.48C865.965 66.26 865.675 66.92 865.095 67.46C864.535 67.98 863.815 68.24 862.935 68.24Z" fill="#E8E8E8"/>
<path d="M475.606 206.562C472.756 203.712 466.106 190.562 466.106 182.062C453.606 206.562 462.606 218.062 470.106 220.062C477.606 222.062 481.606 212.562 475.606 206.562Z" fill="#403636"/>
<path d="M795.014 206.562C797.864 203.712 804.514 190.562 804.514 182.062C817.014 206.562 808.014 218.062 800.514 220.062C793.014 222.062 789.014 212.562 795.014 206.562Z" fill="#403636"/>
<path d="M595.107 130.562C600.107 136.562 610.107 157.062 598.607 188.562C597.44 184.395 591.807 173.262 578.607 162.062C562.107 148.062 555.607 139.562 561.107 130.562C566.607 121.562 584.106 117.362 595.107 130.562Z" fill="#403636"/>
<path d="M678.922 130.562C673.922 136.562 663.922 157.062 675.422 188.562C676.589 184.395 682.222 173.262 695.422 162.062C711.922 148.062 718.422 139.562 712.922 130.562C707.422 121.562 689.923 117.362 678.922 130.562Z" fill="#403636"/>
<path d="M466.079 121.933C558.899 147.888 586.22 169.331 586.807 205.25C474.975 243.799 460.875 159.575 466.079 121.933Z" fill="#BDBDBD"/>
<path fill-rule="evenodd" clip-rule="evenodd" d="M524.68 205.256C547.609 210.651 570.395 198.793 578.354 178.333L576.758 173.849L566.68 164.286L543.919 149.685L519.154 139.235L506.102 133.583L499.775 132.095C494.925 137.383 491.349 143.891 489.608 151.289C483.979 175.212 499.682 199.374 524.68 205.256Z" fill="#D08D0A"/>
<path d="M499.775 132.095C494.925 137.383 491.349 143.891 489.608 151.289C488.884 154.367 488.513 157.449 488.469 160.496C504.009 157.759 523.22 161.252 532.267 166.463C537.966 169.745 553.604 182.75 558.038 201.018C567.174 196.126 574.501 188.238 578.354 178.333L576.758 173.849L566.68 164.286L543.919 149.685L519.154 139.235L506.102 133.583L499.775 132.095Z" fill="url(#paint0_linear_2487_6210)"/>
<path d="M466.079 121.933C558.899 147.888 586.22 169.331 586.807 205.25C474.975 243.799 460.875 159.575 466.079 121.933Z" stroke="#201919" stroke-width="3" stroke-linejoin="round"/>
<path opacity="0.8" d="M555.944 185.902L574.725 193.403L564.475 206.401L552.537 193.833L555.944 185.902Z" fill="#E8E8E8"/>
<path opacity="0.8" d="M551.105 195.551L554.082 209.093L544.635 209.952L548.729 199.101L551.105 195.551Z" fill="#E8E8E8"/>
<circle cx="532.066" cy="169.498" r="19.5" transform="rotate(13.2402 532.066 169.498)" fill="#C9680F"/>
<circle cx="532.066" cy="169.498" r="12.5" transform="rotate(13.2402 532.066 169.498)" fill="#AF4F0C"/>
<path d="M807.95 121.933C715.13 147.888 687.809 169.331 687.222 205.25C799.055 243.799 813.154 159.575 807.95 121.933Z" fill="#BDBDBD"/>
<path fill-rule="evenodd" clip-rule="evenodd" d="M749.349 205.256C726.42 210.651 703.634 198.793 695.675 178.333L697.271 173.849L707.349 164.286L730.11 149.685L754.875 139.235L767.927 133.583L774.255 132.095C779.104 137.383 782.68 143.891 784.421 151.289C790.05 175.212 774.348 199.374 749.349 205.256Z" fill="#D08D0A"/>
<path d="M774.255 132.095C779.104 137.383 782.68 143.891 784.421 151.289C785.145 154.367 785.516 157.449 785.56 160.496C770.02 157.759 750.809 161.252 741.762 166.463C736.064 169.745 720.426 182.75 715.992 201.018C706.855 196.126 699.528 188.238 695.675 178.333L697.271 173.849L707.349 164.286L730.11 149.685L754.875 139.235L767.927 133.583L774.255 132.095Z" fill="url(#paint1_linear_2487_6210)"/>
<path d="M807.95 121.933C715.13 147.888 687.809 169.331 687.222 205.25C799.055 243.799 813.154 159.575 807.95 121.933Z" stroke="#201919" stroke-width="3" stroke-linejoin="round"/>
<path opacity="0.8" d="M718.086 185.902L699.305 193.403L709.554 206.401L721.493 193.833L718.086 185.902Z" fill="#E8E8E8"/>
<path opacity="0.8" d="M722.924 195.551L719.947 209.093L729.395 209.952L725.301 199.101L722.924 195.551Z" fill="#E8E8E8"/>
<circle cx="19.5" cy="19.5" r="19.5" transform="matrix(-0.973418 0.229034 0.229034 0.973418 756.479 146.05)" fill="#C9680F"/>
<circle cx="12.5" cy="12.5" r="12.5" transform="matrix(-0.973418 0.229034 0.229034 0.973418 751.269 154.468)" fill="#AF4F0C"/>
</g>
<defs>
<linearGradient id="paint0_linear_2487_6210" x1="518.009" y1="179.031" x2="541.858" y2="114.786" gradientUnits="userSpaceOnUse">
<stop stop-color="#C9680F"/>
<stop offset="1" stop-color="#861A14"/>
</linearGradient>
<linearGradient id="paint1_linear_2487_6210" x1="756.02" y1="179.031" x2="732.172" y2="114.786" gradientUnits="userSpaceOnUse">
<stop stop-color="#C9680F"/>
<stop offset="1" stop-color="#861A14"/>
</linearGradient>
</defs>
</svg>
